<?xml version="1.0" encoding="utf-8" standalone="no"?>
<!DOCTYPE svg PUBLIC "-//W3C//DTD SVG 1.1//EN"
  "http://www.w3.org/Graphics/SVG/1.1/DTD/svg11.dtd">
<!-- Created with matplotlib (https://matplotlib.org/) -->
<svg height="432pt" version="1.1" viewBox="0 0 216 432" width="216pt" xmlns="http://www.w3.org/2000/svg" xmlns:xlink="http://www.w3.org/1999/xlink">
 <defs>
  <style type="text/css">
*{stroke-linecap:butt;stroke-linejoin:round;}
  </style>
 </defs>
 <g id="figure_1">
  <g id="patch_1">
   <path d="M 0 432 
L 216 432 
L 216 0 
L 0 0 
z
" style="fill:#ffffff;"/>
  </g>
  <g id="axes_1">
   <g id="patch_2">
    <path d="M 53.425 51.267596 
L 199.621591 51.267596 
L 199.621591 15.412195 
L 53.425 15.412195 
z
" style="fill:#ffffff;"/>
   </g>
   <g id="patch_3">
    <path clip-path="url(#pa373ab747e)" d="M 60.0703 51.267596 
L 65.386539 51.267596 
L 65.386539 51.267596 
L 60.0703 51.267596 
z
" style="fill:#97178f;"/>
   </g>
   <g id="patch_4">
    <path clip-path="url(#pa373ab747e)" d="M 65.386539 51.267596 
L 70.702779 51.267596 
L 70.702779 51.267596 
L 65.386539 51.267596 
z
" style="fill:#97178f;"/>
   </g>
   <g id="patch_5">
    <path clip-path="url(#pa373ab747e)" d="M 70.702779 51.267596 
L 76.019019 51.267596 
L 76.019019 51.267596 
L 70.702779 51.267596 
z
" style="fill:#97178f;"/>
   </g>
   <g id="patch_6">
    <path clip-path="url(#pa373ab747e)" d="M 76.019019 51.267596 
L 81.335258 51.267596 
L 81.335258 51.267596 
L 76.019019 51.267596 
z
" style="fill:#97178f;"/>
   </g>
   <g id="patch_7">
    <path clip-path="url(#pa373ab747e)" d="M 81.335258 51.267596 
L 86.651498 51.267596 
L 86.651498 51.267596 
L 81.335258 51.267596 
z
" style="fill:#97178f;"/>
   </g>
   <g id="patch_8">
    <path clip-path="url(#pa373ab747e)" d="M 86.651498 51.267596 
L 91.967738 51.267596 
L 91.967738 51.267596 
L 86.651498 51.267596 
z
" style="fill:#97178f;"/>
   </g>
   <g id="patch_9">
    <path clip-path="url(#pa373ab747e)" d="M 91.967738 51.267596 
L 97.283977 51.267596 
L 97.283977 51.267596 
L 91.967738 51.267596 
z
" style="fill:#97178f;"/>
   </g>
   <g id="patch_10">
    <path clip-path="url(#pa373ab747e)" d="M 97.283977 51.267596 
L 102.600217 51.267596 
L 102.600217 51.267596 
L 97.283977 51.267596 
z
" style="fill:#97178f;"/>
   </g>
   <g id="patch_11">
    <path clip-path="url(#pa373ab747e)" d="M 102.600217 51.267596 
L 107.916457 51.267596 
L 107.916457 51.267596 
L 102.600217 51.267596 
z
" style="fill:#97178f;"/>
   </g>
   <g id="patch_12">
    <path clip-path="url(#pa373ab747e)" d="M 107.916457 51.267596 
L 113.232696 51.267596 
L 113.232696 51.267596 
L 107.916457 51.267596 
z
" style="fill:#97178f;"/>
   </g>
   <g id="patch_13">
    <path clip-path="url(#pa373ab747e)" d="M 113.232696 51.267596 
L 118.548936 51.267596 
L 118.548936 51.267596 
L 113.232696 51.267596 
z
" style="fill:#97178f;"/>
   </g>
   <g id="patch_14">
    <path clip-path="url(#pa373ab747e)" d="M 118.548936 51.267596 
L 123.865176 51.267596 
L 123.865176 51.267596 
L 118.548936 51.267596 
z
" style="fill:#97178f;"/>
   </g>
   <g id="patch_15">
    <path clip-path="url(#pa373ab747e)" d="M 123.865176 51.267596 
L 129.181415 51.267596 
L 129.181415 51.267596 
L 123.865176 51.267596 
z
" style="fill:#97178f;"/>
   </g>
   <g id="patch_16">
    <path clip-path="url(#pa373ab747e)" d="M 129.181415 51.267596 
L 134.497655 51.267596 
L 134.497655 51.267596 
L 129.181415 51.267596 
z
" style="fill:#97178f;"/>
   </g>
   <g id="patch_17">
    <path clip-path="url(#pa373ab747e)" d="M 134.497655 51.267596 
L 139.813895 51.267596 
L 139.813895 51.267596 
L 134.497655 51.267596 
z
" style="fill:#97178f;"/>
   </g>
   <g id="patch_18">
    <path clip-path="url(#pa373ab747e)" d="M 139.813895 51.267596 
L 145.130134 51.267596 
L 145.130134 51.267596 
L 139.813895 51.267596 
z
" style="fill:#97178f;"/>
   </g>
   <g id="patch_19">
    <path clip-path="url(#pa373ab747e)" d="M 145.130134 51.267596 
L 150.446374 51.267596 
L 150.446374 51.267596 
L 145.130134 51.267596 
z
" style="fill:#97178f;"/>
   </g>
   <g id="patch_20">
    <path clip-path="url(#pa373ab747e)" d="M 150.446374 51.267596 
L 155.762614 51.267596 
L 155.762614 51.267596 
L 150.446374 51.267596 
z
" style="fill:#97178f;"/>
   </g>
   <g id="patch_21">
    <path clip-path="url(#pa373ab747e)" d="M 155.762614 51.267596 
L 161.078853 51.267596 
L 161.078853 51.267596 
L 155.762614 51.267596 
z
" style="fill:#97178f;"/>
   </g>
   <g id="patch_22">
    <path clip-path="url(#pa373ab747e)" d="M 161.078853 51.267596 
L 166.395093 51.267596 
L 166.395093 51.267596 
L 161.078853 51.267596 
z
" style="fill:#97178f;"/>
   </g>
   <g id="patch_23">
    <path clip-path="url(#pa373ab747e)" d="M 166.395093 51.267596 
L 171.711333 51.267596 
L 171.711333 50.062372 
L 166.395093 50.062372 
z
" style="fill:#97178f;"/>
   </g>
   <g id="patch_24">
    <path clip-path="url(#pa373ab747e)" d="M 171.711333 51.267596 
L 177.027572 51.267596 
L 177.027572 24.752678 
L 171.711333 24.752678 
z
" style="fill:#97178f;"/>
   </g>
   <g id="patch_25">
    <path clip-path="url(#pa373ab747e)" d="M 177.027572 51.267596 
L 182.343812 51.267596 
L 182.343812 38.813619 
L 177.027572 38.813619 
z
" style="fill:#97178f;"/>
   </g>
   <g id="patch_26">
    <path clip-path="url(#pa373ab747e)" d="M 182.343812 51.267596 
L 187.660052 51.267596 
L 187.660052 51.267596 
L 182.343812 51.267596 
z
" style="fill:#97178f;"/>
   </g>
   <g id="patch_27">
    <path clip-path="url(#pa373ab747e)" d="M 187.660052 51.267596 
L 192.976291 51.267596 
L 192.976291 51.267596 
L 187.660052 51.267596 
z
" style="fill:#97178f;"/>
   </g>
   <g id="matplotlib.axis_1">
    <g id="xtick_1">
     <g id="line2d_1">
      <defs>
       <path d="M 0 0 
L 0 3.5 
" id="m1a1e8df2b8" style="stroke:#000000;stroke-width:0.8;"/>
      </defs>
      <g>
       <use style="stroke:#000000;stroke-width:0.8;" x="60.0703" xlink:href="#m1a1e8df2b8" y="51.267596"/>
      </g>
     </g>
    </g>
    <g id="xtick_2">
     <g id="line2d_2">
      <g>
       <use style="stroke:#000000;stroke-width:0.8;" x="126.523295" xlink:href="#m1a1e8df2b8" y="51.267596"/>
      </g>
     </g>
    </g>
    <g id="xtick_3">
     <g id="line2d_3">
      <g>
       <use style="stroke:#000000;stroke-width:0.8;" x="192.976291" xlink:href="#m1a1e8df2b8" y="51.267596"/>
      </g>
     </g>
    </g>
   </g>
   <g id="matplotlib.axis_2">
    <g id="ytick_1">
     <g id="line2d_4">
      <defs>
       <path d="M 0 0 
L -3.5 0 
" id="mecb49b0d21" style="stroke:#000000;stroke-width:0.8;"/>
      </defs>
      <g>
       <use style="stroke:#000000;stroke-width:0.8;" x="53.425" xlink:href="#mecb49b0d21" y="51.267596"/>
      </g>
     </g>
     <g id="text_1">
      <!-- 0 -->
      <defs>
       <path d="M 31.78125 66.40625 
Q 24.171875 66.40625 20.328125 58.90625 
Q 16.5 51.421875 16.5 36.375 
Q 16.5 21.390625 20.328125 13.890625 
Q 24.171875 6.390625 31.78125 6.390625 
Q 39.453125 6.390625 43.28125 13.890625 
Q 47.125 21.390625 47.125 36.375 
Q 47.125 51.421875 43.28125 58.90625 
Q 39.453125 66.40625 31.78125 66.40625 
z
M 31.78125 74.21875 
Q 44.046875 74.21875 50.515625 64.515625 
Q 56.984375 54.828125 56.984375 36.375 
Q 56.984375 17.96875 50.515625 8.265625 
Q 44.046875 -1.421875 31.78125 -1.421875 
Q 19.53125 -1.421875 13.0625 8.265625 
Q 6.59375 17.96875 6.59375 36.375 
Q 6.59375 54.828125 13.0625 64.515625 
Q 19.53125 74.21875 31.78125 74.21875 
z
" id="DejaVuSans-48"/>
      </defs>
      <g transform="translate(37.5175 56.586502)scale(0.14 -0.14)">
       <use xlink:href="#DejaVuSans-48"/>
      </g>
     </g>
    </g>
    <g id="ytick_2">
     <g id="line2d_5">
      <g>
       <use style="stroke:#000000;stroke-width:0.8;" x="53.425" xlink:href="#mecb49b0d21" y="31.180537"/>
      </g>
     </g>
     <g id="text_2">
      <!-- 50 -->
      <defs>
       <path d="M 10.796875 72.90625 
L 49.515625 72.90625 
L 49.515625 64.59375 
L 19.828125 64.59375 
L 19.828125 46.734375 
Q 21.96875 47.46875 24.109375 47.828125 
Q 26.265625 48.1875 28.421875 48.1875 
Q 40.625 48.1875 47.75 41.5 
Q 54.890625 34.8125 54.890625 23.390625 
Q 54.890625 11.625 47.5625 5.09375 
Q 40.234375 -1.421875 26.90625 -1.421875 
Q 22.3125 -1.421875 17.546875 -0.640625 
Q 12.796875 0.140625 7.71875 1.703125 
L 7.71875 11.625 
Q 12.109375 9.234375 16.796875 8.0625 
Q 21.484375 6.890625 26.703125 6.890625 
Q 35.15625 6.890625 40.078125 11.328125 
Q 45.015625 15.765625 45.015625 23.390625 
Q 45.015625 31 40.078125 35.4375 
Q 35.15625 39.890625 26.703125 39.890625 
Q 22.75 39.890625 18.8125 39.015625 
Q 14.890625 38.140625 10.796875 36.28125 
z
" id="DejaVuSans-53"/>
      </defs>
      <g transform="translate(28.61 36.499443)scale(0.14 -0.14)">
       <use xlink:href="#DejaVuSans-53"/>
       <use x="63.623047" xlink:href="#DejaVuSans-48"/>
      </g>
     </g>
    </g>
    <g id="text_3">
     <!-- Counts -->
     <defs>
      <path d="M 64.40625 67.28125 
L 64.40625 56.890625 
Q 59.421875 61.53125 53.78125 63.8125 
Q 48.140625 66.109375 41.796875 66.109375 
Q 29.296875 66.109375 22.65625 58.46875 
Q 16.015625 50.828125 16.015625 36.375 
Q 16.015625 21.96875 22.65625 14.328125 
Q 29.296875 6.6875 41.796875 6.6875 
Q 48.140625 6.6875 53.78125 8.984375 
Q 59.421875 11.28125 64.40625 15.921875 
L 64.40625 5.609375 
Q 59.234375 2.09375 53.4375 0.328125 
Q 47.65625 -1.421875 41.21875 -1.421875 
Q 24.65625 -1.421875 15.125 8.703125 
Q 5.609375 18.84375 5.609375 36.375 
Q 5.609375 53.953125 15.125 64.078125 
Q 24.65625 74.21875 41.21875 74.21875 
Q 47.75 74.21875 53.53125 72.484375 
Q 59.328125 70.75 64.40625 67.28125 
z
" id="DejaVuSans-67"/>
      <path d="M 30.609375 48.390625 
Q 23.390625 48.390625 19.1875 42.75 
Q 14.984375 37.109375 14.984375 27.296875 
Q 14.984375 17.484375 19.15625 11.84375 
Q 23.34375 6.203125 30.609375 6.203125 
Q 37.796875 6.203125 41.984375 11.859375 
Q 46.1875 17.53125 46.1875 27.296875 
Q 46.1875 37.015625 41.984375 42.703125 
Q 37.796875 48.390625 30.609375 48.390625 
z
M 30.609375 56 
Q 42.328125 56 49.015625 48.375 
Q 55.71875 40.765625 55.71875 27.296875 
Q 55.71875 13.875 49.015625 6.21875 
Q 42.328125 -1.421875 30.609375 -1.421875 
Q 18.84375 -1.421875 12.171875 6.21875 
Q 5.515625 13.875 5.515625 27.296875 
Q 5.515625 40.765625 12.171875 48.375 
Q 18.84375 56 30.609375 56 
z
" id="DejaVuSans-111"/>
      <path d="M 8.5 21.578125 
L 8.5 54.6875 
L 17.484375 54.6875 
L 17.484375 21.921875 
Q 17.484375 14.15625 20.5 10.265625 
Q 23.53125 6.390625 29.59375 6.390625 
Q 36.859375 6.390625 41.078125 11.03125 
Q 45.3125 15.671875 45.3125 23.6875 
L 45.3125 54.6875 
L 54.296875 54.6875 
L 54.296875 0 
L 45.3125 0 
L 45.3125 8.40625 
Q 42.046875 3.421875 37.71875 1 
Q 33.40625 -1.421875 27.6875 -1.421875 
Q 18.265625 -1.421875 13.375 4.4375 
Q 8.5 10.296875 8.5 21.578125 
z
M 31.109375 56 
z
" id="DejaVuSans-117"/>
      <path d="M 54.890625 33.015625 
L 54.890625 0 
L 45.90625 0 
L 45.90625 32.71875 
Q 45.90625 40.484375 42.875 44.328125 
Q 39.84375 48.1875 33.796875 48.1875 
Q 26.515625 48.1875 22.3125 43.546875 
Q 18.109375 38.921875 18.109375 30.90625 
L 18.109375 0 
L 9.078125 0 
L 9.078125 54.6875 
L 18.109375 54.6875 
L 18.109375 46.1875 
Q 21.34375 51.125 25.703125 53.5625 
Q 30.078125 56 35.796875 56 
Q 45.21875 56 50.046875 50.171875 
Q 54.890625 44.34375 54.890625 33.015625 
z
" id="DejaVuSans-110"/>
      <path d="M 18.3125 70.21875 
L 18.3125 54.6875 
L 36.8125 54.6875 
L 36.8125 47.703125 
L 18.3125 47.703125 
L 18.3125 18.015625 
Q 18.3125 11.328125 20.140625 9.421875 
Q 21.96875 7.515625 27.59375 7.515625 
L 36.8125 7.515625 
L 36.8125 0 
L 27.59375 0 
Q 17.1875 0 13.234375 3.875 
Q 9.28125 7.765625 9.28125 18.015625 
L 9.28125 47.703125 
L 2.6875 47.703125 
L 2.6875 54.6875 
L 9.28125 54.6875 
L 9.28125 70.21875 
z
" id="DejaVuSans-116"/>
      <path d="M 44.28125 53.078125 
L 44.28125 44.578125 
Q 40.484375 46.53125 36.375 47.5 
Q 32.28125 48.484375 27.875 48.484375 
Q 21.1875 48.484375 17.84375 46.4375 
Q 14.5 44.390625 14.5 40.28125 
Q 14.5 37.15625 16.890625 35.375 
Q 19.28125 33.59375 26.515625 31.984375 
L 29.59375 31.296875 
Q 39.15625 29.25 43.1875 25.515625 
Q 47.21875 21.78125 47.21875 15.09375 
Q 47.21875 7.46875 41.1875 3.015625 
Q 35.15625 -1.421875 24.609375 -1.421875 
Q 20.21875 -1.421875 15.453125 -0.5625 
Q 10.6875 0.296875 5.421875 2 
L 5.421875 11.28125 
Q 10.40625 8.6875 15.234375 7.390625 
Q 20.0625 6.109375 24.8125 6.109375 
Q 31.15625 6.109375 34.5625 8.28125 
Q 37.984375 10.453125 37.984375 14.40625 
Q 37.984375 18.0625 35.515625 20.015625 
Q 33.0625 21.96875 24.703125 23.78125 
L 21.578125 24.515625 
Q 13.234375 26.265625 9.515625 29.90625 
Q 5.8125 33.546875 5.8125 39.890625 
Q 5.8125 47.609375 11.28125 51.796875 
Q 16.75 56 26.8125 56 
Q 31.78125 56 36.171875 55.265625 
Q 40.578125 54.546875 44.28125 53.078125 
z
" id="DejaVuSans-115"/>
     </defs>
     <g transform="translate(21.698438 57.77427)rotate(-90)scale(0.14 -0.14)">
      <use xlink:href="#DejaVuSans-67"/>
      <use x="69.824219" xlink:href="#DejaVuSans-111"/>
      <use x="131.005859" xlink:href="#DejaVuSans-117"/>
      <use x="194.384766" xlink:href="#DejaVuSans-110"/>
      <use x="257.763672" xlink:href="#DejaVuSans-116"/>
      <use x="296.972656" xlink:href="#DejaVuSans-115"/>
     </g>
    </g>
   </g>
   <g id="patch_28">
    <path d="M 53.425 51.267596 
L 53.425 15.412195 
" style="fill:none;stroke:#000000;stroke-linecap:square;stroke-linejoin:miter;stroke-width:0.8;"/>
   </g>
   <g id="patch_29">
    <path d="M 53.425 51.267596 
L 199.621591 51.267596 
" style="fill:none;stroke:#000000;stroke-linecap:square;stroke-linejoin:miter;stroke-width:0.8;"/>
   </g>
  </g>
  <g id="axes_2">
   <g id="patch_30">
    <path d="M 53.425 106.422997 
L 199.621591 106.422997 
L 199.621591 70.567596 
L 53.425 70.567596 
z
" style="fill:#ffffff;"/>
   </g>
   <g id="patch_31">
    <path clip-path="url(#pc69220ec69)" d="M 60.0703 106.422997 
L 65.386539 106.422997 
L 65.386539 106.422997 
L 60.0703 106.422997 
z
" style="fill:#97178f;"/>
   </g>
   <g id="patch_32">
    <path clip-path="url(#pc69220ec69)" d="M 65.386539 106.422997 
L 70.702779 106.422997 
L 70.702779 106.422997 
L 65.386539 106.422997 
z
" style="fill:#97178f;"/>
   </g>
   <g id="patch_33">
    <path clip-path="url(#pc69220ec69)" d="M 70.702779 106.422997 
L 76.019019 106.422997 
L 76.019019 106.422997 
L 70.702779 106.422997 
z
" style="fill:#97178f;"/>
   </g>
   <g id="patch_34">
    <path clip-path="url(#pc69220ec69)" d="M 76.019019 106.422997 
L 81.335258 106.422997 
L 81.335258 97.182949 
L 76.019019 97.182949 
z
" style="fill:#97178f;"/>
   </g>
   <g id="patch_35">
    <path clip-path="url(#pc69220ec69)" d="M 81.335258 106.422997 
L 86.651498 106.422997 
L 86.651498 75.488925 
L 81.335258 75.488925 
z
" style="fill:#97178f;"/>
   </g>
   <g id="patch_36">
    <path clip-path="url(#pc69220ec69)" d="M 86.651498 106.422997 
L 91.967738 106.422997 
L 91.967738 106.422997 
L 86.651498 106.422997 
z
" style="fill:#97178f;"/>
   </g>
   <g id="patch_37">
    <path clip-path="url(#pc69220ec69)" d="M 91.967738 106.422997 
L 97.283977 106.422997 
L 97.283977 106.422997 
L 91.967738 106.422997 
z
" style="fill:#97178f;"/>
   </g>
   <g id="patch_38">
    <path clip-path="url(#pc69220ec69)" d="M 97.283977 106.422997 
L 102.600217 106.422997 
L 102.600217 106.422997 
L 97.283977 106.422997 
z
" style="fill:#97178f;"/>
   </g>
   <g id="patch_39">
    <path clip-path="url(#pc69220ec69)" d="M 102.600217 106.422997 
L 107.916457 106.422997 
L 107.916457 106.422997 
L 102.600217 106.422997 
z
" style="fill:#97178f;"/>
   </g>
   <g id="patch_40">
    <path clip-path="url(#pc69220ec69)" d="M 107.916457 106.422997 
L 113.232696 106.422997 
L 113.232696 106.422997 
L 107.916457 106.422997 
z
" style="fill:#97178f;"/>
   </g>
   <g id="patch_41">
    <path clip-path="url(#pc69220ec69)" d="M 113.232696 106.422997 
L 118.548936 106.422997 
L 118.548936 106.422997 
L 113.232696 106.422997 
z
" style="fill:#97178f;"/>
   </g>
   <g id="patch_42">
    <path clip-path="url(#pc69220ec69)" d="M 118.548936 106.422997 
L 123.865176 106.422997 
L 123.865176 106.422997 
L 118.548936 106.422997 
z
" style="fill:#97178f;"/>
   </g>
   <g id="patch_43">
    <path clip-path="url(#pc69220ec69)" d="M 123.865176 106.422997 
L 129.181415 106.422997 
L 129.181415 106.422997 
L 123.865176 106.422997 
z
" style="fill:#97178f;"/>
   </g>
   <g id="patch_44">
    <path clip-path="url(#pc69220ec69)" d="M 129.181415 106.422997 
L 134.497655 106.422997 
L 134.497655 106.422997 
L 129.181415 106.422997 
z
" style="fill:#97178f;"/>
   </g>
   <g id="patch_45">
    <path clip-path="url(#pc69220ec69)" d="M 134.497655 106.422997 
L 139.813895 106.422997 
L 139.813895 106.422997 
L 134.497655 106.422997 
z
" style="fill:#97178f;"/>
   </g>
   <g id="patch_46">
    <path clip-path="url(#pc69220ec69)" d="M 139.813895 106.422997 
L 145.130134 106.422997 
L 145.130134 106.422997 
L 139.813895 106.422997 
z
" style="fill:#97178f;"/>
   </g>
   <g id="patch_47">
    <path clip-path="url(#pc69220ec69)" d="M 145.130134 106.422997 
L 150.446374 106.422997 
L 150.446374 106.422997 
L 145.130134 106.422997 
z
" style="fill:#97178f;"/>
   </g>
   <g id="patch_48">
    <path clip-path="url(#pc69220ec69)" d="M 150.446374 106.422997 
L 155.762614 106.422997 
L 155.762614 106.422997 
L 150.446374 106.422997 
z
" style="fill:#97178f;"/>
   </g>
   <g id="patch_49">
    <path clip-path="url(#pc69220ec69)" d="M 155.762614 106.422997 
L 161.078853 106.422997 
L 161.078853 106.422997 
L 155.762614 106.422997 
z
" style="fill:#97178f;"/>
   </g>
   <g id="patch_50">
    <path clip-path="url(#pc69220ec69)" d="M 161.078853 106.422997 
L 166.395093 106.422997 
L 166.395093 106.422997 
L 161.078853 106.422997 
z
" style="fill:#97178f;"/>
   </g>
   <g id="patch_51">
    <path clip-path="url(#pc69220ec69)" d="M 166.395093 106.422997 
L 171.711333 106.422997 
L 171.711333 106.422997 
L 166.395093 106.422997 
z
" style="fill:#97178f;"/>
   </g>
   <g id="patch_52">
    <path clip-path="url(#pc69220ec69)" d="M 171.711333 106.422997 
L 177.027572 106.422997 
L 177.027572 106.422997 
L 171.711333 106.422997 
z
" style="fill:#97178f;"/>
   </g>
   <g id="patch_53">
    <path clip-path="url(#pc69220ec69)" d="M 177.027572 106.422997 
L 182.343812 106.422997 
L 182.343812 106.422997 
L 177.027572 106.422997 
z
" style="fill:#97178f;"/>
   </g>
   <g id="patch_54">
    <path clip-path="url(#pc69220ec69)" d="M 182.343812 106.422997 
L 187.660052 106.422997 
L 187.660052 106.422997 
L 182.343812 106.422997 
z
" style="fill:#97178f;"/>
   </g>
   <g id="patch_55">
    <path clip-path="url(#pc69220ec69)" d="M 187.660052 106.422997 
L 192.976291 106.422997 
L 192.976291 106.422997 
L 187.660052 106.422997 
z
" style="fill:#97178f;"/>
   </g>
   <g id="matplotlib.axis_3">
    <g id="xtick_4">
     <g id="line2d_6">
      <g>
       <use style="stroke:#000000;stroke-width:0.8;" x="60.0703" xlink:href="#m1a1e8df2b8" y="106.422997"/>
      </g>
     </g>
    </g>
    <g id="xtick_5">
     <g id="line2d_7">
      <g>
       <use style="stroke:#000000;stroke-width:0.8;" x="126.523295" xlink:href="#m1a1e8df2b8" y="106.422997"/>
      </g>
     </g>
    </g>
    <g id="xtick_6">
     <g id="line2d_8">
      <g>
       <use style="stroke:#000000;stroke-width:0.8;" x="192.976291" xlink:href="#m1a1e8df2b8" y="106.422997"/>
      </g>
     </g>
    </g>
   </g>
   <g id="matplotlib.axis_4">
    <g id="ytick_3">
     <g id="line2d_9">
      <g>
       <use style="stroke:#000000;stroke-width:0.8;" x="53.425" xlink:href="#mecb49b0d21" y="106.422997"/>
      </g>
     </g>
     <g id="text_4">
      <!-- 0 -->
      <g transform="translate(37.5175 111.741903)scale(0.14 -0.14)">
       <use xlink:href="#DejaVuSans-48"/>
      </g>
     </g>
    </g>
    <g id="ytick_4">
     <g id="line2d_10">
      <g>
       <use style="stroke:#000000;stroke-width:0.8;" x="53.425" xlink:href="#mecb49b0d21" y="86.335937"/>
      </g>
     </g>
     <g id="text_5">
      <!-- 50 -->
      <g transform="translate(28.61 91.654844)scale(0.14 -0.14)">
       <use xlink:href="#DejaVuSans-53"/>
       <use x="63.623047" xlink:href="#DejaVuSans-48"/>
      </g>
     </g>
    </g>
   </g>
   <g id="patch_56">
    <path d="M 53.425 106.422997 
L 53.425 70.567596 
" style="fill:none;stroke:#000000;stroke-linecap:square;stroke-linejoin:miter;stroke-width:0.8;"/>
   </g>
   <g id="patch_57">
    <path d="M 53.425 106.422997 
L 199.621591 106.422997 
" style="fill:none;stroke:#000000;stroke-linecap:square;stroke-linejoin:miter;stroke-width:0.8;"/>
   </g>
  </g>
  <g id="axes_3">
   <g id="patch_58">
    <path d="M 53.425 161.578397 
L 199.621591 161.578397 
L 199.621591 125.722997 
L 53.425 125.722997 
z
" style="fill:#ffffff;"/>
   </g>
   <g id="patch_59">
    <path clip-path="url(#p9b8556798a)" d="M 60.0703 161.578397 
L 65.386539 161.578397 
L 65.386539 161.578397 
L 60.0703 161.578397 
z
" style="fill:#97178f;"/>
   </g>
   <g id="patch_60">
    <path clip-path="url(#p9b8556798a)" d="M 65.386539 161.578397 
L 70.702779 161.578397 
L 70.702779 161.578397 
L 65.386539 161.578397 
z
" style="fill:#97178f;"/>
   </g>
   <g id="patch_61">
    <path clip-path="url(#p9b8556798a)" d="M 70.702779 161.578397 
L 76.019019 161.578397 
L 76.019019 161.578397 
L 70.702779 161.578397 
z
" style="fill:#97178f;"/>
   </g>
   <g id="patch_62">
    <path clip-path="url(#p9b8556798a)" d="M 76.019019 161.578397 
L 81.335258 161.578397 
L 81.335258 152.33835 
L 76.019019 152.33835 
z
" style="fill:#97178f;"/>
   </g>
   <g id="patch_63">
    <path clip-path="url(#p9b8556798a)" d="M 81.335258 161.578397 
L 86.651498 161.578397 
L 86.651498 136.670444 
L 81.335258 136.670444 
z
" style="fill:#97178f;"/>
   </g>
   <g id="patch_64">
    <path clip-path="url(#p9b8556798a)" d="M 86.651498 161.578397 
L 91.967738 161.578397 
L 91.967738 155.954021 
L 86.651498 155.954021 
z
" style="fill:#97178f;"/>
   </g>
   <g id="patch_65">
    <path clip-path="url(#p9b8556798a)" d="M 91.967738 161.578397 
L 97.283977 161.578397 
L 97.283977 161.578397 
L 91.967738 161.578397 
z
" style="fill:#97178f;"/>
   </g>
   <g id="patch_66">
    <path clip-path="url(#p9b8556798a)" d="M 97.283977 161.578397 
L 102.600217 161.578397 
L 102.600217 161.578397 
L 97.283977 161.578397 
z
" style="fill:#97178f;"/>
   </g>
   <g id="patch_67">
    <path clip-path="url(#p9b8556798a)" d="M 102.600217 161.578397 
L 107.916457 161.578397 
L 107.916457 161.578397 
L 102.600217 161.578397 
z
" style="fill:#97178f;"/>
   </g>
   <g id="patch_68">
    <path clip-path="url(#p9b8556798a)" d="M 107.916457 161.578397 
L 113.232696 161.578397 
L 113.232696 161.578397 
L 107.916457 161.578397 
z
" style="fill:#97178f;"/>
   </g>
   <g id="patch_69">
    <path clip-path="url(#p9b8556798a)" d="M 113.232696 161.578397 
L 118.548936 161.578397 
L 118.548936 161.578397 
L 113.232696 161.578397 
z
" style="fill:#97178f;"/>
   </g>
   <g id="patch_70">
    <path clip-path="url(#p9b8556798a)" d="M 118.548936 161.578397 
L 123.865176 161.578397 
L 123.865176 161.176656 
L 118.548936 161.176656 
z
" style="fill:#97178f;"/>
   </g>
   <g id="patch_71">
    <path clip-path="url(#p9b8556798a)" d="M 123.865176 161.578397 
L 129.181415 161.578397 
L 129.181415 161.578397 
L 123.865176 161.578397 
z
" style="fill:#97178f;"/>
   </g>
   <g id="patch_72">
    <path clip-path="url(#p9b8556798a)" d="M 129.181415 161.578397 
L 134.497655 161.578397 
L 134.497655 161.578397 
L 129.181415 161.578397 
z
" style="fill:#97178f;"/>
   </g>
   <g id="patch_73">
    <path clip-path="url(#p9b8556798a)" d="M 134.497655 161.578397 
L 139.813895 161.578397 
L 139.813895 161.578397 
L 134.497655 161.578397 
z
" style="fill:#97178f;"/>
   </g>
   <g id="patch_74">
    <path clip-path="url(#p9b8556798a)" d="M 139.813895 161.578397 
L 145.130134 161.578397 
L 145.130134 161.578397 
L 139.813895 161.578397 
z
" style="fill:#97178f;"/>
   </g>
   <g id="patch_75">
    <path clip-path="url(#p9b8556798a)" d="M 145.130134 161.578397 
L 150.446374 161.578397 
L 150.446374 161.578397 
L 145.130134 161.578397 
z
" style="fill:#97178f;"/>
   </g>
   <g id="patch_76">
    <path clip-path="url(#p9b8556798a)" d="M 150.446374 161.578397 
L 155.762614 161.578397 
L 155.762614 161.578397 
L 150.446374 161.578397 
z
" style="fill:#97178f;"/>
   </g>
   <g id="patch_77">
    <path clip-path="url(#p9b8556798a)" d="M 155.762614 161.578397 
L 161.078853 161.578397 
L 161.078853 161.578397 
L 155.762614 161.578397 
z
" style="fill:#97178f;"/>
   </g>
   <g id="patch_78">
    <path clip-path="url(#p9b8556798a)" d="M 161.078853 161.578397 
L 166.395093 161.578397 
L 166.395093 161.578397 
L 161.078853 161.578397 
z
" style="fill:#97178f;"/>
   </g>
   <g id="patch_79">
    <path clip-path="url(#p9b8556798a)" d="M 166.395093 161.578397 
L 171.711333 161.578397 
L 171.711333 161.578397 
L 166.395093 161.578397 
z
" style="fill:#97178f;"/>
   </g>
   <g id="patch_80">
    <path clip-path="url(#p9b8556798a)" d="M 171.711333 161.578397 
L 177.027572 161.578397 
L 177.027572 161.578397 
L 171.711333 161.578397 
z
" style="fill:#97178f;"/>
   </g>
   <g id="patch_81">
    <path clip-path="url(#p9b8556798a)" d="M 177.027572 161.578397 
L 182.343812 161.578397 
L 182.343812 161.578397 
L 177.027572 161.578397 
z
" style="fill:#97178f;"/>
   </g>
   <g id="patch_82">
    <path clip-path="url(#p9b8556798a)" d="M 182.343812 161.578397 
L 187.660052 161.578397 
L 187.660052 161.578397 
L 182.343812 161.578397 
z
" style="fill:#97178f;"/>
   </g>
   <g id="patch_83">
    <path clip-path="url(#p9b8556798a)" d="M 187.660052 161.578397 
L 192.976291 161.578397 
L 192.976291 161.578397 
L 187.660052 161.578397 
z
" style="fill:#97178f;"/>
   </g>
   <g id="matplotlib.axis_5">
    <g id="xtick_7">
     <g id="line2d_11">
      <g>
       <use style="stroke:#000000;stroke-width:0.8;" x="60.0703" xlink:href="#m1a1e8df2b8" y="161.578397"/>
      </g>
     </g>
    </g>
    <g id="xtick_8">
     <g id="line2d_12">
      <g>
       <use style="stroke:#000000;stroke-width:0.8;" x="126.523295" xlink:href="#m1a1e8df2b8" y="161.578397"/>
      </g>
     </g>
    </g>
    <g id="xtick_9">
     <g id="line2d_13">
      <g>
       <use style="stroke:#000000;stroke-width:0.8;" x="192.976291" xlink:href="#m1a1e8df2b8" y="161.578397"/>
      </g>
     </g>
    </g>
   </g>
   <g id="matplotlib.axis_6">
    <g id="ytick_5">
     <g id="line2d_14">
      <g>
       <use style="stroke:#000000;stroke-width:0.8;" x="53.425" xlink:href="#mecb49b0d21" y="161.578397"/>
      </g>
     </g>
     <g id="text_6">
      <!-- 0 -->
      <g transform="translate(37.5175 166.897303)scale(0.14 -0.14)">
       <use xlink:href="#DejaVuSans-48"/>
      </g>
     </g>
    </g>
    <g id="ytick_6">
     <g id="line2d_15">
      <g>
       <use style="stroke:#000000;stroke-width:0.8;" x="53.425" xlink:href="#mecb49b0d21" y="141.491338"/>
      </g>
     </g>
     <g id="text_7">
      <!-- 50 -->
      <g transform="translate(28.61 146.810244)scale(0.14 -0.14)">
       <use xlink:href="#DejaVuSans-53"/>
       <use x="63.623047" xlink:href="#DejaVuSans-48"/>
      </g>
     </g>
    </g>
   </g>
   <g id="patch_84">
    <path d="M 53.425 161.578397 
L 53.425 125.722997 
" style="fill:none;stroke:#000000;stroke-linecap:square;stroke-linejoin:miter;stroke-width:0.8;"/>
   </g>
   <g id="patch_85">
    <path d="M 53.425 161.578397 
L 199.621591 161.578397 
" style="fill:none;stroke:#000000;stroke-linecap:square;stroke-linejoin:miter;stroke-width:0.8;"/>
   </g>
  </g>
  <g id="axes_4">
   <g id="patch_86">
    <path d="M 53.425 216.733798 
L 199.621591 216.733798 
L 199.621591 180.878397 
L 53.425 180.878397 
z
" style="fill:#ffffff;"/>
   </g>
   <g id="patch_87">
    <path clip-path="url(#p0ae623ed32)" d="M 60.0703 216.733798 
L 65.386539 216.733798 
L 65.386539 216.733798 
L 60.0703 216.733798 
z
" style="fill:#97178f;"/>
   </g>
   <g id="patch_88">
    <path clip-path="url(#p0ae623ed32)" d="M 65.386539 216.733798 
L 70.702779 216.733798 
L 70.702779 216.733798 
L 65.386539 216.733798 
z
" style="fill:#97178f;"/>
   </g>
   <g id="patch_89">
    <path clip-path="url(#p0ae623ed32)" d="M 70.702779 216.733798 
L 76.019019 216.733798 
L 76.019019 216.733798 
L 70.702779 216.733798 
z
" style="fill:#97178f;"/>
   </g>
   <g id="patch_90">
    <path clip-path="url(#p0ae623ed32)" d="M 76.019019 216.733798 
L 81.335258 216.733798 
L 81.335258 214.725092 
L 76.019019 214.725092 
z
" style="fill:#97178f;"/>
   </g>
   <g id="patch_91">
    <path clip-path="url(#p0ae623ed32)" d="M 81.335258 216.733798 
L 86.651498 216.733798 
L 86.651498 205.485045 
L 81.335258 205.485045 
z
" style="fill:#97178f;"/>
   </g>
   <g id="patch_92">
    <path clip-path="url(#p0ae623ed32)" d="M 86.651498 216.733798 
L 91.967738 216.733798 
L 91.967738 205.485045 
L 86.651498 205.485045 
z
" style="fill:#97178f;"/>
   </g>
   <g id="patch_93">
    <path clip-path="url(#p0ae623ed32)" d="M 91.967738 216.733798 
L 97.283977 216.733798 
L 97.283977 216.733798 
L 91.967738 216.733798 
z
" style="fill:#97178f;"/>
   </g>
   <g id="patch_94">
    <path clip-path="url(#p0ae623ed32)" d="M 97.283977 216.733798 
L 102.600217 216.733798 
L 102.600217 216.733798 
L 97.283977 216.733798 
z
" style="fill:#97178f;"/>
   </g>
   <g id="patch_95">
    <path clip-path="url(#p0ae623ed32)" d="M 102.600217 216.733798 
L 107.916457 216.733798 
L 107.916457 216.733798 
L 102.600217 216.733798 
z
" style="fill:#97178f;"/>
   </g>
   <g id="patch_96">
    <path clip-path="url(#p0ae623ed32)" d="M 107.916457 216.733798 
L 113.232696 216.733798 
L 113.232696 216.733798 
L 107.916457 216.733798 
z
" style="fill:#97178f;"/>
   </g>
   <g id="patch_97">
    <path clip-path="url(#p0ae623ed32)" d="M 113.232696 216.733798 
L 118.548936 216.733798 
L 118.548936 216.733798 
L 113.232696 216.733798 
z
" style="fill:#97178f;"/>
   </g>
   <g id="patch_98">
    <path clip-path="url(#p0ae623ed32)" d="M 118.548936 216.733798 
L 123.865176 216.733798 
L 123.865176 203.074598 
L 118.548936 203.074598 
z
" style="fill:#97178f;"/>
   </g>
   <g id="patch_99">
    <path clip-path="url(#p0ae623ed32)" d="M 123.865176 216.733798 
L 129.181415 216.733798 
L 129.181415 215.126833 
L 123.865176 215.126833 
z
" style="fill:#97178f;"/>
   </g>
   <g id="patch_100">
    <path clip-path="url(#p0ae623ed32)" d="M 129.181415 216.733798 
L 134.497655 216.733798 
L 134.497655 216.332057 
L 129.181415 216.332057 
z
" style="fill:#97178f;"/>
   </g>
   <g id="patch_101">
    <path clip-path="url(#p0ae623ed32)" d="M 134.497655 216.733798 
L 139.813895 216.733798 
L 139.813895 216.733798 
L 134.497655 216.733798 
z
" style="fill:#97178f;"/>
   </g>
   <g id="patch_102">
    <path clip-path="url(#p0ae623ed32)" d="M 139.813895 216.733798 
L 145.130134 216.733798 
L 145.130134 216.733798 
L 139.813895 216.733798 
z
" style="fill:#97178f;"/>
   </g>
   <g id="patch_103">
    <path clip-path="url(#p0ae623ed32)" d="M 145.130134 216.733798 
L 150.446374 216.733798 
L 150.446374 216.733798 
L 145.130134 216.733798 
z
" style="fill:#97178f;"/>
   </g>
   <g id="patch_104">
    <path clip-path="url(#p0ae623ed32)" d="M 150.446374 216.733798 
L 155.762614 216.733798 
L 155.762614 216.733798 
L 150.446374 216.733798 
z
" style="fill:#97178f;"/>
   </g>
   <g id="patch_105">
    <path clip-path="url(#p0ae623ed32)" d="M 155.762614 216.733798 
L 161.078853 216.733798 
L 161.078853 216.733798 
L 155.762614 216.733798 
z
" style="fill:#97178f;"/>
   </g>
   <g id="patch_106">
    <path clip-path="url(#p0ae623ed32)" d="M 161.078853 216.733798 
L 166.395093 216.733798 
L 166.395093 216.733798 
L 161.078853 216.733798 
z
" style="fill:#97178f;"/>
   </g>
   <g id="patch_107">
    <path clip-path="url(#p0ae623ed32)" d="M 166.395093 216.733798 
L 171.711333 216.733798 
L 171.711333 216.733798 
L 166.395093 216.733798 
z
" style="fill:#97178f;"/>
   </g>
   <g id="patch_108">
    <path clip-path="url(#p0ae623ed32)" d="M 171.711333 216.733798 
L 177.027572 216.733798 
L 177.027572 216.733798 
L 171.711333 216.733798 
z
" style="fill:#97178f;"/>
   </g>
   <g id="patch_109">
    <path clip-path="url(#p0ae623ed32)" d="M 177.027572 216.733798 
L 182.343812 216.733798 
L 182.343812 216.733798 
L 177.027572 216.733798 
z
" style="fill:#97178f;"/>
   </g>
   <g id="patch_110">
    <path clip-path="url(#p0ae623ed32)" d="M 182.343812 216.733798 
L 187.660052 216.733798 
L 187.660052 216.733798 
L 182.343812 216.733798 
z
" style="fill:#97178f;"/>
   </g>
   <g id="patch_111">
    <path clip-path="url(#p0ae623ed32)" d="M 187.660052 216.733798 
L 192.976291 216.733798 
L 192.976291 216.733798 
L 187.660052 216.733798 
z
" style="fill:#97178f;"/>
   </g>
   <g id="matplotlib.axis_7">
    <g id="xtick_10">
     <g id="line2d_16">
      <g>
       <use style="stroke:#000000;stroke-width:0.8;" x="60.0703" xlink:href="#m1a1e8df2b8" y="216.733798"/>
      </g>
     </g>
    </g>
    <g id="xtick_11">
     <g id="line2d_17">
      <g>
       <use style="stroke:#000000;stroke-width:0.8;" x="126.523295" xlink:href="#m1a1e8df2b8" y="216.733798"/>
      </g>
     </g>
    </g>
    <g id="xtick_12">
     <g id="line2d_18">
      <g>
       <use style="stroke:#000000;stroke-width:0.8;" x="192.976291" xlink:href="#m1a1e8df2b8" y="216.733798"/>
      </g>
     </g>
    </g>
   </g>
   <g id="matplotlib.axis_8">
    <g id="ytick_7">
     <g id="line2d_19">
      <g>
       <use style="stroke:#000000;stroke-width:0.8;" x="53.425" xlink:href="#mecb49b0d21" y="216.733798"/>
      </g>
     </g>
     <g id="text_8">
      <!-- 0 -->
      <g transform="translate(37.5175 222.052704)scale(0.14 -0.14)">
       <use xlink:href="#DejaVuSans-48"/>
      </g>
     </g>
    </g>
    <g id="ytick_8">
     <g id="line2d_20">
      <g>
       <use style="stroke:#000000;stroke-width:0.8;" x="53.425" xlink:href="#mecb49b0d21" y="196.646739"/>
      </g>
     </g>
     <g id="text_9">
      <!-- 50 -->
      <g transform="translate(28.61 201.965645)scale(0.14 -0.14)">
       <use xlink:href="#DejaVuSans-53"/>
       <use x="63.623047" xlink:href="#DejaVuSans-48"/>
      </g>
     </g>
    </g>
   </g>
   <g id="patch_112">
    <path d="M 53.425 216.733798 
L 53.425 180.878397 
" style="fill:none;stroke:#000000;stroke-linecap:square;stroke-linejoin:miter;stroke-width:0.8;"/>
   </g>
   <g id="patch_113">
    <path d="M 53.425 216.733798 
L 199.621591 216.733798 
" style="fill:none;stroke:#000000;stroke-linecap:square;stroke-linejoin:miter;stroke-width:0.8;"/>
   </g>
  </g>
  <g id="axes_5">
   <g id="patch_114">
    <path d="M 53.425 271.889199 
L 199.621591 271.889199 
L 199.621591 236.033798 
L 53.425 236.033798 
z
" style="fill:#ffffff;"/>
   </g>
   <g id="patch_115">
    <path clip-path="url(#pd7e1678086)" d="M 60.0703 271.889199 
L 65.386539 271.889199 
L 65.386539 271.889199 
L 60.0703 271.889199 
z
" style="fill:#97178f;"/>
   </g>
   <g id="patch_116">
    <path clip-path="url(#pd7e1678086)" d="M 65.386539 271.889199 
L 70.702779 271.889199 
L 70.702779 271.889199 
L 65.386539 271.889199 
z
" style="fill:#97178f;"/>
   </g>
   <g id="patch_117">
    <path clip-path="url(#pd7e1678086)" d="M 70.702779 271.889199 
L 76.019019 271.889199 
L 76.019019 271.889199 
L 70.702779 271.889199 
z
" style="fill:#97178f;"/>
   </g>
   <g id="patch_118">
    <path clip-path="url(#pd7e1678086)" d="M 76.019019 271.889199 
L 81.335258 271.889199 
L 81.335258 271.889199 
L 76.019019 271.889199 
z
" style="fill:#97178f;"/>
   </g>
   <g id="patch_119">
    <path clip-path="url(#pd7e1678086)" d="M 81.335258 271.889199 
L 86.651498 271.889199 
L 86.651498 270.683975 
L 81.335258 270.683975 
z
" style="fill:#97178f;"/>
   </g>
   <g id="patch_120">
    <path clip-path="url(#pd7e1678086)" d="M 86.651498 271.889199 
L 91.967738 271.889199 
L 91.967738 270.282234 
L 86.651498 270.282234 
z
" style="fill:#97178f;"/>
   </g>
   <g id="patch_121">
    <path clip-path="url(#pd7e1678086)" d="M 91.967738 271.889199 
L 97.283977 271.889199 
L 97.283977 271.889199 
L 91.967738 271.889199 
z
" style="fill:#97178f;"/>
   </g>
   <g id="patch_122">
    <path clip-path="url(#pd7e1678086)" d="M 97.283977 271.889199 
L 102.600217 271.889199 
L 102.600217 271.889199 
L 97.283977 271.889199 
z
" style="fill:#97178f;"/>
   </g>
   <g id="patch_123">
    <path clip-path="url(#pd7e1678086)" d="M 102.600217 271.889199 
L 107.916457 271.889199 
L 107.916457 271.889199 
L 102.600217 271.889199 
z
" style="fill:#97178f;"/>
   </g>
   <g id="patch_124">
    <path clip-path="url(#pd7e1678086)" d="M 107.916457 271.889199 
L 113.232696 271.889199 
L 113.232696 271.889199 
L 107.916457 271.889199 
z
" style="fill:#97178f;"/>
   </g>
   <g id="patch_125">
    <path clip-path="url(#pd7e1678086)" d="M 113.232696 271.889199 
L 118.548936 271.889199 
L 118.548936 271.889199 
L 113.232696 271.889199 
z
" style="fill:#97178f;"/>
   </g>
   <g id="patch_126">
    <path clip-path="url(#pd7e1678086)" d="M 118.548936 271.889199 
L 123.865176 271.889199 
L 123.865176 244.169057 
L 118.548936 244.169057 
z
" style="fill:#97178f;"/>
   </g>
   <g id="patch_127">
    <path clip-path="url(#pd7e1678086)" d="M 123.865176 271.889199 
L 129.181415 271.889199 
L 129.181415 262.649151 
L 123.865176 262.649151 
z
" style="fill:#97178f;"/>
   </g>
   <g id="patch_128">
    <path clip-path="url(#pd7e1678086)" d="M 129.181415 271.889199 
L 134.497655 271.889199 
L 134.497655 271.487457 
L 129.181415 271.487457 
z
" style="fill:#97178f;"/>
   </g>
   <g id="patch_129">
    <path clip-path="url(#pd7e1678086)" d="M 134.497655 271.889199 
L 139.813895 271.889199 
L 139.813895 271.889199 
L 134.497655 271.889199 
z
" style="fill:#97178f;"/>
   </g>
   <g id="patch_130">
    <path clip-path="url(#pd7e1678086)" d="M 139.813895 271.889199 
L 145.130134 271.889199 
L 145.130134 271.889199 
L 139.813895 271.889199 
z
" style="fill:#97178f;"/>
   </g>
   <g id="patch_131">
    <path clip-path="url(#pd7e1678086)" d="M 145.130134 271.889199 
L 150.446374 271.889199 
L 150.446374 271.889199 
L 145.130134 271.889199 
z
" style="fill:#97178f;"/>
   </g>
   <g id="patch_132">
    <path clip-path="url(#pd7e1678086)" d="M 150.446374 271.889199 
L 155.762614 271.889199 
L 155.762614 271.889199 
L 150.446374 271.889199 
z
" style="fill:#97178f;"/>
   </g>
   <g id="patch_133">
    <path clip-path="url(#pd7e1678086)" d="M 155.762614 271.889199 
L 161.078853 271.889199 
L 161.078853 271.889199 
L 155.762614 271.889199 
z
" style="fill:#97178f;"/>
   </g>
   <g id="patch_134">
    <path clip-path="url(#pd7e1678086)" d="M 161.078853 271.889199 
L 166.395093 271.889199 
L 166.395093 271.889199 
L 161.078853 271.889199 
z
" style="fill:#97178f;"/>
   </g>
   <g id="patch_135">
    <path clip-path="url(#pd7e1678086)" d="M 166.395093 271.889199 
L 171.711333 271.889199 
L 171.711333 271.889199 
L 166.395093 271.889199 
z
" style="fill:#97178f;"/>
   </g>
   <g id="patch_136">
    <path clip-path="url(#pd7e1678086)" d="M 171.711333 271.889199 
L 177.027572 271.889199 
L 177.027572 271.889199 
L 171.711333 271.889199 
z
" style="fill:#97178f;"/>
   </g>
   <g id="patch_137">
    <path clip-path="url(#pd7e1678086)" d="M 177.027572 271.889199 
L 182.343812 271.889199 
L 182.343812 271.889199 
L 177.027572 271.889199 
z
" style="fill:#97178f;"/>
   </g>
   <g id="patch_138">
    <path clip-path="url(#pd7e1678086)" d="M 182.343812 271.889199 
L 187.660052 271.889199 
L 187.660052 271.889199 
L 182.343812 271.889199 
z
" style="fill:#97178f;"/>
   </g>
   <g id="patch_139">
    <path clip-path="url(#pd7e1678086)" d="M 187.660052 271.889199 
L 192.976291 271.889199 
L 192.976291 271.889199 
L 187.660052 271.889199 
z
" style="fill:#97178f;"/>
   </g>
   <g id="matplotlib.axis_9">
    <g id="xtick_13">
     <g id="line2d_21">
      <g>
       <use style="stroke:#000000;stroke-width:0.8;" x="60.0703" xlink:href="#m1a1e8df2b8" y="271.889199"/>
      </g>
     </g>
    </g>
    <g id="xtick_14">
     <g id="line2d_22">
      <g>
       <use style="stroke:#000000;stroke-width:0.8;" x="126.523295" xlink:href="#m1a1e8df2b8" y="271.889199"/>
      </g>
     </g>
    </g>
    <g id="xtick_15">
     <g id="line2d_23">
      <g>
       <use style="stroke:#000000;stroke-width:0.8;" x="192.976291" xlink:href="#m1a1e8df2b8" y="271.889199"/>
      </g>
     </g>
    </g>
   </g>
   <g id="matplotlib.axis_10">
    <g id="ytick_9">
     <g id="line2d_24">
      <g>
       <use style="stroke:#000000;stroke-width:0.8;" x="53.425" xlink:href="#mecb49b0d21" y="271.889199"/>
      </g>
     </g>
     <g id="text_10">
      <!-- 0 -->
      <g transform="translate(37.5175 277.208105)scale(0.14 -0.14)">
       <use xlink:href="#DejaVuSans-48"/>
      </g>
     </g>
    </g>
    <g id="ytick_10">
     <g id="line2d_25">
      <g>
       <use style="stroke:#000000;stroke-width:0.8;" x="53.425" xlink:href="#mecb49b0d21" y="251.802139"/>
      </g>
     </g>
     <g id="text_11">
      <!-- 50 -->
      <g transform="translate(28.61 257.121046)scale(0.14 -0.14)">
       <use xlink:href="#DejaVuSans-53"/>
       <use x="63.623047" xlink:href="#DejaVuSans-48"/>
      </g>
     </g>
    </g>
   </g>
   <g id="patch_140">
    <path d="M 53.425 271.889199 
L 53.425 236.033798 
" style="fill:none;stroke:#000000;stroke-linecap:square;stroke-linejoin:miter;stroke-width:0.8;"/>
   </g>
   <g id="patch_141">
    <path d="M 53.425 271.889199 
L 199.621591 271.889199 
" style="fill:none;stroke:#000000;stroke-linecap:square;stroke-linejoin:miter;stroke-width:0.8;"/>
   </g>
  </g>
  <g id="axes_6">
   <g id="patch_142">
    <path d="M 53.425 327.044599 
L 199.621591 327.044599 
L 199.621591 291.189199 
L 53.425 291.189199 
z
" style="fill:#ffffff;"/>
   </g>
   <g id="patch_143">
    <path clip-path="url(#p1501c5ce93)" d="M 60.0703 327.044599 
L 65.386539 327.044599 
L 65.386539 327.044599 
L 60.0703 327.044599 
z
" style="fill:#97178f;"/>
   </g>
   <g id="patch_144">
    <path clip-path="url(#p1501c5ce93)" d="M 65.386539 327.044599 
L 70.702779 327.044599 
L 70.702779 327.044599 
L 65.386539 327.044599 
z
" style="fill:#97178f;"/>
   </g>
   <g id="patch_145">
    <path clip-path="url(#p1501c5ce93)" d="M 70.702779 327.044599 
L 76.019019 327.044599 
L 76.019019 327.044599 
L 70.702779 327.044599 
z
" style="fill:#97178f;"/>
   </g>
   <g id="patch_146">
    <path clip-path="url(#p1501c5ce93)" d="M 76.019019 327.044599 
L 81.335258 327.044599 
L 81.335258 327.044599 
L 76.019019 327.044599 
z
" style="fill:#97178f;"/>
   </g>
   <g id="patch_147">
    <path clip-path="url(#p1501c5ce93)" d="M 81.335258 327.044599 
L 86.651498 327.044599 
L 86.651498 326.642858 
L 81.335258 326.642858 
z
" style="fill:#97178f;"/>
   </g>
   <g id="patch_148">
    <path clip-path="url(#p1501c5ce93)" d="M 86.651498 327.044599 
L 91.967738 327.044599 
L 91.967738 326.241117 
L 86.651498 326.241117 
z
" style="fill:#97178f;"/>
   </g>
   <g id="patch_149">
    <path clip-path="url(#p1501c5ce93)" d="M 91.967738 327.044599 
L 97.283977 327.044599 
L 97.283977 327.044599 
L 91.967738 327.044599 
z
" style="fill:#97178f;"/>
   </g>
   <g id="patch_150">
    <path clip-path="url(#p1501c5ce93)" d="M 97.283977 327.044599 
L 102.600217 327.044599 
L 102.600217 327.044599 
L 97.283977 327.044599 
z
" style="fill:#97178f;"/>
   </g>
   <g id="patch_151">
    <path clip-path="url(#p1501c5ce93)" d="M 102.600217 327.044599 
L 107.916457 327.044599 
L 107.916457 327.044599 
L 102.600217 327.044599 
z
" style="fill:#97178f;"/>
   </g>
   <g id="patch_152">
    <path clip-path="url(#p1501c5ce93)" d="M 107.916457 327.044599 
L 113.232696 327.044599 
L 113.232696 327.044599 
L 107.916457 327.044599 
z
" style="fill:#97178f;"/>
   </g>
   <g id="patch_153">
    <path clip-path="url(#p1501c5ce93)" d="M 113.232696 327.044599 
L 118.548936 327.044599 
L 118.548936 326.241117 
L 113.232696 326.241117 
z
" style="fill:#97178f;"/>
   </g>
   <g id="patch_154">
    <path clip-path="url(#p1501c5ce93)" d="M 118.548936 327.044599 
L 123.865176 327.044599 
L 123.865176 294.503563 
L 118.548936 294.503563 
z
" style="fill:#97178f;"/>
   </g>
   <g id="patch_155">
    <path clip-path="url(#p1501c5ce93)" d="M 123.865176 327.044599 
L 129.181415 327.044599 
L 129.181415 321.420223 
L 123.865176 321.420223 
z
" style="fill:#97178f;"/>
   </g>
   <g id="patch_156">
    <path clip-path="url(#p1501c5ce93)" d="M 129.181415 327.044599 
L 134.497655 327.044599 
L 134.497655 327.044599 
L 129.181415 327.044599 
z
" style="fill:#97178f;"/>
   </g>
   <g id="patch_157">
    <path clip-path="url(#p1501c5ce93)" d="M 134.497655 327.044599 
L 139.813895 327.044599 
L 139.813895 327.044599 
L 134.497655 327.044599 
z
" style="fill:#97178f;"/>
   </g>
   <g id="patch_158">
    <path clip-path="url(#p1501c5ce93)" d="M 139.813895 327.044599 
L 145.130134 327.044599 
L 145.130134 327.044599 
L 139.813895 327.044599 
z
" style="fill:#97178f;"/>
   </g>
   <g id="patch_159">
    <path clip-path="url(#p1501c5ce93)" d="M 145.130134 327.044599 
L 150.446374 327.044599 
L 150.446374 327.044599 
L 145.130134 327.044599 
z
" style="fill:#97178f;"/>
   </g>
   <g id="patch_160">
    <path clip-path="url(#p1501c5ce93)" d="M 150.446374 327.044599 
L 155.762614 327.044599 
L 155.762614 327.044599 
L 150.446374 327.044599 
z
" style="fill:#97178f;"/>
   </g>
   <g id="patch_161">
    <path clip-path="url(#p1501c5ce93)" d="M 155.762614 327.044599 
L 161.078853 327.044599 
L 161.078853 327.044599 
L 155.762614 327.044599 
z
" style="fill:#97178f;"/>
   </g>
   <g id="patch_162">
    <path clip-path="url(#p1501c5ce93)" d="M 161.078853 327.044599 
L 166.395093 327.044599 
L 166.395093 327.044599 
L 161.078853 327.044599 
z
" style="fill:#97178f;"/>
   </g>
   <g id="patch_163">
    <path clip-path="url(#p1501c5ce93)" d="M 166.395093 327.044599 
L 171.711333 327.044599 
L 171.711333 327.044599 
L 166.395093 327.044599 
z
" style="fill:#97178f;"/>
   </g>
   <g id="patch_164">
    <path clip-path="url(#p1501c5ce93)" d="M 171.711333 327.044599 
L 177.027572 327.044599 
L 177.027572 327.044599 
L 171.711333 327.044599 
z
" style="fill:#97178f;"/>
   </g>
   <g id="patch_165">
    <path clip-path="url(#p1501c5ce93)" d="M 177.027572 327.044599 
L 182.343812 327.044599 
L 182.343812 327.044599 
L 177.027572 327.044599 
z
" style="fill:#97178f;"/>
   </g>
   <g id="patch_166">
    <path clip-path="url(#p1501c5ce93)" d="M 182.343812 327.044599 
L 187.660052 327.044599 
L 187.660052 327.044599 
L 182.343812 327.044599 
z
" style="fill:#97178f;"/>
   </g>
   <g id="patch_167">
    <path clip-path="url(#p1501c5ce93)" d="M 187.660052 327.044599 
L 192.976291 327.044599 
L 192.976291 327.044599 
L 187.660052 327.044599 
z
" style="fill:#97178f;"/>
   </g>
   <g id="matplotlib.axis_11">
    <g id="xtick_16">
     <g id="line2d_26">
      <g>
       <use style="stroke:#000000;stroke-width:0.8;" x="60.0703" xlink:href="#m1a1e8df2b8" y="327.044599"/>
      </g>
     </g>
    </g>
    <g id="xtick_17">
     <g id="line2d_27">
      <g>
       <use style="stroke:#000000;stroke-width:0.8;" x="126.523295" xlink:href="#m1a1e8df2b8" y="327.044599"/>
      </g>
     </g>
    </g>
    <g id="xtick_18">
     <g id="line2d_28">
      <g>
       <use style="stroke:#000000;stroke-width:0.8;" x="192.976291" xlink:href="#m1a1e8df2b8" y="327.044599"/>
      </g>
     </g>
    </g>
   </g>
   <g id="matplotlib.axis_12">
    <g id="ytick_11">
     <g id="line2d_29">
      <g>
       <use style="stroke:#000000;stroke-width:0.8;" x="53.425" xlink:href="#mecb49b0d21" y="327.044599"/>
      </g>
     </g>
     <g id="text_12">
      <!-- 0 -->
      <g transform="translate(37.5175 332.363506)scale(0.14 -0.14)">
       <use xlink:href="#DejaVuSans-48"/>
      </g>
     </g>
    </g>
    <g id="ytick_12">
     <g id="line2d_30">
      <g>
       <use style="stroke:#000000;stroke-width:0.8;" x="53.425" xlink:href="#mecb49b0d21" y="306.95754"/>
      </g>
     </g>
     <g id="text_13">
      <!-- 50 -->
      <g transform="translate(28.61 312.276446)scale(0.14 -0.14)">
       <use xlink:href="#DejaVuSans-53"/>
       <use x="63.623047" xlink:href="#DejaVuSans-48"/>
      </g>
     </g>
    </g>
   </g>
   <g id="patch_168">
    <path d="M 53.425 327.044599 
L 53.425 291.189199 
" style="fill:none;stroke:#000000;stroke-linecap:square;stroke-linejoin:miter;stroke-width:0.8;"/>
   </g>
   <g id="patch_169">
    <path d="M 53.425 327.044599 
L 199.621591 327.044599 
" style="fill:none;stroke:#000000;stroke-linecap:square;stroke-linejoin:miter;stroke-width:0.8;"/>
   </g>
  </g>
  <g id="axes_7">
   <g id="patch_170">
    <path d="M 53.425 382.2 
L 199.621591 382.2 
L 199.621591 346.344599 
L 53.425 346.344599 
z
" style="fill:#ffffff;"/>
   </g>
   <g id="patch_171">
    <path clip-path="url(#p1d60b47a99)" d="M 60.0703 382.2 
L 65.386539 382.2 
L 65.386539 382.2 
L 60.0703 382.2 
z
" style="fill:#97178f;"/>
   </g>
   <g id="patch_172">
    <path clip-path="url(#p1d60b47a99)" d="M 65.386539 382.2 
L 70.702779 382.2 
L 70.702779 382.2 
L 65.386539 382.2 
z
" style="fill:#97178f;"/>
   </g>
   <g id="patch_173">
    <path clip-path="url(#p1d60b47a99)" d="M 70.702779 382.2 
L 76.019019 382.2 
L 76.019019 382.2 
L 70.702779 382.2 
z
" style="fill:#97178f;"/>
   </g>
   <g id="patch_174">
    <path clip-path="url(#p1d60b47a99)" d="M 76.019019 382.2 
L 81.335258 382.2 
L 81.335258 382.2 
L 76.019019 382.2 
z
" style="fill:#97178f;"/>
   </g>
   <g id="patch_175">
    <path clip-path="url(#p1d60b47a99)" d="M 81.335258 382.2 
L 86.651498 382.2 
L 86.651498 382.2 
L 81.335258 382.2 
z
" style="fill:#97178f;"/>
   </g>
   <g id="patch_176">
    <path clip-path="url(#p1d60b47a99)" d="M 86.651498 382.2 
L 91.967738 382.2 
L 91.967738 382.2 
L 86.651498 382.2 
z
" style="fill:#97178f;"/>
   </g>
   <g id="patch_177">
    <path clip-path="url(#p1d60b47a99)" d="M 91.967738 382.2 
L 97.283977 382.2 
L 97.283977 382.2 
L 91.967738 382.2 
z
" style="fill:#97178f;"/>
   </g>
   <g id="patch_178">
    <path clip-path="url(#p1d60b47a99)" d="M 97.283977 382.2 
L 102.600217 382.2 
L 102.600217 382.2 
L 97.283977 382.2 
z
" style="fill:#97178f;"/>
   </g>
   <g id="patch_179">
    <path clip-path="url(#p1d60b47a99)" d="M 102.600217 382.2 
L 107.916457 382.2 
L 107.916457 382.2 
L 102.600217 382.2 
z
" style="fill:#97178f;"/>
   </g>
   <g id="patch_180">
    <path clip-path="url(#p1d60b47a99)" d="M 107.916457 382.2 
L 113.232696 382.2 
L 113.232696 382.2 
L 107.916457 382.2 
z
" style="fill:#97178f;"/>
   </g>
   <g id="patch_181">
    <path clip-path="url(#p1d60b47a99)" d="M 113.232696 382.2 
L 118.548936 382.2 
L 118.548936 380.994776 
L 113.232696 380.994776 
z
" style="fill:#97178f;"/>
   </g>
   <g id="patch_182">
    <path clip-path="url(#p1d60b47a99)" d="M 118.548936 382.2 
L 123.865176 382.2 
L 123.865176 348.051999 
L 118.548936 348.051999 
z
" style="fill:#97178f;"/>
   </g>
   <g id="patch_183">
    <path clip-path="url(#p1d60b47a99)" d="M 123.865176 382.2 
L 129.181415 382.2 
L 129.181415 377.379106 
L 123.865176 377.379106 
z
" style="fill:#97178f;"/>
   </g>
   <g id="patch_184">
    <path clip-path="url(#p1d60b47a99)" d="M 129.181415 382.2 
L 134.497655 382.2 
L 134.497655 382.2 
L 129.181415 382.2 
z
" style="fill:#97178f;"/>
   </g>
   <g id="patch_185">
    <path clip-path="url(#p1d60b47a99)" d="M 134.497655 382.2 
L 139.813895 382.2 
L 139.813895 382.2 
L 134.497655 382.2 
z
" style="fill:#97178f;"/>
   </g>
   <g id="patch_186">
    <path clip-path="url(#p1d60b47a99)" d="M 139.813895 382.2 
L 145.130134 382.2 
L 145.130134 382.2 
L 139.813895 382.2 
z
" style="fill:#97178f;"/>
   </g>
   <g id="patch_187">
    <path clip-path="url(#p1d60b47a99)" d="M 145.130134 382.2 
L 150.446374 382.2 
L 150.446374 382.2 
L 145.130134 382.2 
z
" style="fill:#97178f;"/>
   </g>
   <g id="patch_188">
    <path clip-path="url(#p1d60b47a99)" d="M 150.446374 382.2 
L 155.762614 382.2 
L 155.762614 382.2 
L 150.446374 382.2 
z
" style="fill:#97178f;"/>
   </g>
   <g id="patch_189">
    <path clip-path="url(#p1d60b47a99)" d="M 155.762614 382.2 
L 161.078853 382.2 
L 161.078853 382.2 
L 155.762614 382.2 
z
" style="fill:#97178f;"/>
   </g>
   <g id="patch_190">
    <path clip-path="url(#p1d60b47a99)" d="M 161.078853 382.2 
L 166.395093 382.2 
L 166.395093 382.2 
L 161.078853 382.2 
z
" style="fill:#97178f;"/>
   </g>
   <g id="patch_191">
    <path clip-path="url(#p1d60b47a99)" d="M 166.395093 382.2 
L 171.711333 382.2 
L 171.711333 382.2 
L 166.395093 382.2 
z
" style="fill:#97178f;"/>
   </g>
   <g id="patch_192">
    <path clip-path="url(#p1d60b47a99)" d="M 171.711333 382.2 
L 177.027572 382.2 
L 177.027572 382.2 
L 171.711333 382.2 
z
" style="fill:#97178f;"/>
   </g>
   <g id="patch_193">
    <path clip-path="url(#p1d60b47a99)" d="M 177.027572 382.2 
L 182.343812 382.2 
L 182.343812 382.2 
L 177.027572 382.2 
z
" style="fill:#97178f;"/>
   </g>
   <g id="patch_194">
    <path clip-path="url(#p1d60b47a99)" d="M 182.343812 382.2 
L 187.660052 382.2 
L 187.660052 382.2 
L 182.343812 382.2 
z
" style="fill:#97178f;"/>
   </g>
   <g id="patch_195">
    <path clip-path="url(#p1d60b47a99)" d="M 187.660052 382.2 
L 192.976291 382.2 
L 192.976291 382.2 
L 187.660052 382.2 
z
" style="fill:#97178f;"/>
   </g>
   <g id="matplotlib.axis_13">
    <g id="xtick_19">
     <g id="line2d_31">
      <g>
       <use style="stroke:#000000;stroke-width:0.8;" x="60.0703" xlink:href="#m1a1e8df2b8" y="382.2"/>
      </g>
     </g>
     <g id="text_14">
      <!-- 0 -->
      <g transform="translate(55.61655 399.837812)scale(0.14 -0.14)">
       <use xlink:href="#DejaVuSans-48"/>
      </g>
     </g>
    </g>
    <g id="xtick_20">
     <g id="line2d_32">
      <g>
       <use style="stroke:#000000;stroke-width:0.8;" x="126.523295" xlink:href="#m1a1e8df2b8" y="382.2"/>
      </g>
     </g>
     <g id="text_15">
      <!-- 50 -->
      <g transform="translate(117.615795 399.837812)scale(0.14 -0.14)">
       <use xlink:href="#DejaVuSans-53"/>
       <use x="63.623047" xlink:href="#DejaVuSans-48"/>
      </g>
     </g>
    </g>
    <g id="xtick_21">
     <g id="line2d_33">
      <g>
       <use style="stroke:#000000;stroke-width:0.8;" x="192.976291" xlink:href="#m1a1e8df2b8" y="382.2"/>
      </g>
     </g>
     <g id="text_16">
      <!-- 100 -->
      <defs>
       <path d="M 12.40625 8.296875 
L 28.515625 8.296875 
L 28.515625 63.921875 
L 10.984375 60.40625 
L 10.984375 69.390625 
L 28.421875 72.90625 
L 38.28125 72.90625 
L 38.28125 8.296875 
L 54.390625 8.296875 
L 54.390625 0 
L 12.40625 0 
z
" id="DejaVuSans-49"/>
      </defs>
      <g transform="translate(179.615041 399.837812)scale(0.14 -0.14)">
       <use xlink:href="#DejaVuSans-49"/>
       <use x="63.623047" xlink:href="#DejaVuSans-48"/>
       <use x="127.246094" xlink:href="#DejaVuSans-48"/>
      </g>
     </g>
    </g>
    <g id="text_17">
     <!-- Duration (ms) -->
     <defs>
      <path d="M 19.671875 64.796875 
L 19.671875 8.109375 
L 31.59375 8.109375 
Q 46.6875 8.109375 53.6875 14.9375 
Q 60.6875 21.78125 60.6875 36.53125 
Q 60.6875 51.171875 53.6875 57.984375 
Q 46.6875 64.796875 31.59375 64.796875 
z
M 9.8125 72.90625 
L 30.078125 72.90625 
Q 51.265625 72.90625 61.171875 64.09375 
Q 71.09375 55.28125 71.09375 36.53125 
Q 71.09375 17.671875 61.125 8.828125 
Q 51.171875 0 30.078125 0 
L 9.8125 0 
z
" id="DejaVuSans-68"/>
      <path d="M 41.109375 46.296875 
Q 39.59375 47.171875 37.8125 47.578125 
Q 36.03125 48 33.890625 48 
Q 26.265625 48 22.1875 43.046875 
Q 18.109375 38.09375 18.109375 28.8125 
L 18.109375 0 
L 9.078125 0 
L 9.078125 54.6875 
L 18.109375 54.6875 
L 18.109375 46.1875 
Q 20.953125 51.171875 25.484375 53.578125 
Q 30.03125 56 36.53125 56 
Q 37.453125 56 38.578125 55.875 
Q 39.703125 55.765625 41.0625 55.515625 
z
" id="DejaVuSans-114"/>
      <path d="M 34.28125 27.484375 
Q 23.390625 27.484375 19.1875 25 
Q 14.984375 22.515625 14.984375 16.5 
Q 14.984375 11.71875 18.140625 8.90625 
Q 21.296875 6.109375 26.703125 6.109375 
Q 34.1875 6.109375 38.703125 11.40625 
Q 43.21875 16.703125 43.21875 25.484375 
L 43.21875 27.484375 
z
M 52.203125 31.203125 
L 52.203125 0 
L 43.21875 0 
L 43.21875 8.296875 
Q 40.140625 3.328125 35.546875 0.953125 
Q 30.953125 -1.421875 24.3125 -1.421875 
Q 15.921875 -1.421875 10.953125 3.296875 
Q 6 8.015625 6 15.921875 
Q 6 25.140625 12.171875 29.828125 
Q 18.359375 34.515625 30.609375 34.515625 
L 43.21875 34.515625 
L 43.21875 35.40625 
Q 43.21875 41.609375 39.140625 45 
Q 35.0625 48.390625 27.6875 48.390625 
Q 23 48.390625 18.546875 47.265625 
Q 14.109375 46.140625 10.015625 43.890625 
L 10.015625 52.203125 
Q 14.9375 54.109375 19.578125 55.046875 
Q 24.21875 56 28.609375 56 
Q 40.484375 56 46.34375 49.84375 
Q 52.203125 43.703125 52.203125 31.203125 
z
" id="DejaVuSans-97"/>
      <path d="M 9.421875 54.6875 
L 18.40625 54.6875 
L 18.40625 0 
L 9.421875 0 
z
M 9.421875 75.984375 
L 18.40625 75.984375 
L 18.40625 64.59375 
L 9.421875 64.59375 
z
" id="DejaVuSans-105"/>
      <path id="DejaVuSans-32"/>
      <path d="M 31 75.875 
Q 24.46875 64.65625 21.28125 53.65625 
Q 18.109375 42.671875 18.109375 31.390625 
Q 18.109375 20.125 21.3125 9.0625 
Q 24.515625 -2 31 -13.1875 
L 23.1875 -13.1875 
Q 15.875 -1.703125 12.234375 9.375 
Q 8.59375 20.453125 8.59375 31.390625 
Q 8.59375 42.28125 12.203125 53.3125 
Q 15.828125 64.359375 23.1875 75.875 
z
" id="DejaVuSans-40"/>
      <path d="M 52 44.1875 
Q 55.375 50.25 60.0625 53.125 
Q 64.75 56 71.09375 56 
Q 79.640625 56 84.28125 50.015625 
Q 88.921875 44.046875 88.921875 33.015625 
L 88.921875 0 
L 79.890625 0 
L 79.890625 32.71875 
Q 79.890625 40.578125 77.09375 44.375 
Q 74.3125 48.1875 68.609375 48.1875 
Q 61.625 48.1875 57.5625 43.546875 
Q 53.515625 38.921875 53.515625 30.90625 
L 53.515625 0 
L 44.484375 0 
L 44.484375 32.71875 
Q 44.484375 40.625 41.703125 44.40625 
Q 38.921875 48.1875 33.109375 48.1875 
Q 26.21875 48.1875 22.15625 43.53125 
Q 18.109375 38.875 18.109375 30.90625 
L 18.109375 0 
L 9.078125 0 
L 9.078125 54.6875 
L 18.109375 54.6875 
L 18.109375 46.1875 
Q 21.1875 51.21875 25.484375 53.609375 
Q 29.78125 56 35.6875 56 
Q 41.65625 56 45.828125 52.96875 
Q 50 49.953125 52 44.1875 
z
" id="DejaVuSans-109"/>
      <path d="M 8.015625 75.875 
L 15.828125 75.875 
Q 23.140625 64.359375 26.78125 53.3125 
Q 30.421875 42.28125 30.421875 31.390625 
Q 30.421875 20.453125 26.78125 9.375 
Q 23.140625 -1.703125 15.828125 -13.1875 
L 8.015625 -13.1875 
Q 14.5 -2 17.703125 9.0625 
Q 20.90625 20.125 20.90625 31.390625 
Q 20.90625 42.671875 17.703125 53.65625 
Q 14.5 64.65625 8.015625 75.875 
z
" id="DejaVuSans-41"/>
     </defs>
     <g transform="translate(77.969545 417.387187)scale(0.14 -0.14)">
      <use xlink:href="#DejaVuSans-68"/>
      <use x="77.001953" xlink:href="#DejaVuSans-117"/>
      <use x="140.380859" xlink:href="#DejaVuSans-114"/>
      <use x="181.494141" xlink:href="#DejaVuSans-97"/>
      <use x="242.773438" xlink:href="#DejaVuSans-116"/>
      <use x="281.982422" xlink:href="#DejaVuSans-105"/>
      <use x="309.765625" xlink:href="#DejaVuSans-111"/>
      <use x="370.947266" xlink:href="#DejaVuSans-110"/>
      <use x="434.326172" xlink:href="#DejaVuSans-32"/>
      <use x="466.113281" xlink:href="#DejaVuSans-40"/>
      <use x="505.126953" xlink:href="#DejaVuSans-109"/>
      <use x="602.539062" xlink:href="#DejaVuSans-115"/>
      <use x="654.638672" xlink:href="#DejaVuSans-41"/>
     </g>
    </g>
   </g>
   <g id="matplotlib.axis_14">
    <g id="ytick_13">
     <g id="line2d_34">
      <g>
       <use style="stroke:#000000;stroke-width:0.8;" x="53.425" xlink:href="#mecb49b0d21" y="382.2"/>
      </g>
     </g>
     <g id="text_18">
      <!-- 0 -->
      <g transform="translate(37.5175 387.518906)scale(0.14 -0.14)">
       <use xlink:href="#DejaVuSans-48"/>
      </g>
     </g>
    </g>
    <g id="ytick_14">
     <g id="line2d_35">
      <g>
       <use style="stroke:#000000;stroke-width:0.8;" x="53.425" xlink:href="#mecb49b0d21" y="362.112941"/>
      </g>
     </g>
     <g id="text_19">
      <!-- 50 -->
      <g transform="translate(28.61 367.431847)scale(0.14 -0.14)">
       <use xlink:href="#DejaVuSans-53"/>
       <use x="63.623047" xlink:href="#DejaVuSans-48"/>
      </g>
     </g>
    </g>
   </g>
   <g id="patch_196">
    <path d="M 53.425 382.2 
L 53.425 346.344599 
" style="fill:none;stroke:#000000;stroke-linecap:square;stroke-linejoin:miter;stroke-width:0.8;"/>
   </g>
   <g id="patch_197">
    <path d="M 53.425 382.2 
L 199.621591 382.2 
" style="fill:none;stroke:#000000;stroke-linecap:square;stroke-linejoin:miter;stroke-width:0.8;"/>
   </g>
  </g>
 </g>
 <defs>
  <clipPath id="pa373ab747e">
   <rect height="35.855401" width="146.196591" x="53.425" y="15.412195"/>
  </clipPath>
  <clipPath id="pc69220ec69">
   <rect height="35.855401" width="146.196591" x="53.425" y="70.567596"/>
  </clipPath>
  <clipPath id="p9b8556798a">
   <rect height="35.855401" width="146.196591" x="53.425" y="125.722997"/>
  </clipPath>
  <clipPath id="p0ae623ed32">
   <rect height="35.855401" width="146.196591" x="53.425" y="180.878397"/>
  </clipPath>
  <clipPath id="pd7e1678086">
   <rect height="35.855401" width="146.196591" x="53.425" y="236.033798"/>
  </clipPath>
  <clipPath id="p1501c5ce93">
   <rect height="35.855401" width="146.196591" x="53.425" y="291.189199"/>
  </clipPath>
  <clipPath id="p1d60b47a99">
   <rect height="35.855401" width="146.196591" x="53.425" y="346.344599"/>
  </clipPath>
 </defs>
</svg>
