<?xml version="1.0" encoding="utf-8" standalone="no"?>
<!DOCTYPE svg PUBLIC "-//W3C//DTD SVG 1.1//EN"
  "http://www.w3.org/Graphics/SVG/1.1/DTD/svg11.dtd">
<!-- Created with matplotlib (https://matplotlib.org/) -->
<svg height="432pt" version="1.1" viewBox="0 0 216 432" width="216pt" xmlns="http://www.w3.org/2000/svg" xmlns:xlink="http://www.w3.org/1999/xlink">
 <defs>
  <style type="text/css">
*{stroke-linecap:butt;stroke-linejoin:round;}
  </style>
 </defs>
 <g id="figure_1">
  <g id="patch_1">
   <path d="M 0 432 
L 216 432 
L 216 0 
L 0 0 
z
" style="fill:#ffffff;"/>
  </g>
  <g id="axes_1">
   <g id="patch_2">
    <path d="M 62.175 47.314286 
L 199.621591 47.314286 
L 199.621591 15.577517 
L 62.175 15.577517 
z
" style="fill:#ffffff;"/>
   </g>
   <g id="patch_3">
    <path clip-path="url(#p560663cc8a)" d="M 68.422572 47.314286 
L 73.42063 47.314286 
L 73.42063 47.314286 
L 68.422572 47.314286 
z
" style="fill:#97178f;"/>
   </g>
   <g id="patch_4">
    <path clip-path="url(#p560663cc8a)" d="M 73.42063 47.314286 
L 78.418688 47.314286 
L 78.418688 47.314286 
L 73.42063 47.314286 
z
" style="fill:#97178f;"/>
   </g>
   <g id="patch_5">
    <path clip-path="url(#p560663cc8a)" d="M 78.418688 47.314286 
L 83.416746 47.314286 
L 83.416746 47.314286 
L 78.418688 47.314286 
z
" style="fill:#97178f;"/>
   </g>
   <g id="patch_6">
    <path clip-path="url(#p560663cc8a)" d="M 83.416746 47.314286 
L 88.414804 47.314286 
L 88.414804 47.314286 
L 83.416746 47.314286 
z
" style="fill:#97178f;"/>
   </g>
   <g id="patch_7">
    <path clip-path="url(#p560663cc8a)" d="M 88.414804 47.314286 
L 93.412862 47.314286 
L 93.412862 47.314286 
L 88.414804 47.314286 
z
" style="fill:#97178f;"/>
   </g>
   <g id="patch_8">
    <path clip-path="url(#p560663cc8a)" d="M 93.412862 47.314286 
L 98.410919 47.314286 
L 98.410919 47.314286 
L 93.412862 47.314286 
z
" style="fill:#97178f;"/>
   </g>
   <g id="patch_9">
    <path clip-path="url(#p560663cc8a)" d="M 98.410919 47.314286 
L 103.408977 47.314286 
L 103.408977 47.314286 
L 98.410919 47.314286 
z
" style="fill:#97178f;"/>
   </g>
   <g id="patch_10">
    <path clip-path="url(#p560663cc8a)" d="M 103.408977 47.314286 
L 108.407035 47.314286 
L 108.407035 47.314286 
L 103.408977 47.314286 
z
" style="fill:#97178f;"/>
   </g>
   <g id="patch_11">
    <path clip-path="url(#p560663cc8a)" d="M 108.407035 47.314286 
L 113.405093 47.314286 
L 113.405093 47.314286 
L 108.407035 47.314286 
z
" style="fill:#97178f;"/>
   </g>
   <g id="patch_12">
    <path clip-path="url(#p560663cc8a)" d="M 113.405093 47.314286 
L 118.403151 47.314286 
L 118.403151 47.314286 
L 113.405093 47.314286 
z
" style="fill:#97178f;"/>
   </g>
   <g id="patch_13">
    <path clip-path="url(#p560663cc8a)" d="M 118.403151 47.314286 
L 123.401209 47.314286 
L 123.401209 47.314286 
L 118.403151 47.314286 
z
" style="fill:#97178f;"/>
   </g>
   <g id="patch_14">
    <path clip-path="url(#p560663cc8a)" d="M 123.401209 47.314286 
L 128.399267 47.314286 
L 128.399267 47.314286 
L 123.401209 47.314286 
z
" style="fill:#97178f;"/>
   </g>
   <g id="patch_15">
    <path clip-path="url(#p560663cc8a)" d="M 128.399267 47.314286 
L 133.397324 47.314286 
L 133.397324 47.314286 
L 128.399267 47.314286 
z
" style="fill:#97178f;"/>
   </g>
   <g id="patch_16">
    <path clip-path="url(#p560663cc8a)" d="M 133.397324 47.314286 
L 138.395382 47.314286 
L 138.395382 47.314286 
L 133.397324 47.314286 
z
" style="fill:#97178f;"/>
   </g>
   <g id="patch_17">
    <path clip-path="url(#p560663cc8a)" d="M 138.395382 47.314286 
L 143.39344 47.314286 
L 143.39344 47.314286 
L 138.395382 47.314286 
z
" style="fill:#97178f;"/>
   </g>
   <g id="patch_18">
    <path clip-path="url(#p560663cc8a)" d="M 143.39344 47.314286 
L 148.391498 47.314286 
L 148.391498 47.314286 
L 143.39344 47.314286 
z
" style="fill:#97178f;"/>
   </g>
   <g id="patch_19">
    <path clip-path="url(#p560663cc8a)" d="M 148.391498 47.314286 
L 153.389556 47.314286 
L 153.389556 47.314286 
L 148.391498 47.314286 
z
" style="fill:#97178f;"/>
   </g>
   <g id="patch_20">
    <path clip-path="url(#p560663cc8a)" d="M 153.389556 47.314286 
L 158.387614 47.314286 
L 158.387614 47.002683 
L 153.389556 47.002683 
z
" style="fill:#97178f;"/>
   </g>
   <g id="patch_21">
    <path clip-path="url(#p560663cc8a)" d="M 158.387614 47.314286 
L 163.385671 47.314286 
L 163.385671 47.314286 
L 158.387614 47.314286 
z
" style="fill:#97178f;"/>
   </g>
   <g id="patch_22">
    <path clip-path="url(#p560663cc8a)" d="M 163.385671 47.314286 
L 168.383729 47.314286 
L 168.383729 46.379477 
L 163.385671 46.379477 
z
" style="fill:#97178f;"/>
   </g>
   <g id="patch_23">
    <path clip-path="url(#p560663cc8a)" d="M 168.383729 47.314286 
L 173.381787 47.314286 
L 173.381787 34.226958 
L 168.383729 34.226958 
z
" style="fill:#97178f;"/>
   </g>
   <g id="patch_24">
    <path clip-path="url(#p560663cc8a)" d="M 173.381787 47.314286 
L 178.379845 47.314286 
L 178.379845 30.487722 
L 173.381787 30.487722 
z
" style="fill:#97178f;"/>
   </g>
   <g id="patch_25">
    <path clip-path="url(#p560663cc8a)" d="M 178.379845 47.314286 
L 183.377903 47.314286 
L 183.377903 47.314286 
L 178.379845 47.314286 
z
" style="fill:#97178f;"/>
   </g>
   <g id="patch_26">
    <path clip-path="url(#p560663cc8a)" d="M 183.377903 47.314286 
L 188.375961 47.314286 
L 188.375961 47.314286 
L 183.377903 47.314286 
z
" style="fill:#97178f;"/>
   </g>
   <g id="patch_27">
    <path clip-path="url(#p560663cc8a)" d="M 188.375961 47.314286 
L 193.374019 47.314286 
L 193.374019 47.314286 
L 188.375961 47.314286 
z
" style="fill:#97178f;"/>
   </g>
   <g id="matplotlib.axis_1">
    <g id="xtick_1">
     <g id="line2d_1">
      <defs>
       <path d="M 0 0 
L 0 3.5 
" id="m0cd4af4504" style="stroke:#000000;stroke-width:0.8;"/>
      </defs>
      <g>
       <use style="stroke:#000000;stroke-width:0.8;" x="68.422572" xlink:href="#m0cd4af4504" y="47.314286"/>
      </g>
     </g>
    </g>
    <g id="xtick_2">
     <g id="line2d_2">
      <g>
       <use style="stroke:#000000;stroke-width:0.8;" x="130.898295" xlink:href="#m0cd4af4504" y="47.314286"/>
      </g>
     </g>
    </g>
    <g id="xtick_3">
     <g id="line2d_3">
      <g>
       <use style="stroke:#000000;stroke-width:0.8;" x="193.374019" xlink:href="#m0cd4af4504" y="47.314286"/>
      </g>
     </g>
    </g>
   </g>
   <g id="matplotlib.axis_2">
    <g id="ytick_1">
     <g id="line2d_4">
      <defs>
       <path d="M 0 0 
L -3.5 0 
" id="ma8b886098d" style="stroke:#000000;stroke-width:0.8;"/>
      </defs>
      <g>
       <use style="stroke:#000000;stroke-width:0.8;" x="62.175" xlink:href="#ma8b886098d" y="47.314286"/>
      </g>
     </g>
     <g id="text_1">
      <!-- 0 -->
      <defs>
       <path d="M 31.78125 66.40625 
Q 24.171875 66.40625 20.328125 58.90625 
Q 16.5 51.421875 16.5 36.375 
Q 16.5 21.390625 20.328125 13.890625 
Q 24.171875 6.390625 31.78125 6.390625 
Q 39.453125 6.390625 43.28125 13.890625 
Q 47.125 21.390625 47.125 36.375 
Q 47.125 51.421875 43.28125 58.90625 
Q 39.453125 66.40625 31.78125 66.40625 
z
M 31.78125 74.21875 
Q 44.046875 74.21875 50.515625 64.515625 
Q 56.984375 54.828125 56.984375 36.375 
Q 56.984375 17.96875 50.515625 8.265625 
Q 44.046875 -1.421875 31.78125 -1.421875 
Q 19.53125 -1.421875 13.0625 8.265625 
Q 6.59375 17.96875 6.59375 36.375 
Q 6.59375 54.828125 13.0625 64.515625 
Q 19.53125 74.21875 31.78125 74.21875 
z
" id="DejaVuSans-48"/>
      </defs>
      <g transform="translate(46.2675 52.633192)scale(0.14 -0.14)">
       <use xlink:href="#DejaVuSans-48"/>
      </g>
     </g>
    </g>
    <g id="ytick_2">
     <g id="line2d_5">
      <g>
       <use style="stroke:#000000;stroke-width:0.8;" x="62.175" xlink:href="#ma8b886098d" y="16.153983"/>
      </g>
     </g>
     <g id="text_2">
      <!-- 100 -->
      <defs>
       <path d="M 12.40625 8.296875 
L 28.515625 8.296875 
L 28.515625 63.921875 
L 10.984375 60.40625 
L 10.984375 69.390625 
L 28.421875 72.90625 
L 38.28125 72.90625 
L 38.28125 8.296875 
L 54.390625 8.296875 
L 54.390625 0 
L 12.40625 0 
z
" id="DejaVuSans-49"/>
      </defs>
      <g transform="translate(28.4525 21.472889)scale(0.14 -0.14)">
       <use xlink:href="#DejaVuSans-49"/>
       <use x="63.623047" xlink:href="#DejaVuSans-48"/>
       <use x="127.246094" xlink:href="#DejaVuSans-48"/>
      </g>
     </g>
    </g>
    <g id="text_3">
     <!-- Counts -->
     <defs>
      <path d="M 64.40625 67.28125 
L 64.40625 56.890625 
Q 59.421875 61.53125 53.78125 63.8125 
Q 48.140625 66.109375 41.796875 66.109375 
Q 29.296875 66.109375 22.65625 58.46875 
Q 16.015625 50.828125 16.015625 36.375 
Q 16.015625 21.96875 22.65625 14.328125 
Q 29.296875 6.6875 41.796875 6.6875 
Q 48.140625 6.6875 53.78125 8.984375 
Q 59.421875 11.28125 64.40625 15.921875 
L 64.40625 5.609375 
Q 59.234375 2.09375 53.4375 0.328125 
Q 47.65625 -1.421875 41.21875 -1.421875 
Q 24.65625 -1.421875 15.125 8.703125 
Q 5.609375 18.84375 5.609375 36.375 
Q 5.609375 53.953125 15.125 64.078125 
Q 24.65625 74.21875 41.21875 74.21875 
Q 47.75 74.21875 53.53125 72.484375 
Q 59.328125 70.75 64.40625 67.28125 
z
" id="DejaVuSans-67"/>
      <path d="M 30.609375 48.390625 
Q 23.390625 48.390625 19.1875 42.75 
Q 14.984375 37.109375 14.984375 27.296875 
Q 14.984375 17.484375 19.15625 11.84375 
Q 23.34375 6.203125 30.609375 6.203125 
Q 37.796875 6.203125 41.984375 11.859375 
Q 46.1875 17.53125 46.1875 27.296875 
Q 46.1875 37.015625 41.984375 42.703125 
Q 37.796875 48.390625 30.609375 48.390625 
z
M 30.609375 56 
Q 42.328125 56 49.015625 48.375 
Q 55.71875 40.765625 55.71875 27.296875 
Q 55.71875 13.875 49.015625 6.21875 
Q 42.328125 -1.421875 30.609375 -1.421875 
Q 18.84375 -1.421875 12.171875 6.21875 
Q 5.515625 13.875 5.515625 27.296875 
Q 5.515625 40.765625 12.171875 48.375 
Q 18.84375 56 30.609375 56 
z
" id="DejaVuSans-111"/>
      <path d="M 8.5 21.578125 
L 8.5 54.6875 
L 17.484375 54.6875 
L 17.484375 21.921875 
Q 17.484375 14.15625 20.5 10.265625 
Q 23.53125 6.390625 29.59375 6.390625 
Q 36.859375 6.390625 41.078125 11.03125 
Q 45.3125 15.671875 45.3125 23.6875 
L 45.3125 54.6875 
L 54.296875 54.6875 
L 54.296875 0 
L 45.3125 0 
L 45.3125 8.40625 
Q 42.046875 3.421875 37.71875 1 
Q 33.40625 -1.421875 27.6875 -1.421875 
Q 18.265625 -1.421875 13.375 4.4375 
Q 8.5 10.296875 8.5 21.578125 
z
M 31.109375 56 
z
" id="DejaVuSans-117"/>
      <path d="M 54.890625 33.015625 
L 54.890625 0 
L 45.90625 0 
L 45.90625 32.71875 
Q 45.90625 40.484375 42.875 44.328125 
Q 39.84375 48.1875 33.796875 48.1875 
Q 26.515625 48.1875 22.3125 43.546875 
Q 18.109375 38.921875 18.109375 30.90625 
L 18.109375 0 
L 9.078125 0 
L 9.078125 54.6875 
L 18.109375 54.6875 
L 18.109375 46.1875 
Q 21.34375 51.125 25.703125 53.5625 
Q 30.078125 56 35.796875 56 
Q 45.21875 56 50.046875 50.171875 
Q 54.890625 44.34375 54.890625 33.015625 
z
" id="DejaVuSans-110"/>
      <path d="M 18.3125 70.21875 
L 18.3125 54.6875 
L 36.8125 54.6875 
L 36.8125 47.703125 
L 18.3125 47.703125 
L 18.3125 18.015625 
Q 18.3125 11.328125 20.140625 9.421875 
Q 21.96875 7.515625 27.59375 7.515625 
L 36.8125 7.515625 
L 36.8125 0 
L 27.59375 0 
Q 17.1875 0 13.234375 3.875 
Q 9.28125 7.765625 9.28125 18.015625 
L 9.28125 47.703125 
L 2.6875 47.703125 
L 2.6875 54.6875 
L 9.28125 54.6875 
L 9.28125 70.21875 
z
" id="DejaVuSans-116"/>
      <path d="M 44.28125 53.078125 
L 44.28125 44.578125 
Q 40.484375 46.53125 36.375 47.5 
Q 32.28125 48.484375 27.875 48.484375 
Q 21.1875 48.484375 17.84375 46.4375 
Q 14.5 44.390625 14.5 40.28125 
Q 14.5 37.15625 16.890625 35.375 
Q 19.28125 33.59375 26.515625 31.984375 
L 29.59375 31.296875 
Q 39.15625 29.25 43.1875 25.515625 
Q 47.21875 21.78125 47.21875 15.09375 
Q 47.21875 7.46875 41.1875 3.015625 
Q 35.15625 -1.421875 24.609375 -1.421875 
Q 20.21875 -1.421875 15.453125 -0.5625 
Q 10.6875 0.296875 5.421875 2 
L 5.421875 11.28125 
Q 10.40625 8.6875 15.234375 7.390625 
Q 20.0625 6.109375 24.8125 6.109375 
Q 31.15625 6.109375 34.5625 8.28125 
Q 37.984375 10.453125 37.984375 14.40625 
Q 37.984375 18.0625 35.515625 20.015625 
Q 33.0625 21.96875 24.703125 23.78125 
L 21.578125 24.515625 
Q 13.234375 26.265625 9.515625 29.90625 
Q 5.8125 33.546875 5.8125 39.890625 
Q 5.8125 47.609375 11.28125 51.796875 
Q 16.75 56 26.8125 56 
Q 31.78125 56 36.171875 55.265625 
Q 40.578125 54.546875 44.28125 53.078125 
z
" id="DejaVuSans-115"/>
     </defs>
     <g transform="translate(21.540937 55.880276)rotate(-90)scale(0.14 -0.14)">
      <use xlink:href="#DejaVuSans-67"/>
      <use x="69.824219" xlink:href="#DejaVuSans-111"/>
      <use x="131.005859" xlink:href="#DejaVuSans-117"/>
      <use x="194.384766" xlink:href="#DejaVuSans-110"/>
      <use x="257.763672" xlink:href="#DejaVuSans-116"/>
      <use x="296.972656" xlink:href="#DejaVuSans-115"/>
     </g>
    </g>
   </g>
   <g id="patch_28">
    <path d="M 62.175 47.314286 
L 62.175 15.577517 
" style="fill:none;stroke:#000000;stroke-linecap:square;stroke-linejoin:miter;stroke-width:0.8;"/>
   </g>
   <g id="patch_29">
    <path d="M 62.175 47.314286 
L 199.621591 47.314286 
" style="fill:none;stroke:#000000;stroke-linecap:square;stroke-linejoin:miter;stroke-width:0.8;"/>
   </g>
  </g>
  <g id="axes_2">
   <g id="patch_30">
    <path d="M 62.175 103.128571 
L 199.621591 103.128571 
L 199.621591 71.391803 
L 62.175 71.391803 
z
" style="fill:#ffffff;"/>
   </g>
   <g id="patch_31">
    <path clip-path="url(#p6b683597e9)" d="M 68.422572 103.128571 
L 73.42063 103.128571 
L 73.42063 103.128571 
L 68.422572 103.128571 
z
" style="fill:#97178f;"/>
   </g>
   <g id="patch_32">
    <path clip-path="url(#p6b683597e9)" d="M 73.42063 103.128571 
L 78.418688 103.128571 
L 78.418688 103.128571 
L 73.42063 103.128571 
z
" style="fill:#97178f;"/>
   </g>
   <g id="patch_33">
    <path clip-path="url(#p6b683597e9)" d="M 78.418688 103.128571 
L 83.416746 103.128571 
L 83.416746 103.128571 
L 78.418688 103.128571 
z
" style="fill:#97178f;"/>
   </g>
   <g id="patch_34">
    <path clip-path="url(#p6b683597e9)" d="M 83.416746 103.128571 
L 88.414804 103.128571 
L 88.414804 103.128571 
L 83.416746 103.128571 
z
" style="fill:#97178f;"/>
   </g>
   <g id="patch_35">
    <path clip-path="url(#p6b683597e9)" d="M 88.414804 103.128571 
L 93.412862 103.128571 
L 93.412862 103.128571 
L 88.414804 103.128571 
z
" style="fill:#97178f;"/>
   </g>
   <g id="patch_36">
    <path clip-path="url(#p6b683597e9)" d="M 93.412862 103.128571 
L 98.410919 103.128571 
L 98.410919 103.128571 
L 93.412862 103.128571 
z
" style="fill:#97178f;"/>
   </g>
   <g id="patch_37">
    <path clip-path="url(#p6b683597e9)" d="M 98.410919 103.128571 
L 103.408977 103.128571 
L 103.408977 72.903078 
L 98.410919 72.903078 
z
" style="fill:#97178f;"/>
   </g>
   <g id="patch_38">
    <path clip-path="url(#p6b683597e9)" d="M 103.408977 103.128571 
L 108.407035 103.128571 
L 108.407035 102.193762 
L 103.408977 102.193762 
z
" style="fill:#97178f;"/>
   </g>
   <g id="patch_39">
    <path clip-path="url(#p6b683597e9)" d="M 108.407035 103.128571 
L 113.405093 103.128571 
L 113.405093 103.128571 
L 108.407035 103.128571 
z
" style="fill:#97178f;"/>
   </g>
   <g id="patch_40">
    <path clip-path="url(#p6b683597e9)" d="M 113.405093 103.128571 
L 118.403151 103.128571 
L 118.403151 103.128571 
L 113.405093 103.128571 
z
" style="fill:#97178f;"/>
   </g>
   <g id="patch_41">
    <path clip-path="url(#p6b683597e9)" d="M 118.403151 103.128571 
L 123.401209 103.128571 
L 123.401209 103.128571 
L 118.403151 103.128571 
z
" style="fill:#97178f;"/>
   </g>
   <g id="patch_42">
    <path clip-path="url(#p6b683597e9)" d="M 123.401209 103.128571 
L 128.399267 103.128571 
L 128.399267 103.128571 
L 123.401209 103.128571 
z
" style="fill:#97178f;"/>
   </g>
   <g id="patch_43">
    <path clip-path="url(#p6b683597e9)" d="M 128.399267 103.128571 
L 133.397324 103.128571 
L 133.397324 103.128571 
L 128.399267 103.128571 
z
" style="fill:#97178f;"/>
   </g>
   <g id="patch_44">
    <path clip-path="url(#p6b683597e9)" d="M 133.397324 103.128571 
L 138.395382 103.128571 
L 138.395382 103.128571 
L 133.397324 103.128571 
z
" style="fill:#97178f;"/>
   </g>
   <g id="patch_45">
    <path clip-path="url(#p6b683597e9)" d="M 138.395382 103.128571 
L 143.39344 103.128571 
L 143.39344 103.128571 
L 138.395382 103.128571 
z
" style="fill:#97178f;"/>
   </g>
   <g id="patch_46">
    <path clip-path="url(#p6b683597e9)" d="M 143.39344 103.128571 
L 148.391498 103.128571 
L 148.391498 103.128571 
L 143.39344 103.128571 
z
" style="fill:#97178f;"/>
   </g>
   <g id="patch_47">
    <path clip-path="url(#p6b683597e9)" d="M 148.391498 103.128571 
L 153.389556 103.128571 
L 153.389556 103.128571 
L 148.391498 103.128571 
z
" style="fill:#97178f;"/>
   </g>
   <g id="patch_48">
    <path clip-path="url(#p6b683597e9)" d="M 153.389556 103.128571 
L 158.387614 103.128571 
L 158.387614 103.128571 
L 153.389556 103.128571 
z
" style="fill:#97178f;"/>
   </g>
   <g id="patch_49">
    <path clip-path="url(#p6b683597e9)" d="M 158.387614 103.128571 
L 163.385671 103.128571 
L 163.385671 103.128571 
L 158.387614 103.128571 
z
" style="fill:#97178f;"/>
   </g>
   <g id="patch_50">
    <path clip-path="url(#p6b683597e9)" d="M 163.385671 103.128571 
L 168.383729 103.128571 
L 168.383729 103.128571 
L 163.385671 103.128571 
z
" style="fill:#97178f;"/>
   </g>
   <g id="patch_51">
    <path clip-path="url(#p6b683597e9)" d="M 168.383729 103.128571 
L 173.381787 103.128571 
L 173.381787 103.128571 
L 168.383729 103.128571 
z
" style="fill:#97178f;"/>
   </g>
   <g id="patch_52">
    <path clip-path="url(#p6b683597e9)" d="M 173.381787 103.128571 
L 178.379845 103.128571 
L 178.379845 103.128571 
L 173.381787 103.128571 
z
" style="fill:#97178f;"/>
   </g>
   <g id="patch_53">
    <path clip-path="url(#p6b683597e9)" d="M 178.379845 103.128571 
L 183.377903 103.128571 
L 183.377903 103.128571 
L 178.379845 103.128571 
z
" style="fill:#97178f;"/>
   </g>
   <g id="patch_54">
    <path clip-path="url(#p6b683597e9)" d="M 183.377903 103.128571 
L 188.375961 103.128571 
L 188.375961 103.128571 
L 183.377903 103.128571 
z
" style="fill:#97178f;"/>
   </g>
   <g id="patch_55">
    <path clip-path="url(#p6b683597e9)" d="M 188.375961 103.128571 
L 193.374019 103.128571 
L 193.374019 103.128571 
L 188.375961 103.128571 
z
" style="fill:#97178f;"/>
   </g>
   <g id="matplotlib.axis_3">
    <g id="xtick_4">
     <g id="line2d_6">
      <g>
       <use style="stroke:#000000;stroke-width:0.8;" x="68.422572" xlink:href="#m0cd4af4504" y="103.128571"/>
      </g>
     </g>
    </g>
    <g id="xtick_5">
     <g id="line2d_7">
      <g>
       <use style="stroke:#000000;stroke-width:0.8;" x="130.898295" xlink:href="#m0cd4af4504" y="103.128571"/>
      </g>
     </g>
    </g>
    <g id="xtick_6">
     <g id="line2d_8">
      <g>
       <use style="stroke:#000000;stroke-width:0.8;" x="193.374019" xlink:href="#m0cd4af4504" y="103.128571"/>
      </g>
     </g>
    </g>
   </g>
   <g id="matplotlib.axis_4">
    <g id="ytick_3">
     <g id="line2d_9">
      <g>
       <use style="stroke:#000000;stroke-width:0.8;" x="62.175" xlink:href="#ma8b886098d" y="103.128571"/>
      </g>
     </g>
     <g id="text_4">
      <!-- 0 -->
      <g transform="translate(46.2675 108.447478)scale(0.14 -0.14)">
       <use xlink:href="#DejaVuSans-48"/>
      </g>
     </g>
    </g>
    <g id="ytick_4">
     <g id="line2d_10">
      <g>
       <use style="stroke:#000000;stroke-width:0.8;" x="62.175" xlink:href="#ma8b886098d" y="71.968268"/>
      </g>
     </g>
     <g id="text_5">
      <!-- 100 -->
      <g transform="translate(28.4525 77.287175)scale(0.14 -0.14)">
       <use xlink:href="#DejaVuSans-49"/>
       <use x="63.623047" xlink:href="#DejaVuSans-48"/>
       <use x="127.246094" xlink:href="#DejaVuSans-48"/>
      </g>
     </g>
    </g>
   </g>
   <g id="patch_56">
    <path d="M 62.175 103.128571 
L 62.175 71.391803 
" style="fill:none;stroke:#000000;stroke-linecap:square;stroke-linejoin:miter;stroke-width:0.8;"/>
   </g>
   <g id="patch_57">
    <path d="M 62.175 103.128571 
L 199.621591 103.128571 
" style="fill:none;stroke:#000000;stroke-linecap:square;stroke-linejoin:miter;stroke-width:0.8;"/>
   </g>
  </g>
  <g id="axes_3">
   <g id="patch_58">
    <path d="M 62.175 158.942857 
L 199.621591 158.942857 
L 199.621591 127.206089 
L 62.175 127.206089 
z
" style="fill:#ffffff;"/>
   </g>
   <g id="patch_59">
    <path clip-path="url(#p6494ab4e92)" d="M 68.422572 158.942857 
L 73.42063 158.942857 
L 73.42063 158.942857 
L 68.422572 158.942857 
z
" style="fill:#97178f;"/>
   </g>
   <g id="patch_60">
    <path clip-path="url(#p6494ab4e92)" d="M 73.42063 158.942857 
L 78.418688 158.942857 
L 78.418688 158.942857 
L 73.42063 158.942857 
z
" style="fill:#97178f;"/>
   </g>
   <g id="patch_61">
    <path clip-path="url(#p6494ab4e92)" d="M 78.418688 158.942857 
L 83.416746 158.942857 
L 83.416746 158.942857 
L 78.418688 158.942857 
z
" style="fill:#97178f;"/>
   </g>
   <g id="patch_62">
    <path clip-path="url(#p6494ab4e92)" d="M 83.416746 158.942857 
L 88.414804 158.942857 
L 88.414804 158.942857 
L 83.416746 158.942857 
z
" style="fill:#97178f;"/>
   </g>
   <g id="patch_63">
    <path clip-path="url(#p6494ab4e92)" d="M 88.414804 158.942857 
L 93.412862 158.942857 
L 93.412862 158.942857 
L 88.414804 158.942857 
z
" style="fill:#97178f;"/>
   </g>
   <g id="patch_64">
    <path clip-path="url(#p6494ab4e92)" d="M 93.412862 158.942857 
L 98.410919 158.942857 
L 98.410919 158.942857 
L 93.412862 158.942857 
z
" style="fill:#97178f;"/>
   </g>
   <g id="patch_65">
    <path clip-path="url(#p6494ab4e92)" d="M 98.410919 158.942857 
L 103.408977 158.942857 
L 103.408977 131.833394 
L 98.410919 131.833394 
z
" style="fill:#97178f;"/>
   </g>
   <g id="patch_66">
    <path clip-path="url(#p6494ab4e92)" d="M 103.408977 158.942857 
L 108.407035 158.942857 
L 108.407035 154.892018 
L 103.408977 154.892018 
z
" style="fill:#97178f;"/>
   </g>
   <g id="patch_67">
    <path clip-path="url(#p6494ab4e92)" d="M 108.407035 158.942857 
L 113.405093 158.942857 
L 113.405093 158.942857 
L 108.407035 158.942857 
z
" style="fill:#97178f;"/>
   </g>
   <g id="patch_68">
    <path clip-path="url(#p6494ab4e92)" d="M 113.405093 158.942857 
L 118.403151 158.942857 
L 118.403151 158.942857 
L 113.405093 158.942857 
z
" style="fill:#97178f;"/>
   </g>
   <g id="patch_69">
    <path clip-path="url(#p6494ab4e92)" d="M 118.403151 158.942857 
L 123.401209 158.942857 
L 123.401209 158.942857 
L 118.403151 158.942857 
z
" style="fill:#97178f;"/>
   </g>
   <g id="patch_70">
    <path clip-path="url(#p6494ab4e92)" d="M 123.401209 158.942857 
L 128.399267 158.942857 
L 128.399267 158.942857 
L 123.401209 158.942857 
z
" style="fill:#97178f;"/>
   </g>
   <g id="patch_71">
    <path clip-path="url(#p6494ab4e92)" d="M 128.399267 158.942857 
L 133.397324 158.942857 
L 133.397324 158.942857 
L 128.399267 158.942857 
z
" style="fill:#97178f;"/>
   </g>
   <g id="patch_72">
    <path clip-path="url(#p6494ab4e92)" d="M 133.397324 158.942857 
L 138.395382 158.942857 
L 138.395382 158.942857 
L 133.397324 158.942857 
z
" style="fill:#97178f;"/>
   </g>
   <g id="patch_73">
    <path clip-path="url(#p6494ab4e92)" d="M 138.395382 158.942857 
L 143.39344 158.942857 
L 143.39344 158.942857 
L 138.395382 158.942857 
z
" style="fill:#97178f;"/>
   </g>
   <g id="patch_74">
    <path clip-path="url(#p6494ab4e92)" d="M 143.39344 158.942857 
L 148.391498 158.942857 
L 148.391498 158.942857 
L 143.39344 158.942857 
z
" style="fill:#97178f;"/>
   </g>
   <g id="patch_75">
    <path clip-path="url(#p6494ab4e92)" d="M 148.391498 158.942857 
L 153.389556 158.942857 
L 153.389556 158.942857 
L 148.391498 158.942857 
z
" style="fill:#97178f;"/>
   </g>
   <g id="patch_76">
    <path clip-path="url(#p6494ab4e92)" d="M 153.389556 158.942857 
L 158.387614 158.942857 
L 158.387614 158.942857 
L 153.389556 158.942857 
z
" style="fill:#97178f;"/>
   </g>
   <g id="patch_77">
    <path clip-path="url(#p6494ab4e92)" d="M 158.387614 158.942857 
L 163.385671 158.942857 
L 163.385671 158.942857 
L 158.387614 158.942857 
z
" style="fill:#97178f;"/>
   </g>
   <g id="patch_78">
    <path clip-path="url(#p6494ab4e92)" d="M 163.385671 158.942857 
L 168.383729 158.942857 
L 168.383729 158.942857 
L 163.385671 158.942857 
z
" style="fill:#97178f;"/>
   </g>
   <g id="patch_79">
    <path clip-path="url(#p6494ab4e92)" d="M 168.383729 158.942857 
L 173.381787 158.942857 
L 173.381787 158.942857 
L 168.383729 158.942857 
z
" style="fill:#97178f;"/>
   </g>
   <g id="patch_80">
    <path clip-path="url(#p6494ab4e92)" d="M 173.381787 158.942857 
L 178.379845 158.942857 
L 178.379845 158.942857 
L 173.381787 158.942857 
z
" style="fill:#97178f;"/>
   </g>
   <g id="patch_81">
    <path clip-path="url(#p6494ab4e92)" d="M 178.379845 158.942857 
L 183.377903 158.942857 
L 183.377903 158.942857 
L 178.379845 158.942857 
z
" style="fill:#97178f;"/>
   </g>
   <g id="patch_82">
    <path clip-path="url(#p6494ab4e92)" d="M 183.377903 158.942857 
L 188.375961 158.942857 
L 188.375961 158.942857 
L 183.377903 158.942857 
z
" style="fill:#97178f;"/>
   </g>
   <g id="patch_83">
    <path clip-path="url(#p6494ab4e92)" d="M 188.375961 158.942857 
L 193.374019 158.942857 
L 193.374019 158.942857 
L 188.375961 158.942857 
z
" style="fill:#97178f;"/>
   </g>
   <g id="matplotlib.axis_5">
    <g id="xtick_7">
     <g id="line2d_11">
      <g>
       <use style="stroke:#000000;stroke-width:0.8;" x="68.422572" xlink:href="#m0cd4af4504" y="158.942857"/>
      </g>
     </g>
    </g>
    <g id="xtick_8">
     <g id="line2d_12">
      <g>
       <use style="stroke:#000000;stroke-width:0.8;" x="130.898295" xlink:href="#m0cd4af4504" y="158.942857"/>
      </g>
     </g>
    </g>
    <g id="xtick_9">
     <g id="line2d_13">
      <g>
       <use style="stroke:#000000;stroke-width:0.8;" x="193.374019" xlink:href="#m0cd4af4504" y="158.942857"/>
      </g>
     </g>
    </g>
   </g>
   <g id="matplotlib.axis_6">
    <g id="ytick_5">
     <g id="line2d_14">
      <g>
       <use style="stroke:#000000;stroke-width:0.8;" x="62.175" xlink:href="#ma8b886098d" y="158.942857"/>
      </g>
     </g>
     <g id="text_6">
      <!-- 0 -->
      <g transform="translate(46.2675 164.261763)scale(0.14 -0.14)">
       <use xlink:href="#DejaVuSans-48"/>
      </g>
     </g>
    </g>
    <g id="ytick_6">
     <g id="line2d_15">
      <g>
       <use style="stroke:#000000;stroke-width:0.8;" x="62.175" xlink:href="#ma8b886098d" y="127.782554"/>
      </g>
     </g>
     <g id="text_7">
      <!-- 100 -->
      <g transform="translate(28.4525 133.10146)scale(0.14 -0.14)">
       <use xlink:href="#DejaVuSans-49"/>
       <use x="63.623047" xlink:href="#DejaVuSans-48"/>
       <use x="127.246094" xlink:href="#DejaVuSans-48"/>
      </g>
     </g>
    </g>
   </g>
   <g id="patch_84">
    <path d="M 62.175 158.942857 
L 62.175 127.206089 
" style="fill:none;stroke:#000000;stroke-linecap:square;stroke-linejoin:miter;stroke-width:0.8;"/>
   </g>
   <g id="patch_85">
    <path d="M 62.175 158.942857 
L 199.621591 158.942857 
" style="fill:none;stroke:#000000;stroke-linecap:square;stroke-linejoin:miter;stroke-width:0.8;"/>
   </g>
  </g>
  <g id="axes_4">
   <g id="patch_86">
    <path d="M 62.175 214.757143 
L 199.621591 214.757143 
L 199.621591 183.020374 
L 62.175 183.020374 
z
" style="fill:#ffffff;"/>
   </g>
   <g id="patch_87">
    <path clip-path="url(#pdf7d1bd47e)" d="M 68.422572 214.757143 
L 73.42063 214.757143 
L 73.42063 214.757143 
L 68.422572 214.757143 
z
" style="fill:#97178f;"/>
   </g>
   <g id="patch_88">
    <path clip-path="url(#pdf7d1bd47e)" d="M 73.42063 214.757143 
L 78.418688 214.757143 
L 78.418688 214.757143 
L 73.42063 214.757143 
z
" style="fill:#97178f;"/>
   </g>
   <g id="patch_89">
    <path clip-path="url(#pdf7d1bd47e)" d="M 78.418688 214.757143 
L 83.416746 214.757143 
L 83.416746 214.757143 
L 78.418688 214.757143 
z
" style="fill:#97178f;"/>
   </g>
   <g id="patch_90">
    <path clip-path="url(#pdf7d1bd47e)" d="M 83.416746 214.757143 
L 88.414804 214.757143 
L 88.414804 214.757143 
L 83.416746 214.757143 
z
" style="fill:#97178f;"/>
   </g>
   <g id="patch_91">
    <path clip-path="url(#pdf7d1bd47e)" d="M 88.414804 214.757143 
L 93.412862 214.757143 
L 93.412862 214.757143 
L 88.414804 214.757143 
z
" style="fill:#97178f;"/>
   </g>
   <g id="patch_92">
    <path clip-path="url(#pdf7d1bd47e)" d="M 93.412862 214.757143 
L 98.410919 214.757143 
L 98.410919 214.757143 
L 93.412862 214.757143 
z
" style="fill:#97178f;"/>
   </g>
   <g id="patch_93">
    <path clip-path="url(#pdf7d1bd47e)" d="M 98.410919 214.757143 
L 103.408977 214.757143 
L 103.408977 194.191343 
L 98.410919 194.191343 
z
" style="fill:#97178f;"/>
   </g>
   <g id="patch_94">
    <path clip-path="url(#pdf7d1bd47e)" d="M 103.408977 214.757143 
L 108.407035 214.757143 
L 108.407035 204.16264 
L 103.408977 204.16264 
z
" style="fill:#97178f;"/>
   </g>
   <g id="patch_95">
    <path clip-path="url(#pdf7d1bd47e)" d="M 108.407035 214.757143 
L 113.405093 214.757143 
L 113.405093 214.757143 
L 108.407035 214.757143 
z
" style="fill:#97178f;"/>
   </g>
   <g id="patch_96">
    <path clip-path="url(#pdf7d1bd47e)" d="M 113.405093 214.757143 
L 118.403151 214.757143 
L 118.403151 214.757143 
L 113.405093 214.757143 
z
" style="fill:#97178f;"/>
   </g>
   <g id="patch_97">
    <path clip-path="url(#pdf7d1bd47e)" d="M 118.403151 214.757143 
L 123.401209 214.757143 
L 123.401209 214.757143 
L 118.403151 214.757143 
z
" style="fill:#97178f;"/>
   </g>
   <g id="patch_98">
    <path clip-path="url(#pdf7d1bd47e)" d="M 123.401209 214.757143 
L 128.399267 214.757143 
L 128.399267 214.757143 
L 123.401209 214.757143 
z
" style="fill:#97178f;"/>
   </g>
   <g id="patch_99">
    <path clip-path="url(#pdf7d1bd47e)" d="M 128.399267 214.757143 
L 133.397324 214.757143 
L 133.397324 214.757143 
L 128.399267 214.757143 
z
" style="fill:#97178f;"/>
   </g>
   <g id="patch_100">
    <path clip-path="url(#pdf7d1bd47e)" d="M 133.397324 214.757143 
L 138.395382 214.757143 
L 138.395382 214.757143 
L 133.397324 214.757143 
z
" style="fill:#97178f;"/>
   </g>
   <g id="patch_101">
    <path clip-path="url(#pdf7d1bd47e)" d="M 138.395382 214.757143 
L 143.39344 214.757143 
L 143.39344 214.757143 
L 138.395382 214.757143 
z
" style="fill:#97178f;"/>
   </g>
   <g id="patch_102">
    <path clip-path="url(#pdf7d1bd47e)" d="M 143.39344 214.757143 
L 148.391498 214.757143 
L 148.391498 214.757143 
L 143.39344 214.757143 
z
" style="fill:#97178f;"/>
   </g>
   <g id="patch_103">
    <path clip-path="url(#pdf7d1bd47e)" d="M 148.391498 214.757143 
L 153.389556 214.757143 
L 153.389556 214.757143 
L 148.391498 214.757143 
z
" style="fill:#97178f;"/>
   </g>
   <g id="patch_104">
    <path clip-path="url(#pdf7d1bd47e)" d="M 153.389556 214.757143 
L 158.387614 214.757143 
L 158.387614 214.757143 
L 153.389556 214.757143 
z
" style="fill:#97178f;"/>
   </g>
   <g id="patch_105">
    <path clip-path="url(#pdf7d1bd47e)" d="M 158.387614 214.757143 
L 163.385671 214.757143 
L 163.385671 214.757143 
L 158.387614 214.757143 
z
" style="fill:#97178f;"/>
   </g>
   <g id="patch_106">
    <path clip-path="url(#pdf7d1bd47e)" d="M 163.385671 214.757143 
L 168.383729 214.757143 
L 168.383729 214.757143 
L 163.385671 214.757143 
z
" style="fill:#97178f;"/>
   </g>
   <g id="patch_107">
    <path clip-path="url(#pdf7d1bd47e)" d="M 168.383729 214.757143 
L 173.381787 214.757143 
L 173.381787 214.757143 
L 168.383729 214.757143 
z
" style="fill:#97178f;"/>
   </g>
   <g id="patch_108">
    <path clip-path="url(#pdf7d1bd47e)" d="M 173.381787 214.757143 
L 178.379845 214.757143 
L 178.379845 214.757143 
L 173.381787 214.757143 
z
" style="fill:#97178f;"/>
   </g>
   <g id="patch_109">
    <path clip-path="url(#pdf7d1bd47e)" d="M 178.379845 214.757143 
L 183.377903 214.757143 
L 183.377903 214.757143 
L 178.379845 214.757143 
z
" style="fill:#97178f;"/>
   </g>
   <g id="patch_110">
    <path clip-path="url(#pdf7d1bd47e)" d="M 183.377903 214.757143 
L 188.375961 214.757143 
L 188.375961 214.757143 
L 183.377903 214.757143 
z
" style="fill:#97178f;"/>
   </g>
   <g id="patch_111">
    <path clip-path="url(#pdf7d1bd47e)" d="M 188.375961 214.757143 
L 193.374019 214.757143 
L 193.374019 214.757143 
L 188.375961 214.757143 
z
" style="fill:#97178f;"/>
   </g>
   <g id="matplotlib.axis_7">
    <g id="xtick_10">
     <g id="line2d_16">
      <g>
       <use style="stroke:#000000;stroke-width:0.8;" x="68.422572" xlink:href="#m0cd4af4504" y="214.757143"/>
      </g>
     </g>
    </g>
    <g id="xtick_11">
     <g id="line2d_17">
      <g>
       <use style="stroke:#000000;stroke-width:0.8;" x="130.898295" xlink:href="#m0cd4af4504" y="214.757143"/>
      </g>
     </g>
    </g>
    <g id="xtick_12">
     <g id="line2d_18">
      <g>
       <use style="stroke:#000000;stroke-width:0.8;" x="193.374019" xlink:href="#m0cd4af4504" y="214.757143"/>
      </g>
     </g>
    </g>
   </g>
   <g id="matplotlib.axis_8">
    <g id="ytick_7">
     <g id="line2d_19">
      <g>
       <use style="stroke:#000000;stroke-width:0.8;" x="62.175" xlink:href="#ma8b886098d" y="214.757143"/>
      </g>
     </g>
     <g id="text_8">
      <!-- 0 -->
      <g transform="translate(46.2675 220.076049)scale(0.14 -0.14)">
       <use xlink:href="#DejaVuSans-48"/>
      </g>
     </g>
    </g>
    <g id="ytick_8">
     <g id="line2d_20">
      <g>
       <use style="stroke:#000000;stroke-width:0.8;" x="62.175" xlink:href="#ma8b886098d" y="183.59684"/>
      </g>
     </g>
     <g id="text_9">
      <!-- 100 -->
      <g transform="translate(28.4525 188.915746)scale(0.14 -0.14)">
       <use xlink:href="#DejaVuSans-49"/>
       <use x="63.623047" xlink:href="#DejaVuSans-48"/>
       <use x="127.246094" xlink:href="#DejaVuSans-48"/>
      </g>
     </g>
    </g>
   </g>
   <g id="patch_112">
    <path d="M 62.175 214.757143 
L 62.175 183.020374 
" style="fill:none;stroke:#000000;stroke-linecap:square;stroke-linejoin:miter;stroke-width:0.8;"/>
   </g>
   <g id="patch_113">
    <path d="M 62.175 214.757143 
L 199.621591 214.757143 
" style="fill:none;stroke:#000000;stroke-linecap:square;stroke-linejoin:miter;stroke-width:0.8;"/>
   </g>
  </g>
  <g id="axes_5">
   <g id="patch_114">
    <path d="M 62.175 270.571429 
L 199.621591 270.571429 
L 199.621591 238.83466 
L 62.175 238.83466 
z
" style="fill:#ffffff;"/>
   </g>
   <g id="patch_115">
    <path clip-path="url(#p978d6b38dc)" d="M 68.422572 270.571429 
L 73.42063 270.571429 
L 73.42063 270.571429 
L 68.422572 270.571429 
z
" style="fill:#97178f;"/>
   </g>
   <g id="patch_116">
    <path clip-path="url(#p978d6b38dc)" d="M 73.42063 270.571429 
L 78.418688 270.571429 
L 78.418688 270.571429 
L 73.42063 270.571429 
z
" style="fill:#97178f;"/>
   </g>
   <g id="patch_117">
    <path clip-path="url(#p978d6b38dc)" d="M 78.418688 270.571429 
L 83.416746 270.571429 
L 83.416746 270.571429 
L 78.418688 270.571429 
z
" style="fill:#97178f;"/>
   </g>
   <g id="patch_118">
    <path clip-path="url(#p978d6b38dc)" d="M 83.416746 270.571429 
L 88.414804 270.571429 
L 88.414804 270.571429 
L 83.416746 270.571429 
z
" style="fill:#97178f;"/>
   </g>
   <g id="patch_119">
    <path clip-path="url(#p978d6b38dc)" d="M 88.414804 270.571429 
L 93.412862 270.571429 
L 93.412862 270.571429 
L 88.414804 270.571429 
z
" style="fill:#97178f;"/>
   </g>
   <g id="patch_120">
    <path clip-path="url(#p978d6b38dc)" d="M 93.412862 270.571429 
L 98.410919 270.571429 
L 98.410919 270.571429 
L 93.412862 270.571429 
z
" style="fill:#97178f;"/>
   </g>
   <g id="patch_121">
    <path clip-path="url(#p978d6b38dc)" d="M 98.410919 270.571429 
L 103.408977 270.571429 
L 103.408977 266.520589 
L 98.410919 266.520589 
z
" style="fill:#97178f;"/>
   </g>
   <g id="patch_122">
    <path clip-path="url(#p978d6b38dc)" d="M 103.408977 270.571429 
L 108.407035 270.571429 
L 108.407035 243.773568 
L 103.408977 243.773568 
z
" style="fill:#97178f;"/>
   </g>
   <g id="patch_123">
    <path clip-path="url(#p978d6b38dc)" d="M 108.407035 270.571429 
L 113.405093 270.571429 
L 113.405093 270.259826 
L 108.407035 270.259826 
z
" style="fill:#97178f;"/>
   </g>
   <g id="patch_124">
    <path clip-path="url(#p978d6b38dc)" d="M 113.405093 270.571429 
L 118.403151 270.571429 
L 118.403151 270.571429 
L 113.405093 270.571429 
z
" style="fill:#97178f;"/>
   </g>
   <g id="patch_125">
    <path clip-path="url(#p978d6b38dc)" d="M 118.403151 270.571429 
L 123.401209 270.571429 
L 123.401209 270.571429 
L 118.403151 270.571429 
z
" style="fill:#97178f;"/>
   </g>
   <g id="patch_126">
    <path clip-path="url(#p978d6b38dc)" d="M 123.401209 270.571429 
L 128.399267 270.571429 
L 128.399267 270.571429 
L 123.401209 270.571429 
z
" style="fill:#97178f;"/>
   </g>
   <g id="patch_127">
    <path clip-path="url(#p978d6b38dc)" d="M 128.399267 270.571429 
L 133.397324 270.571429 
L 133.397324 270.571429 
L 128.399267 270.571429 
z
" style="fill:#97178f;"/>
   </g>
   <g id="patch_128">
    <path clip-path="url(#p978d6b38dc)" d="M 133.397324 270.571429 
L 138.395382 270.571429 
L 138.395382 270.571429 
L 133.397324 270.571429 
z
" style="fill:#97178f;"/>
   </g>
   <g id="patch_129">
    <path clip-path="url(#p978d6b38dc)" d="M 138.395382 270.571429 
L 143.39344 270.571429 
L 143.39344 270.571429 
L 138.395382 270.571429 
z
" style="fill:#97178f;"/>
   </g>
   <g id="patch_130">
    <path clip-path="url(#p978d6b38dc)" d="M 143.39344 270.571429 
L 148.391498 270.571429 
L 148.391498 270.571429 
L 143.39344 270.571429 
z
" style="fill:#97178f;"/>
   </g>
   <g id="patch_131">
    <path clip-path="url(#p978d6b38dc)" d="M 148.391498 270.571429 
L 153.389556 270.571429 
L 153.389556 270.571429 
L 148.391498 270.571429 
z
" style="fill:#97178f;"/>
   </g>
   <g id="patch_132">
    <path clip-path="url(#p978d6b38dc)" d="M 153.389556 270.571429 
L 158.387614 270.571429 
L 158.387614 270.571429 
L 153.389556 270.571429 
z
" style="fill:#97178f;"/>
   </g>
   <g id="patch_133">
    <path clip-path="url(#p978d6b38dc)" d="M 158.387614 270.571429 
L 163.385671 270.571429 
L 163.385671 270.571429 
L 158.387614 270.571429 
z
" style="fill:#97178f;"/>
   </g>
   <g id="patch_134">
    <path clip-path="url(#p978d6b38dc)" d="M 163.385671 270.571429 
L 168.383729 270.571429 
L 168.383729 270.571429 
L 163.385671 270.571429 
z
" style="fill:#97178f;"/>
   </g>
   <g id="patch_135">
    <path clip-path="url(#p978d6b38dc)" d="M 168.383729 270.571429 
L 173.381787 270.571429 
L 173.381787 270.571429 
L 168.383729 270.571429 
z
" style="fill:#97178f;"/>
   </g>
   <g id="patch_136">
    <path clip-path="url(#p978d6b38dc)" d="M 173.381787 270.571429 
L 178.379845 270.571429 
L 178.379845 270.571429 
L 173.381787 270.571429 
z
" style="fill:#97178f;"/>
   </g>
   <g id="patch_137">
    <path clip-path="url(#p978d6b38dc)" d="M 178.379845 270.571429 
L 183.377903 270.571429 
L 183.377903 270.571429 
L 178.379845 270.571429 
z
" style="fill:#97178f;"/>
   </g>
   <g id="patch_138">
    <path clip-path="url(#p978d6b38dc)" d="M 183.377903 270.571429 
L 188.375961 270.571429 
L 188.375961 270.571429 
L 183.377903 270.571429 
z
" style="fill:#97178f;"/>
   </g>
   <g id="patch_139">
    <path clip-path="url(#p978d6b38dc)" d="M 188.375961 270.571429 
L 193.374019 270.571429 
L 193.374019 270.571429 
L 188.375961 270.571429 
z
" style="fill:#97178f;"/>
   </g>
   <g id="matplotlib.axis_9">
    <g id="xtick_13">
     <g id="line2d_21">
      <g>
       <use style="stroke:#000000;stroke-width:0.8;" x="68.422572" xlink:href="#m0cd4af4504" y="270.571429"/>
      </g>
     </g>
    </g>
    <g id="xtick_14">
     <g id="line2d_22">
      <g>
       <use style="stroke:#000000;stroke-width:0.8;" x="130.898295" xlink:href="#m0cd4af4504" y="270.571429"/>
      </g>
     </g>
    </g>
    <g id="xtick_15">
     <g id="line2d_23">
      <g>
       <use style="stroke:#000000;stroke-width:0.8;" x="193.374019" xlink:href="#m0cd4af4504" y="270.571429"/>
      </g>
     </g>
    </g>
   </g>
   <g id="matplotlib.axis_10">
    <g id="ytick_9">
     <g id="line2d_24">
      <g>
       <use style="stroke:#000000;stroke-width:0.8;" x="62.175" xlink:href="#ma8b886098d" y="270.571429"/>
      </g>
     </g>
     <g id="text_10">
      <!-- 0 -->
      <g transform="translate(46.2675 275.890335)scale(0.14 -0.14)">
       <use xlink:href="#DejaVuSans-48"/>
      </g>
     </g>
    </g>
    <g id="ytick_10">
     <g id="line2d_25">
      <g>
       <use style="stroke:#000000;stroke-width:0.8;" x="62.175" xlink:href="#ma8b886098d" y="239.411126"/>
      </g>
     </g>
     <g id="text_11">
      <!-- 100 -->
      <g transform="translate(28.4525 244.730032)scale(0.14 -0.14)">
       <use xlink:href="#DejaVuSans-49"/>
       <use x="63.623047" xlink:href="#DejaVuSans-48"/>
       <use x="127.246094" xlink:href="#DejaVuSans-48"/>
      </g>
     </g>
    </g>
   </g>
   <g id="patch_140">
    <path d="M 62.175 270.571429 
L 62.175 238.83466 
" style="fill:none;stroke:#000000;stroke-linecap:square;stroke-linejoin:miter;stroke-width:0.8;"/>
   </g>
   <g id="patch_141">
    <path d="M 62.175 270.571429 
L 199.621591 270.571429 
" style="fill:none;stroke:#000000;stroke-linecap:square;stroke-linejoin:miter;stroke-width:0.8;"/>
   </g>
  </g>
  <g id="axes_6">
   <g id="patch_142">
    <path d="M 62.175 326.385714 
L 199.621591 326.385714 
L 199.621591 294.648946 
L 62.175 294.648946 
z
" style="fill:#ffffff;"/>
   </g>
   <g id="patch_143">
    <path clip-path="url(#pf34f16ff9c)" d="M 68.422572 326.385714 
L 73.42063 326.385714 
L 73.42063 326.385714 
L 68.422572 326.385714 
z
" style="fill:#97178f;"/>
   </g>
   <g id="patch_144">
    <path clip-path="url(#pf34f16ff9c)" d="M 73.42063 326.385714 
L 78.418688 326.385714 
L 78.418688 326.385714 
L 73.42063 326.385714 
z
" style="fill:#97178f;"/>
   </g>
   <g id="patch_145">
    <path clip-path="url(#pf34f16ff9c)" d="M 78.418688 326.385714 
L 83.416746 326.385714 
L 83.416746 326.385714 
L 78.418688 326.385714 
z
" style="fill:#97178f;"/>
   </g>
   <g id="patch_146">
    <path clip-path="url(#pf34f16ff9c)" d="M 83.416746 326.385714 
L 88.414804 326.385714 
L 88.414804 326.385714 
L 83.416746 326.385714 
z
" style="fill:#97178f;"/>
   </g>
   <g id="patch_147">
    <path clip-path="url(#pf34f16ff9c)" d="M 88.414804 326.385714 
L 93.412862 326.385714 
L 93.412862 326.385714 
L 88.414804 326.385714 
z
" style="fill:#97178f;"/>
   </g>
   <g id="patch_148">
    <path clip-path="url(#pf34f16ff9c)" d="M 93.412862 326.385714 
L 98.410919 326.385714 
L 98.410919 326.385714 
L 93.412862 326.385714 
z
" style="fill:#97178f;"/>
   </g>
   <g id="patch_149">
    <path clip-path="url(#pf34f16ff9c)" d="M 98.410919 326.385714 
L 103.408977 326.385714 
L 103.408977 326.385714 
L 98.410919 326.385714 
z
" style="fill:#97178f;"/>
   </g>
   <g id="patch_150">
    <path clip-path="url(#pf34f16ff9c)" d="M 103.408977 326.385714 
L 108.407035 326.385714 
L 108.407035 298.029839 
L 103.408977 298.029839 
z
" style="fill:#97178f;"/>
   </g>
   <g id="patch_151">
    <path clip-path="url(#pf34f16ff9c)" d="M 108.407035 326.385714 
L 113.405093 326.385714 
L 113.405093 325.762508 
L 108.407035 325.762508 
z
" style="fill:#97178f;"/>
   </g>
   <g id="patch_152">
    <path clip-path="url(#pf34f16ff9c)" d="M 113.405093 326.385714 
L 118.403151 326.385714 
L 118.403151 326.385714 
L 113.405093 326.385714 
z
" style="fill:#97178f;"/>
   </g>
   <g id="patch_153">
    <path clip-path="url(#pf34f16ff9c)" d="M 118.403151 326.385714 
L 123.401209 326.385714 
L 123.401209 326.385714 
L 118.403151 326.385714 
z
" style="fill:#97178f;"/>
   </g>
   <g id="patch_154">
    <path clip-path="url(#pf34f16ff9c)" d="M 123.401209 326.385714 
L 128.399267 326.385714 
L 128.399267 326.385714 
L 123.401209 326.385714 
z
" style="fill:#97178f;"/>
   </g>
   <g id="patch_155">
    <path clip-path="url(#pf34f16ff9c)" d="M 128.399267 326.385714 
L 133.397324 326.385714 
L 133.397324 326.385714 
L 128.399267 326.385714 
z
" style="fill:#97178f;"/>
   </g>
   <g id="patch_156">
    <path clip-path="url(#pf34f16ff9c)" d="M 133.397324 326.385714 
L 138.395382 326.385714 
L 138.395382 326.385714 
L 133.397324 326.385714 
z
" style="fill:#97178f;"/>
   </g>
   <g id="patch_157">
    <path clip-path="url(#pf34f16ff9c)" d="M 138.395382 326.385714 
L 143.39344 326.385714 
L 143.39344 326.385714 
L 138.395382 326.385714 
z
" style="fill:#97178f;"/>
   </g>
   <g id="patch_158">
    <path clip-path="url(#pf34f16ff9c)" d="M 143.39344 326.385714 
L 148.391498 326.385714 
L 148.391498 326.385714 
L 143.39344 326.385714 
z
" style="fill:#97178f;"/>
   </g>
   <g id="patch_159">
    <path clip-path="url(#pf34f16ff9c)" d="M 148.391498 326.385714 
L 153.389556 326.385714 
L 153.389556 326.385714 
L 148.391498 326.385714 
z
" style="fill:#97178f;"/>
   </g>
   <g id="patch_160">
    <path clip-path="url(#pf34f16ff9c)" d="M 153.389556 326.385714 
L 158.387614 326.385714 
L 158.387614 326.385714 
L 153.389556 326.385714 
z
" style="fill:#97178f;"/>
   </g>
   <g id="patch_161">
    <path clip-path="url(#pf34f16ff9c)" d="M 158.387614 326.385714 
L 163.385671 326.385714 
L 163.385671 326.385714 
L 158.387614 326.385714 
z
" style="fill:#97178f;"/>
   </g>
   <g id="patch_162">
    <path clip-path="url(#pf34f16ff9c)" d="M 163.385671 326.385714 
L 168.383729 326.385714 
L 168.383729 326.385714 
L 163.385671 326.385714 
z
" style="fill:#97178f;"/>
   </g>
   <g id="patch_163">
    <path clip-path="url(#pf34f16ff9c)" d="M 168.383729 326.385714 
L 173.381787 326.385714 
L 173.381787 326.385714 
L 168.383729 326.385714 
z
" style="fill:#97178f;"/>
   </g>
   <g id="patch_164">
    <path clip-path="url(#pf34f16ff9c)" d="M 173.381787 326.385714 
L 178.379845 326.385714 
L 178.379845 324.204493 
L 173.381787 324.204493 
z
" style="fill:#97178f;"/>
   </g>
   <g id="patch_165">
    <path clip-path="url(#pf34f16ff9c)" d="M 178.379845 326.385714 
L 183.377903 326.385714 
L 183.377903 326.385714 
L 178.379845 326.385714 
z
" style="fill:#97178f;"/>
   </g>
   <g id="patch_166">
    <path clip-path="url(#pf34f16ff9c)" d="M 183.377903 326.385714 
L 188.375961 326.385714 
L 188.375961 326.385714 
L 183.377903 326.385714 
z
" style="fill:#97178f;"/>
   </g>
   <g id="patch_167">
    <path clip-path="url(#pf34f16ff9c)" d="M 188.375961 326.385714 
L 193.374019 326.385714 
L 193.374019 326.385714 
L 188.375961 326.385714 
z
" style="fill:#97178f;"/>
   </g>
   <g id="matplotlib.axis_11">
    <g id="xtick_16">
     <g id="line2d_26">
      <g>
       <use style="stroke:#000000;stroke-width:0.8;" x="68.422572" xlink:href="#m0cd4af4504" y="326.385714"/>
      </g>
     </g>
    </g>
    <g id="xtick_17">
     <g id="line2d_27">
      <g>
       <use style="stroke:#000000;stroke-width:0.8;" x="130.898295" xlink:href="#m0cd4af4504" y="326.385714"/>
      </g>
     </g>
    </g>
    <g id="xtick_18">
     <g id="line2d_28">
      <g>
       <use style="stroke:#000000;stroke-width:0.8;" x="193.374019" xlink:href="#m0cd4af4504" y="326.385714"/>
      </g>
     </g>
    </g>
   </g>
   <g id="matplotlib.axis_12">
    <g id="ytick_11">
     <g id="line2d_29">
      <g>
       <use style="stroke:#000000;stroke-width:0.8;" x="62.175" xlink:href="#ma8b886098d" y="326.385714"/>
      </g>
     </g>
     <g id="text_12">
      <!-- 0 -->
      <g transform="translate(46.2675 331.704621)scale(0.14 -0.14)">
       <use xlink:href="#DejaVuSans-48"/>
      </g>
     </g>
    </g>
    <g id="ytick_12">
     <g id="line2d_30">
      <g>
       <use style="stroke:#000000;stroke-width:0.8;" x="62.175" xlink:href="#ma8b886098d" y="295.225411"/>
      </g>
     </g>
     <g id="text_13">
      <!-- 100 -->
      <g transform="translate(28.4525 300.544318)scale(0.14 -0.14)">
       <use xlink:href="#DejaVuSans-49"/>
       <use x="63.623047" xlink:href="#DejaVuSans-48"/>
       <use x="127.246094" xlink:href="#DejaVuSans-48"/>
      </g>
     </g>
    </g>
   </g>
   <g id="patch_168">
    <path d="M 62.175 326.385714 
L 62.175 294.648946 
" style="fill:none;stroke:#000000;stroke-linecap:square;stroke-linejoin:miter;stroke-width:0.8;"/>
   </g>
   <g id="patch_169">
    <path d="M 62.175 326.385714 
L 199.621591 326.385714 
" style="fill:none;stroke:#000000;stroke-linecap:square;stroke-linejoin:miter;stroke-width:0.8;"/>
   </g>
  </g>
  <g id="axes_7">
   <g id="patch_170">
    <path d="M 62.175 382.2 
L 199.621591 382.2 
L 199.621591 350.463231 
L 62.175 350.463231 
z
" style="fill:#ffffff;"/>
   </g>
   <g id="patch_171">
    <path clip-path="url(#p88227cd2fa)" d="M 68.422572 382.2 
L 73.42063 382.2 
L 73.42063 382.2 
L 68.422572 382.2 
z
" style="fill:#97178f;"/>
   </g>
   <g id="patch_172">
    <path clip-path="url(#p88227cd2fa)" d="M 73.42063 382.2 
L 78.418688 382.2 
L 78.418688 382.2 
L 73.42063 382.2 
z
" style="fill:#97178f;"/>
   </g>
   <g id="patch_173">
    <path clip-path="url(#p88227cd2fa)" d="M 78.418688 382.2 
L 83.416746 382.2 
L 83.416746 382.2 
L 78.418688 382.2 
z
" style="fill:#97178f;"/>
   </g>
   <g id="patch_174">
    <path clip-path="url(#p88227cd2fa)" d="M 83.416746 382.2 
L 88.414804 382.2 
L 88.414804 382.2 
L 83.416746 382.2 
z
" style="fill:#97178f;"/>
   </g>
   <g id="patch_175">
    <path clip-path="url(#p88227cd2fa)" d="M 88.414804 382.2 
L 93.412862 382.2 
L 93.412862 382.2 
L 88.414804 382.2 
z
" style="fill:#97178f;"/>
   </g>
   <g id="patch_176">
    <path clip-path="url(#p88227cd2fa)" d="M 93.412862 382.2 
L 98.410919 382.2 
L 98.410919 382.2 
L 93.412862 382.2 
z
" style="fill:#97178f;"/>
   </g>
   <g id="patch_177">
    <path clip-path="url(#p88227cd2fa)" d="M 98.410919 382.2 
L 103.408977 382.2 
L 103.408977 382.2 
L 98.410919 382.2 
z
" style="fill:#97178f;"/>
   </g>
   <g id="patch_178">
    <path clip-path="url(#p88227cd2fa)" d="M 103.408977 382.2 
L 108.407035 382.2 
L 108.407035 373.163512 
L 103.408977 373.163512 
z
" style="fill:#97178f;"/>
   </g>
   <g id="patch_179">
    <path clip-path="url(#p88227cd2fa)" d="M 108.407035 382.2 
L 113.405093 382.2 
L 113.405093 382.2 
L 108.407035 382.2 
z
" style="fill:#97178f;"/>
   </g>
   <g id="patch_180">
    <path clip-path="url(#p88227cd2fa)" d="M 113.405093 382.2 
L 118.403151 382.2 
L 118.403151 382.2 
L 113.405093 382.2 
z
" style="fill:#97178f;"/>
   </g>
   <g id="patch_181">
    <path clip-path="url(#p88227cd2fa)" d="M 118.403151 382.2 
L 123.401209 382.2 
L 123.401209 382.2 
L 118.403151 382.2 
z
" style="fill:#97178f;"/>
   </g>
   <g id="patch_182">
    <path clip-path="url(#p88227cd2fa)" d="M 123.401209 382.2 
L 128.399267 382.2 
L 128.399267 382.2 
L 123.401209 382.2 
z
" style="fill:#97178f;"/>
   </g>
   <g id="patch_183">
    <path clip-path="url(#p88227cd2fa)" d="M 128.399267 382.2 
L 133.397324 382.2 
L 133.397324 382.2 
L 128.399267 382.2 
z
" style="fill:#97178f;"/>
   </g>
   <g id="patch_184">
    <path clip-path="url(#p88227cd2fa)" d="M 133.397324 382.2 
L 138.395382 382.2 
L 138.395382 382.2 
L 133.397324 382.2 
z
" style="fill:#97178f;"/>
   </g>
   <g id="patch_185">
    <path clip-path="url(#p88227cd2fa)" d="M 138.395382 382.2 
L 143.39344 382.2 
L 143.39344 382.2 
L 138.395382 382.2 
z
" style="fill:#97178f;"/>
   </g>
   <g id="patch_186">
    <path clip-path="url(#p88227cd2fa)" d="M 143.39344 382.2 
L 148.391498 382.2 
L 148.391498 382.2 
L 143.39344 382.2 
z
" style="fill:#97178f;"/>
   </g>
   <g id="patch_187">
    <path clip-path="url(#p88227cd2fa)" d="M 148.391498 382.2 
L 153.389556 382.2 
L 153.389556 382.2 
L 148.391498 382.2 
z
" style="fill:#97178f;"/>
   </g>
   <g id="patch_188">
    <path clip-path="url(#p88227cd2fa)" d="M 153.389556 382.2 
L 158.387614 382.2 
L 158.387614 382.2 
L 153.389556 382.2 
z
" style="fill:#97178f;"/>
   </g>
   <g id="patch_189">
    <path clip-path="url(#p88227cd2fa)" d="M 158.387614 382.2 
L 163.385671 382.2 
L 163.385671 382.2 
L 158.387614 382.2 
z
" style="fill:#97178f;"/>
   </g>
   <g id="patch_190">
    <path clip-path="url(#p88227cd2fa)" d="M 163.385671 382.2 
L 168.383729 382.2 
L 168.383729 382.2 
L 163.385671 382.2 
z
" style="fill:#97178f;"/>
   </g>
   <g id="patch_191">
    <path clip-path="url(#p88227cd2fa)" d="M 168.383729 382.2 
L 173.381787 382.2 
L 173.381787 374.409924 
L 168.383729 374.409924 
z
" style="fill:#97178f;"/>
   </g>
   <g id="patch_192">
    <path clip-path="url(#p88227cd2fa)" d="M 173.381787 382.2 
L 178.379845 382.2 
L 178.379845 367.866261 
L 173.381787 367.866261 
z
" style="fill:#97178f;"/>
   </g>
   <g id="patch_193">
    <path clip-path="url(#p88227cd2fa)" d="M 178.379845 382.2 
L 183.377903 382.2 
L 183.377903 382.2 
L 178.379845 382.2 
z
" style="fill:#97178f;"/>
   </g>
   <g id="patch_194">
    <path clip-path="url(#p88227cd2fa)" d="M 183.377903 382.2 
L 188.375961 382.2 
L 188.375961 382.2 
L 183.377903 382.2 
z
" style="fill:#97178f;"/>
   </g>
   <g id="patch_195">
    <path clip-path="url(#p88227cd2fa)" d="M 188.375961 382.2 
L 193.374019 382.2 
L 193.374019 382.2 
L 188.375961 382.2 
z
" style="fill:#97178f;"/>
   </g>
   <g id="matplotlib.axis_13">
    <g id="xtick_19">
     <g id="line2d_31">
      <g>
       <use style="stroke:#000000;stroke-width:0.8;" x="68.422572" xlink:href="#m0cd4af4504" y="382.2"/>
      </g>
     </g>
     <g id="text_14">
      <!-- 0 -->
      <g transform="translate(63.968822 399.837813)scale(0.14 -0.14)">
       <use xlink:href="#DejaVuSans-48"/>
      </g>
     </g>
    </g>
    <g id="xtick_20">
     <g id="line2d_32">
      <g>
       <use style="stroke:#000000;stroke-width:0.8;" x="130.898295" xlink:href="#m0cd4af4504" y="382.2"/>
      </g>
     </g>
     <g id="text_15">
      <!-- 50 -->
      <defs>
       <path d="M 10.796875 72.90625 
L 49.515625 72.90625 
L 49.515625 64.59375 
L 19.828125 64.59375 
L 19.828125 46.734375 
Q 21.96875 47.46875 24.109375 47.828125 
Q 26.265625 48.1875 28.421875 48.1875 
Q 40.625 48.1875 47.75 41.5 
Q 54.890625 34.8125 54.890625 23.390625 
Q 54.890625 11.625 47.5625 5.09375 
Q 40.234375 -1.421875 26.90625 -1.421875 
Q 22.3125 -1.421875 17.546875 -0.640625 
Q 12.796875 0.140625 7.71875 1.703125 
L 7.71875 11.625 
Q 12.109375 9.234375 16.796875 8.0625 
Q 21.484375 6.890625 26.703125 6.890625 
Q 35.15625 6.890625 40.078125 11.328125 
Q 45.015625 15.765625 45.015625 23.390625 
Q 45.015625 31 40.078125 35.4375 
Q 35.15625 39.890625 26.703125 39.890625 
Q 22.75 39.890625 18.8125 39.015625 
Q 14.890625 38.140625 10.796875 36.28125 
z
" id="DejaVuSans-53"/>
      </defs>
      <g transform="translate(121.990795 399.837813)scale(0.14 -0.14)">
       <use xlink:href="#DejaVuSans-53"/>
       <use x="63.623047" xlink:href="#DejaVuSans-48"/>
      </g>
     </g>
    </g>
    <g id="xtick_21">
     <g id="line2d_33">
      <g>
       <use style="stroke:#000000;stroke-width:0.8;" x="193.374019" xlink:href="#m0cd4af4504" y="382.2"/>
      </g>
     </g>
     <g id="text_16">
      <!-- 100 -->
      <g transform="translate(180.012769 399.837813)scale(0.14 -0.14)">
       <use xlink:href="#DejaVuSans-49"/>
       <use x="63.623047" xlink:href="#DejaVuSans-48"/>
       <use x="127.246094" xlink:href="#DejaVuSans-48"/>
      </g>
     </g>
    </g>
    <g id="text_17">
     <!-- Duration (ms) -->
     <defs>
      <path d="M 19.671875 64.796875 
L 19.671875 8.109375 
L 31.59375 8.109375 
Q 46.6875 8.109375 53.6875 14.9375 
Q 60.6875 21.78125 60.6875 36.53125 
Q 60.6875 51.171875 53.6875 57.984375 
Q 46.6875 64.796875 31.59375 64.796875 
z
M 9.8125 72.90625 
L 30.078125 72.90625 
Q 51.265625 72.90625 61.171875 64.09375 
Q 71.09375 55.28125 71.09375 36.53125 
Q 71.09375 17.671875 61.125 8.828125 
Q 51.171875 0 30.078125 0 
L 9.8125 0 
z
" id="DejaVuSans-68"/>
      <path d="M 41.109375 46.296875 
Q 39.59375 47.171875 37.8125 47.578125 
Q 36.03125 48 33.890625 48 
Q 26.265625 48 22.1875 43.046875 
Q 18.109375 38.09375 18.109375 28.8125 
L 18.109375 0 
L 9.078125 0 
L 9.078125 54.6875 
L 18.109375 54.6875 
L 18.109375 46.1875 
Q 20.953125 51.171875 25.484375 53.578125 
Q 30.03125 56 36.53125 56 
Q 37.453125 56 38.578125 55.875 
Q 39.703125 55.765625 41.0625 55.515625 
z
" id="DejaVuSans-114"/>
      <path d="M 34.28125 27.484375 
Q 23.390625 27.484375 19.1875 25 
Q 14.984375 22.515625 14.984375 16.5 
Q 14.984375 11.71875 18.140625 8.90625 
Q 21.296875 6.109375 26.703125 6.109375 
Q 34.1875 6.109375 38.703125 11.40625 
Q 43.21875 16.703125 43.21875 25.484375 
L 43.21875 27.484375 
z
M 52.203125 31.203125 
L 52.203125 0 
L 43.21875 0 
L 43.21875 8.296875 
Q 40.140625 3.328125 35.546875 0.953125 
Q 30.953125 -1.421875 24.3125 -1.421875 
Q 15.921875 -1.421875 10.953125 3.296875 
Q 6 8.015625 6 15.921875 
Q 6 25.140625 12.171875 29.828125 
Q 18.359375 34.515625 30.609375 34.515625 
L 43.21875 34.515625 
L 43.21875 35.40625 
Q 43.21875 41.609375 39.140625 45 
Q 35.0625 48.390625 27.6875 48.390625 
Q 23 48.390625 18.546875 47.265625 
Q 14.109375 46.140625 10.015625 43.890625 
L 10.015625 52.203125 
Q 14.9375 54.109375 19.578125 55.046875 
Q 24.21875 56 28.609375 56 
Q 40.484375 56 46.34375 49.84375 
Q 52.203125 43.703125 52.203125 31.203125 
z
" id="DejaVuSans-97"/>
      <path d="M 9.421875 54.6875 
L 18.40625 54.6875 
L 18.40625 0 
L 9.421875 0 
z
M 9.421875 75.984375 
L 18.40625 75.984375 
L 18.40625 64.59375 
L 9.421875 64.59375 
z
" id="DejaVuSans-105"/>
      <path id="DejaVuSans-32"/>
      <path d="M 31 75.875 
Q 24.46875 64.65625 21.28125 53.65625 
Q 18.109375 42.671875 18.109375 31.390625 
Q 18.109375 20.125 21.3125 9.0625 
Q 24.515625 -2 31 -13.1875 
L 23.1875 -13.1875 
Q 15.875 -1.703125 12.234375 9.375 
Q 8.59375 20.453125 8.59375 31.390625 
Q 8.59375 42.28125 12.203125 53.3125 
Q 15.828125 64.359375 23.1875 75.875 
z
" id="DejaVuSans-40"/>
      <path d="M 52 44.1875 
Q 55.375 50.25 60.0625 53.125 
Q 64.75 56 71.09375 56 
Q 79.640625 56 84.28125 50.015625 
Q 88.921875 44.046875 88.921875 33.015625 
L 88.921875 0 
L 79.890625 0 
L 79.890625 32.71875 
Q 79.890625 40.578125 77.09375 44.375 
Q 74.3125 48.1875 68.609375 48.1875 
Q 61.625 48.1875 57.5625 43.546875 
Q 53.515625 38.921875 53.515625 30.90625 
L 53.515625 0 
L 44.484375 0 
L 44.484375 32.71875 
Q 44.484375 40.625 41.703125 44.40625 
Q 38.921875 48.1875 33.109375 48.1875 
Q 26.21875 48.1875 22.15625 43.53125 
Q 18.109375 38.875 18.109375 30.90625 
L 18.109375 0 
L 9.078125 0 
L 9.078125 54.6875 
L 18.109375 54.6875 
L 18.109375 46.1875 
Q 21.1875 51.21875 25.484375 53.609375 
Q 29.78125 56 35.6875 56 
Q 41.65625 56 45.828125 52.96875 
Q 50 49.953125 52 44.1875 
z
" id="DejaVuSans-109"/>
      <path d="M 8.015625 75.875 
L 15.828125 75.875 
Q 23.140625 64.359375 26.78125 53.3125 
Q 30.421875 42.28125 30.421875 31.390625 
Q 30.421875 20.453125 26.78125 9.375 
Q 23.140625 -1.703125 15.828125 -13.1875 
L 8.015625 -13.1875 
Q 14.5 -2 17.703125 9.0625 
Q 20.90625 20.125 20.90625 31.390625 
Q 20.90625 42.671875 17.703125 53.65625 
Q 14.5 64.65625 8.015625 75.875 
z
" id="DejaVuSans-41"/>
     </defs>
     <g transform="translate(82.344545 417.387188)scale(0.14 -0.14)">
      <use xlink:href="#DejaVuSans-68"/>
      <use x="77.001953" xlink:href="#DejaVuSans-117"/>
      <use x="140.380859" xlink:href="#DejaVuSans-114"/>
      <use x="181.494141" xlink:href="#DejaVuSans-97"/>
      <use x="242.773438" xlink:href="#DejaVuSans-116"/>
      <use x="281.982422" xlink:href="#DejaVuSans-105"/>
      <use x="309.765625" xlink:href="#DejaVuSans-111"/>
      <use x="370.947266" xlink:href="#DejaVuSans-110"/>
      <use x="434.326172" xlink:href="#DejaVuSans-32"/>
      <use x="466.113281" xlink:href="#DejaVuSans-40"/>
      <use x="505.126953" xlink:href="#DejaVuSans-109"/>
      <use x="602.539062" xlink:href="#DejaVuSans-115"/>
      <use x="654.638672" xlink:href="#DejaVuSans-41"/>
     </g>
    </g>
   </g>
   <g id="matplotlib.axis_14">
    <g id="ytick_13">
     <g id="line2d_34">
      <g>
       <use style="stroke:#000000;stroke-width:0.8;" x="62.175" xlink:href="#ma8b886098d" y="382.2"/>
      </g>
     </g>
     <g id="text_18">
      <!-- 0 -->
      <g transform="translate(46.2675 387.518906)scale(0.14 -0.14)">
       <use xlink:href="#DejaVuSans-48"/>
      </g>
     </g>
    </g>
    <g id="ytick_14">
     <g id="line2d_35">
      <g>
       <use style="stroke:#000000;stroke-width:0.8;" x="62.175" xlink:href="#ma8b886098d" y="351.039697"/>
      </g>
     </g>
     <g id="text_19">
      <!-- 100 -->
      <g transform="translate(28.4525 356.358603)scale(0.14 -0.14)">
       <use xlink:href="#DejaVuSans-49"/>
       <use x="63.623047" xlink:href="#DejaVuSans-48"/>
       <use x="127.246094" xlink:href="#DejaVuSans-48"/>
      </g>
     </g>
    </g>
   </g>
   <g id="patch_196">
    <path d="M 62.175 382.2 
L 62.175 350.463231 
" style="fill:none;stroke:#000000;stroke-linecap:square;stroke-linejoin:miter;stroke-width:0.8;"/>
   </g>
   <g id="patch_197">
    <path d="M 62.175 382.2 
L 199.621591 382.2 
" style="fill:none;stroke:#000000;stroke-linecap:square;stroke-linejoin:miter;stroke-width:0.8;"/>
   </g>
  </g>
 </g>
 <defs>
  <clipPath id="p560663cc8a">
   <rect height="31.736769" width="137.446591" x="62.175" y="15.577517"/>
  </clipPath>
  <clipPath id="p6b683597e9">
   <rect height="31.736769" width="137.446591" x="62.175" y="71.391803"/>
  </clipPath>
  <clipPath id="p6494ab4e92">
   <rect height="31.736769" width="137.446591" x="62.175" y="127.206089"/>
  </clipPath>
  <clipPath id="pdf7d1bd47e">
   <rect height="31.736769" width="137.446591" x="62.175" y="183.020374"/>
  </clipPath>
  <clipPath id="p978d6b38dc">
   <rect height="31.736769" width="137.446591" x="62.175" y="238.83466"/>
  </clipPath>
  <clipPath id="pf34f16ff9c">
   <rect height="31.736769" width="137.446591" x="62.175" y="294.648946"/>
  </clipPath>
  <clipPath id="p88227cd2fa">
   <rect height="31.736769" width="137.446591" x="62.175" y="350.463231"/>
  </clipPath>
 </defs>
</svg>
