<?xml version="1.0" encoding="utf-8" standalone="no"?>
<!DOCTYPE svg PUBLIC "-//W3C//DTD SVG 1.1//EN"
  "http://www.w3.org/Graphics/SVG/1.1/DTD/svg11.dtd">
<!-- Created with matplotlib (https://matplotlib.org/) -->
<svg height="270pt" version="1.1" viewBox="0 0 648 270" width="648pt" xmlns="http://www.w3.org/2000/svg" xmlns:xlink="http://www.w3.org/1999/xlink">
 <defs>
  <style type="text/css">
*{stroke-linecap:butt;stroke-linejoin:round;}
  </style>
 </defs>
 <g id="figure_1">
  <g id="patch_1">
   <path d="M 0 270 
L 648 270 
L 648 0 
L 0 0 
z
" style="fill:#ffffff;"/>
  </g>
  <g id="axes_1">
   <g id="patch_2">
    <path d="M 62.3 218.2 
L 318.6 218.2 
L 318.6 10.8 
L 62.3 10.8 
z
" style="fill:#ffffff;"/>
   </g>
   <g id="PolyCollection_1">
    <defs>
     <path d="M 62.3 -206.487707 
L 62.3 -202.618011 
L 68.402381 -205.807219 
L 74.504762 -202.755495 
L 80.607143 -207.435778 
L 86.709524 -89.402064 
L 92.811905 -159.007365 
L 98.914286 -160.646295 
L 105.016667 -165.747087 
L 111.119048 -175.217853 
L 117.221429 -192.190017 
L 123.32381 -200.329353 
L 129.42619 -207.571405 
L 135.528571 -224.330607 
L 141.630952 -228.640195 
L 147.733333 -219.866277 
L 153.835714 -222.63141 
L 159.938095 -215.079496 
L 166.040476 -224.163794 
L 172.142857 -222.572241 
L 178.245238 -221.539809 
L 184.347619 -218.690772 
L 190.45 -231.164992 
L 196.552381 -224.705498 
L 202.654762 -222.894117 
L 208.757143 -235.386801 
L 214.859524 -230.918962 
L 220.961905 -217.590293 
L 227.064286 -228.931648 
L 233.166667 -225.689856 
L 239.269048 -231.606132 
L 245.371429 -228.7813 
L 251.47381 -220.771263 
L 257.57619 -234.312807 
L 263.678571 -225.717007 
L 269.780952 -226.858211 
L 275.883333 -230.500152 
L 281.985714 -230.493543 
L 288.088095 -229.365113 
L 294.190476 -239.568567 
L 300.292857 -229.046356 
L 306.395238 -227.2192 
L 312.497619 -233.507224 
L 318.6 -227.956239 
L 318.6 -240.07049 
L 318.6 -240.07049 
L 312.497619 -244.401437 
L 306.395238 -238.467722 
L 300.292857 -239.219797 
L 294.190476 -249.772727 
L 288.088095 -239.443956 
L 281.985714 -242.404767 
L 275.883333 -238.957117 
L 269.780952 -235.994049 
L 263.678571 -239.024065 
L 257.57619 -243.950284 
L 251.47381 -230.781206 
L 245.371429 -241.314161 
L 239.269048 -244.06846 
L 233.166667 -235.185808 
L 227.064286 -241.720709 
L 220.961905 -235.219874 
L 214.859524 -241.131702 
L 208.757143 -245.606224 
L 202.654762 -232.137017 
L 196.552381 -236.57159 
L 190.45 -242.13116 
L 184.347619 -228.010716 
L 178.245238 -232.874924 
L 172.142857 -232.582749 
L 166.040476 -233.232569 
L 159.938095 -228.489453 
L 153.835714 -236.067726 
L 147.733333 -228.037796 
L 141.630952 -240.148757 
L 135.528571 -233.73647 
L 129.42619 -216.322337 
L 123.32381 -210.386645 
L 117.221429 -202.44271 
L 111.119048 -185.512085 
L 105.016667 -171.670423 
L 98.914286 -167.352233 
L 92.811905 -165.834729 
L 86.709524 -95.274235 
L 80.607143 -207.435778 
L 74.504762 -206.89754 
L 68.402381 -208.647525 
L 62.3 -206.487707 
z
" id="m85ccf6b1d9" style="stroke:#ee82ee;stroke-opacity:0.2;"/>
    </defs>
    <g clip-path="url(#p749683f16f)">
     <use style="fill:#ee82ee;fill-opacity:0.2;stroke:#ee82ee;stroke-opacity:0.2;" x="0" xlink:href="#m85ccf6b1d9" y="270"/>
    </g>
   </g>
   <g id="PolyCollection_2">
    <defs>
     <path d="M 62.3 -206.57834 
L 62.3 -202.885586 
L 68.402381 -205.203256 
L 74.504762 -202.76002 
L 80.607143 -207.435778 
L 86.709524 -70.869463 
L 92.811905 -144.937464 
L 98.914286 -145.86458 
L 105.016667 -153.706138 
L 111.119048 -151.221396 
L 117.221429 -158.084612 
L 123.32381 -168.060693 
L 129.42619 -175.315313 
L 135.528571 -176.132122 
L 141.630952 -187.045632 
L 147.733333 -188.473653 
L 153.835714 -190.488641 
L 159.938095 -191.356195 
L 166.040476 -194.295412 
L 172.142857 -199.679965 
L 178.245238 -195.881959 
L 184.347619 -197.495957 
L 190.45 -195.958329 
L 196.552381 -195.918872 
L 202.654762 -199.279606 
L 208.757143 -196.205406 
L 214.859524 -201.805518 
L 220.961905 -196.518419 
L 227.064286 -193.881289 
L 233.166667 -201.656231 
L 239.269048 -191.856091 
L 245.371429 -197.176201 
L 251.47381 -190.274868 
L 257.57619 -200.517659 
L 263.678571 -200.325104 
L 269.780952 -191.900261 
L 275.883333 -203.416512 
L 281.985714 -199.55656 
L 288.088095 -196.476861 
L 294.190476 -204.928018 
L 300.292857 -198.73084 
L 306.395238 -200.31002 
L 312.497619 -202.295605 
L 318.6 -200.765368 
L 318.6 -208.017596 
L 318.6 -208.017596 
L 312.497619 -207.703192 
L 306.395238 -209.329847 
L 300.292857 -206.240378 
L 294.190476 -213.93315 
L 288.088095 -208.806669 
L 281.985714 -206.905568 
L 275.883333 -211.321536 
L 269.780952 -201.621311 
L 263.678571 -209.126581 
L 257.57619 -208.852021 
L 251.47381 -199.603883 
L 245.371429 -207.543253 
L 239.269048 -196.999765 
L 233.166667 -211.030923 
L 227.064286 -202.672056 
L 220.961905 -205.264853 
L 214.859524 -210.587159 
L 208.757143 -205.766431 
L 202.654762 -207.44215 
L 196.552381 -206.087913 
L 190.45 -203.687118 
L 184.347619 -205.007514 
L 178.245238 -206.920028 
L 172.142857 -204.723914 
L 166.040476 -203.209457 
L 159.938095 -199.749043 
L 153.835714 -199.68619 
L 147.733333 -198.683659 
L 141.630952 -195.289949 
L 135.528571 -184.047686 
L 129.42619 -185.047254 
L 123.32381 -175.821702 
L 117.221429 -164.513108 
L 111.119048 -158.664001 
L 105.016667 -157.421446 
L 98.914286 -151.489906 
L 92.811905 -149.380586 
L 86.709524 -73.606142 
L 80.607143 -207.435778 
L 74.504762 -206.699482 
L 68.402381 -208.118701 
L 62.3 -206.57834 
z
" id="mdec2f7279c" style="stroke:#da70d6;stroke-opacity:0.2;"/>
    </defs>
    <g clip-path="url(#p749683f16f)">
     <use style="fill:#da70d6;fill-opacity:0.2;stroke:#da70d6;stroke-opacity:0.2;" x="0" xlink:href="#mdec2f7279c" y="270"/>
    </g>
   </g>
   <g id="PolyCollection_3">
    <defs>
     <path d="M 62.3 -206.57834 
L 62.3 -202.885586 
L 68.402381 -205.203256 
L 74.504762 -202.76002 
L 80.607143 -207.435778 
L 86.709524 -61.227273 
L 92.811905 -90.114524 
L 98.914286 -116.704615 
L 105.016667 -121.156019 
L 111.119048 -120.772644 
L 117.221429 -120.706102 
L 123.32381 -126.864507 
L 129.42619 -128.617167 
L 135.528571 -131.036574 
L 141.630952 -131.565364 
L 147.733333 -134.021846 
L 153.835714 -135.749469 
L 159.938095 -138.26368 
L 166.040476 -140.402538 
L 172.142857 -139.617898 
L 178.245238 -142.06743 
L 184.347619 -144.564333 
L 190.45 -148.875483 
L 196.552381 -146.800206 
L 202.654762 -148.290689 
L 208.757143 -146.475641 
L 214.859524 -149.679198 
L 220.961905 -145.497272 
L 227.064286 -147.180284 
L 233.166667 -147.447561 
L 239.269048 -149.759195 
L 245.371429 -148.079813 
L 251.47381 -150.042331 
L 257.57619 -148.33292 
L 263.678571 -148.374811 
L 269.780952 -154.682387 
L 275.883333 -150.891899 
L 281.985714 -150.021035 
L 288.088095 -147.886327 
L 294.190476 -148.408065 
L 300.292857 -148.083538 
L 306.395238 -151.433089 
L 312.497619 -147.415796 
L 318.6 -151.390966 
L 318.6 -156.905593 
L 318.6 -156.905593 
L 312.497619 -153.373264 
L 306.395238 -156.390106 
L 300.292857 -156.594795 
L 294.190476 -153.752508 
L 288.088095 -151.545904 
L 281.985714 -154.5537 
L 275.883333 -156.113164 
L 269.780952 -159.581806 
L 263.678571 -154.215041 
L 257.57619 -155.989879 
L 251.47381 -154.68105 
L 245.371429 -152.731962 
L 239.269048 -154.920573 
L 233.166667 -152.338825 
L 227.064286 -151.665503 
L 220.961905 -150.825082 
L 214.859524 -154.114357 
L 208.757143 -149.623664 
L 202.654762 -152.824961 
L 196.552381 -149.942018 
L 190.45 -153.857678 
L 184.347619 -149.147637 
L 178.245238 -147.679579 
L 172.142857 -144.243838 
L 166.040476 -146.906584 
L 159.938095 -142.532249 
L 153.835714 -141.790887 
L 147.733333 -140.085973 
L 141.630952 -137.001438 
L 135.528571 -136.302134 
L 129.42619 -132.834826 
L 123.32381 -131.343097 
L 117.221429 -124.349243 
L 111.119048 -124.652992 
L 105.016667 -124.921 
L 98.914286 -119.764147 
L 92.811905 -97.417896 
L 86.709524 -62.964442 
L 80.607143 -207.435778 
L 74.504762 -206.699482 
L 68.402381 -208.118701 
L 62.3 -206.57834 
z
" id="m1c72d3f11f" style="stroke:#97178f;stroke-opacity:0.2;"/>
    </defs>
    <g clip-path="url(#p749683f16f)">
     <use style="fill:#97178f;fill-opacity:0.2;stroke:#97178f;stroke-opacity:0.2;" x="0" xlink:href="#m1c72d3f11f" y="270"/>
    </g>
   </g>
   <g id="line2d_1">
    <path clip-path="url(#p749683f16f)" d="M 62.3 65.447141 
L 68.402381 62.772628 
L 74.504762 65.173483 
L 80.607143 62.564222 
L 86.709524 177.66185 
L 92.811905 107.578953 
L 98.914286 106.000736 
L 105.016667 101.291245 
L 111.119048 89.635031 
L 117.221429 72.683637 
L 123.32381 64.642001 
L 129.42619 58.053129 
L 135.528571 40.966461 
L 141.630952 35.605524 
L 147.733333 46.047964 
L 153.835714 40.650432 
L 159.938095 48.215526 
L 166.040476 41.301819 
L 172.142857 42.422505 
L 178.245238 42.792633 
L 184.347619 46.649256 
L 190.45 33.351924 
L 196.552381 39.361456 
L 202.654762 42.484433 
L 208.757143 29.503488 
L 214.859524 33.974668 
L 220.961905 43.594916 
L 227.064286 34.673821 
L 233.166667 39.562168 
L 239.269048 32.162704 
L 245.371429 34.95227 
L 251.47381 44.223766 
L 257.57619 30.868454 
L 263.678571 37.629464 
L 269.780952 38.57387 
L 275.883333 35.271365 
L 281.985714 33.550845 
L 288.088095 35.595466 
L 294.190476 25.329353 
L 300.292857 35.866924 
L 306.395238 37.156539 
L 312.497619 31.045669 
L 318.6 35.986636 
" style="fill:none;stroke:#ee82ee;stroke-linecap:square;stroke-width:1.5;"/>
   </g>
   <g id="line2d_2">
    <path clip-path="url(#p749683f16f)" d="M 62.3 65.268037 
L 68.402381 63.339021 
L 74.504762 65.270249 
L 80.607143 62.564222 
L 86.709524 197.762197 
L 92.811905 122.840975 
L 98.914286 121.322757 
L 105.016667 114.436208 
L 111.119048 115.057302 
L 117.221429 108.70114 
L 123.32381 98.058802 
L 129.42619 89.818717 
L 135.528571 89.910096 
L 141.630952 78.832209 
L 147.733333 76.421344 
L 153.835714 74.912585 
L 159.938095 74.447381 
L 166.040476 71.247565 
L 172.142857 67.798061 
L 178.245238 68.599006 
L 184.347619 68.748264 
L 190.45 70.177276 
L 196.552381 68.996607 
L 202.654762 66.639122 
L 208.757143 69.014081 
L 214.859524 63.803661 
L 220.961905 69.108364 
L 227.064286 71.723327 
L 233.166667 63.656423 
L 239.269048 75.572072 
L 245.371429 67.640273 
L 251.47381 75.060624 
L 257.57619 65.31516 
L 263.678571 65.274158 
L 269.780952 73.239214 
L 275.883333 62.630976 
L 281.985714 66.768936 
L 288.088095 67.358235 
L 294.190476 60.569416 
L 300.292857 67.514391 
L 306.395238 65.180067 
L 312.497619 65.000602 
L 318.6 65.608518 
" style="fill:none;stroke:#da70d6;stroke-linecap:square;stroke-width:1.5;"/>
   </g>
   <g id="line2d_3">
    <path clip-path="url(#p749683f16f)" d="M 62.3 65.268037 
L 68.402381 63.339021 
L 74.504762 65.270249 
L 80.607143 62.564222 
L 86.709524 207.904143 
L 92.811905 176.23379 
L 98.914286 151.765619 
L 105.016667 146.96149 
L 111.119048 147.287182 
L 117.221429 147.472328 
L 123.32381 140.896198 
L 129.42619 139.274003 
L 135.528571 136.330646 
L 141.630952 135.716599 
L 147.733333 132.946091 
L 153.835714 131.229822 
L 159.938095 129.602036 
L 166.040476 126.345439 
L 172.142857 128.069132 
L 178.245238 125.126496 
L 184.347619 123.144015 
L 190.45 118.633419 
L 196.552381 121.628888 
L 202.654762 119.442175 
L 208.757143 121.950348 
L 214.859524 118.103222 
L 220.961905 121.838823 
L 227.064286 120.577106 
L 233.166667 120.106807 
L 239.269048 117.660116 
L 245.371429 119.594112 
L 251.47381 117.63831 
L 257.57619 117.838601 
L 263.678571 118.705074 
L 269.780952 112.867904 
L 275.883333 116.497468 
L 281.985714 117.712632 
L 288.088095 120.283885 
L 294.190476 118.919714 
L 300.292857 117.660833 
L 306.395238 116.088402 
L 312.497619 119.60547 
L 318.6 115.85172 
" style="fill:none;stroke:#97178f;stroke-linecap:square;stroke-width:1.5;"/>
   </g>
   <g id="matplotlib.axis_1">
    <g id="xtick_1">
     <g id="line2d_4">
      <defs>
       <path d="M 0 0 
L 0 3.5 
" id="mc4df35eaa0" style="stroke:#000000;stroke-width:0.8;"/>
      </defs>
      <g>
       <use style="stroke:#000000;stroke-width:0.8;" x="86.709524" xlink:href="#mc4df35eaa0" y="218.2"/>
      </g>
     </g>
     <g id="text_1">
      <!-- 1000 -->
      <defs>
       <path d="M 12.40625 8.296875 
L 28.515625 8.296875 
L 28.515625 63.921875 
L 10.984375 60.40625 
L 10.984375 69.390625 
L 28.421875 72.90625 
L 38.28125 72.90625 
L 38.28125 8.296875 
L 54.390625 8.296875 
L 54.390625 0 
L 12.40625 0 
z
" id="DejaVuSans-49"/>
       <path d="M 31.78125 66.40625 
Q 24.171875 66.40625 20.328125 58.90625 
Q 16.5 51.421875 16.5 36.375 
Q 16.5 21.390625 20.328125 13.890625 
Q 24.171875 6.390625 31.78125 6.390625 
Q 39.453125 6.390625 43.28125 13.890625 
Q 47.125 21.390625 47.125 36.375 
Q 47.125 51.421875 43.28125 58.90625 
Q 39.453125 66.40625 31.78125 66.40625 
z
M 31.78125 74.21875 
Q 44.046875 74.21875 50.515625 64.515625 
Q 56.984375 54.828125 56.984375 36.375 
Q 56.984375 17.96875 50.515625 8.265625 
Q 44.046875 -1.421875 31.78125 -1.421875 
Q 19.53125 -1.421875 13.0625 8.265625 
Q 6.59375 17.96875 6.59375 36.375 
Q 6.59375 54.828125 13.0625 64.515625 
Q 19.53125 74.21875 31.78125 74.21875 
z
" id="DejaVuSans-48"/>
      </defs>
      <g transform="translate(66.349524 237.3575)scale(0.16 -0.16)">
       <use xlink:href="#DejaVuSans-49"/>
       <use x="63.623047" xlink:href="#DejaVuSans-48"/>
       <use x="127.246094" xlink:href="#DejaVuSans-48"/>
       <use x="190.869141" xlink:href="#DejaVuSans-48"/>
      </g>
     </g>
    </g>
    <g id="xtick_2">
     <g id="line2d_5">
      <g>
       <use style="stroke:#000000;stroke-width:0.8;" x="147.733333" xlink:href="#mc4df35eaa0" y="218.2"/>
      </g>
     </g>
     <g id="text_2">
      <!-- 2000 -->
      <defs>
       <path d="M 19.1875 8.296875 
L 53.609375 8.296875 
L 53.609375 0 
L 7.328125 0 
L 7.328125 8.296875 
Q 12.9375 14.109375 22.625 23.890625 
Q 32.328125 33.6875 34.8125 36.53125 
Q 39.546875 41.84375 41.421875 45.53125 
Q 43.3125 49.21875 43.3125 52.78125 
Q 43.3125 58.59375 39.234375 62.25 
Q 35.15625 65.921875 28.609375 65.921875 
Q 23.96875 65.921875 18.8125 64.3125 
Q 13.671875 62.703125 7.8125 59.421875 
L 7.8125 69.390625 
Q 13.765625 71.78125 18.9375 73 
Q 24.125 74.21875 28.421875 74.21875 
Q 39.75 74.21875 46.484375 68.546875 
Q 53.21875 62.890625 53.21875 53.421875 
Q 53.21875 48.921875 51.53125 44.890625 
Q 49.859375 40.875 45.40625 35.40625 
Q 44.1875 33.984375 37.640625 27.21875 
Q 31.109375 20.453125 19.1875 8.296875 
z
" id="DejaVuSans-50"/>
      </defs>
      <g transform="translate(127.373333 237.3575)scale(0.16 -0.16)">
       <use xlink:href="#DejaVuSans-50"/>
       <use x="63.623047" xlink:href="#DejaVuSans-48"/>
       <use x="127.246094" xlink:href="#DejaVuSans-48"/>
       <use x="190.869141" xlink:href="#DejaVuSans-48"/>
      </g>
     </g>
    </g>
    <g id="xtick_3">
     <g id="line2d_6">
      <g>
       <use style="stroke:#000000;stroke-width:0.8;" x="208.757143" xlink:href="#mc4df35eaa0" y="218.2"/>
      </g>
     </g>
     <g id="text_3">
      <!-- 3000 -->
      <defs>
       <path d="M 40.578125 39.3125 
Q 47.65625 37.796875 51.625 33 
Q 55.609375 28.21875 55.609375 21.1875 
Q 55.609375 10.40625 48.1875 4.484375 
Q 40.765625 -1.421875 27.09375 -1.421875 
Q 22.515625 -1.421875 17.65625 -0.515625 
Q 12.796875 0.390625 7.625 2.203125 
L 7.625 11.71875 
Q 11.71875 9.328125 16.59375 8.109375 
Q 21.484375 6.890625 26.8125 6.890625 
Q 36.078125 6.890625 40.9375 10.546875 
Q 45.796875 14.203125 45.796875 21.1875 
Q 45.796875 27.640625 41.28125 31.265625 
Q 36.765625 34.90625 28.71875 34.90625 
L 20.21875 34.90625 
L 20.21875 43.015625 
L 29.109375 43.015625 
Q 36.375 43.015625 40.234375 45.921875 
Q 44.09375 48.828125 44.09375 54.296875 
Q 44.09375 59.90625 40.109375 62.90625 
Q 36.140625 65.921875 28.71875 65.921875 
Q 24.65625 65.921875 20.015625 65.03125 
Q 15.375 64.15625 9.8125 62.3125 
L 9.8125 71.09375 
Q 15.4375 72.65625 20.34375 73.4375 
Q 25.25 74.21875 29.59375 74.21875 
Q 40.828125 74.21875 47.359375 69.109375 
Q 53.90625 64.015625 53.90625 55.328125 
Q 53.90625 49.265625 50.4375 45.09375 
Q 46.96875 40.921875 40.578125 39.3125 
z
" id="DejaVuSans-51"/>
      </defs>
      <g transform="translate(188.397143 237.3575)scale(0.16 -0.16)">
       <use xlink:href="#DejaVuSans-51"/>
       <use x="63.623047" xlink:href="#DejaVuSans-48"/>
       <use x="127.246094" xlink:href="#DejaVuSans-48"/>
       <use x="190.869141" xlink:href="#DejaVuSans-48"/>
      </g>
     </g>
    </g>
    <g id="xtick_4">
     <g id="line2d_7">
      <g>
       <use style="stroke:#000000;stroke-width:0.8;" x="269.780952" xlink:href="#mc4df35eaa0" y="218.2"/>
      </g>
     </g>
     <g id="text_4">
      <!-- 4000 -->
      <defs>
       <path d="M 37.796875 64.3125 
L 12.890625 25.390625 
L 37.796875 25.390625 
z
M 35.203125 72.90625 
L 47.609375 72.90625 
L 47.609375 25.390625 
L 58.015625 25.390625 
L 58.015625 17.1875 
L 47.609375 17.1875 
L 47.609375 0 
L 37.796875 0 
L 37.796875 17.1875 
L 4.890625 17.1875 
L 4.890625 26.703125 
z
" id="DejaVuSans-52"/>
      </defs>
      <g transform="translate(249.420952 237.3575)scale(0.16 -0.16)">
       <use xlink:href="#DejaVuSans-52"/>
       <use x="63.623047" xlink:href="#DejaVuSans-48"/>
       <use x="127.246094" xlink:href="#DejaVuSans-48"/>
       <use x="190.869141" xlink:href="#DejaVuSans-48"/>
      </g>
     </g>
    </g>
    <g id="text_5">
     <!-- Rendition number -->
     <defs>
      <path d="M 44.390625 34.1875 
Q 47.5625 33.109375 50.5625 29.59375 
Q 53.5625 26.078125 56.59375 19.921875 
L 66.609375 0 
L 56 0 
L 46.6875 18.703125 
Q 43.0625 26.03125 39.671875 28.421875 
Q 36.28125 30.8125 30.421875 30.8125 
L 19.671875 30.8125 
L 19.671875 0 
L 9.8125 0 
L 9.8125 72.90625 
L 32.078125 72.90625 
Q 44.578125 72.90625 50.734375 67.671875 
Q 56.890625 62.453125 56.890625 51.90625 
Q 56.890625 45.015625 53.6875 40.46875 
Q 50.484375 35.9375 44.390625 34.1875 
z
M 19.671875 64.796875 
L 19.671875 38.921875 
L 32.078125 38.921875 
Q 39.203125 38.921875 42.84375 42.21875 
Q 46.484375 45.515625 46.484375 51.90625 
Q 46.484375 58.296875 42.84375 61.546875 
Q 39.203125 64.796875 32.078125 64.796875 
z
" id="DejaVuSans-82"/>
      <path d="M 56.203125 29.59375 
L 56.203125 25.203125 
L 14.890625 25.203125 
Q 15.484375 15.921875 20.484375 11.0625 
Q 25.484375 6.203125 34.421875 6.203125 
Q 39.59375 6.203125 44.453125 7.46875 
Q 49.3125 8.734375 54.109375 11.28125 
L 54.109375 2.78125 
Q 49.265625 0.734375 44.1875 -0.34375 
Q 39.109375 -1.421875 33.890625 -1.421875 
Q 20.796875 -1.421875 13.15625 6.1875 
Q 5.515625 13.8125 5.515625 26.8125 
Q 5.515625 40.234375 12.765625 48.109375 
Q 20.015625 56 32.328125 56 
Q 43.359375 56 49.78125 48.890625 
Q 56.203125 41.796875 56.203125 29.59375 
z
M 47.21875 32.234375 
Q 47.125 39.59375 43.09375 43.984375 
Q 39.0625 48.390625 32.421875 48.390625 
Q 24.90625 48.390625 20.390625 44.140625 
Q 15.875 39.890625 15.1875 32.171875 
z
" id="DejaVuSans-101"/>
      <path d="M 54.890625 33.015625 
L 54.890625 0 
L 45.90625 0 
L 45.90625 32.71875 
Q 45.90625 40.484375 42.875 44.328125 
Q 39.84375 48.1875 33.796875 48.1875 
Q 26.515625 48.1875 22.3125 43.546875 
Q 18.109375 38.921875 18.109375 30.90625 
L 18.109375 0 
L 9.078125 0 
L 9.078125 54.6875 
L 18.109375 54.6875 
L 18.109375 46.1875 
Q 21.34375 51.125 25.703125 53.5625 
Q 30.078125 56 35.796875 56 
Q 45.21875 56 50.046875 50.171875 
Q 54.890625 44.34375 54.890625 33.015625 
z
" id="DejaVuSans-110"/>
      <path d="M 45.40625 46.390625 
L 45.40625 75.984375 
L 54.390625 75.984375 
L 54.390625 0 
L 45.40625 0 
L 45.40625 8.203125 
Q 42.578125 3.328125 38.25 0.953125 
Q 33.9375 -1.421875 27.875 -1.421875 
Q 17.96875 -1.421875 11.734375 6.484375 
Q 5.515625 14.40625 5.515625 27.296875 
Q 5.515625 40.1875 11.734375 48.09375 
Q 17.96875 56 27.875 56 
Q 33.9375 56 38.25 53.625 
Q 42.578125 51.265625 45.40625 46.390625 
z
M 14.796875 27.296875 
Q 14.796875 17.390625 18.875 11.75 
Q 22.953125 6.109375 30.078125 6.109375 
Q 37.203125 6.109375 41.296875 11.75 
Q 45.40625 17.390625 45.40625 27.296875 
Q 45.40625 37.203125 41.296875 42.84375 
Q 37.203125 48.484375 30.078125 48.484375 
Q 22.953125 48.484375 18.875 42.84375 
Q 14.796875 37.203125 14.796875 27.296875 
z
" id="DejaVuSans-100"/>
      <path d="M 9.421875 54.6875 
L 18.40625 54.6875 
L 18.40625 0 
L 9.421875 0 
z
M 9.421875 75.984375 
L 18.40625 75.984375 
L 18.40625 64.59375 
L 9.421875 64.59375 
z
" id="DejaVuSans-105"/>
      <path d="M 18.3125 70.21875 
L 18.3125 54.6875 
L 36.8125 54.6875 
L 36.8125 47.703125 
L 18.3125 47.703125 
L 18.3125 18.015625 
Q 18.3125 11.328125 20.140625 9.421875 
Q 21.96875 7.515625 27.59375 7.515625 
L 36.8125 7.515625 
L 36.8125 0 
L 27.59375 0 
Q 17.1875 0 13.234375 3.875 
Q 9.28125 7.765625 9.28125 18.015625 
L 9.28125 47.703125 
L 2.6875 47.703125 
L 2.6875 54.6875 
L 9.28125 54.6875 
L 9.28125 70.21875 
z
" id="DejaVuSans-116"/>
      <path d="M 30.609375 48.390625 
Q 23.390625 48.390625 19.1875 42.75 
Q 14.984375 37.109375 14.984375 27.296875 
Q 14.984375 17.484375 19.15625 11.84375 
Q 23.34375 6.203125 30.609375 6.203125 
Q 37.796875 6.203125 41.984375 11.859375 
Q 46.1875 17.53125 46.1875 27.296875 
Q 46.1875 37.015625 41.984375 42.703125 
Q 37.796875 48.390625 30.609375 48.390625 
z
M 30.609375 56 
Q 42.328125 56 49.015625 48.375 
Q 55.71875 40.765625 55.71875 27.296875 
Q 55.71875 13.875 49.015625 6.21875 
Q 42.328125 -1.421875 30.609375 -1.421875 
Q 18.84375 -1.421875 12.171875 6.21875 
Q 5.515625 13.875 5.515625 27.296875 
Q 5.515625 40.765625 12.171875 48.375 
Q 18.84375 56 30.609375 56 
z
" id="DejaVuSans-111"/>
      <path id="DejaVuSans-32"/>
      <path d="M 8.5 21.578125 
L 8.5 54.6875 
L 17.484375 54.6875 
L 17.484375 21.921875 
Q 17.484375 14.15625 20.5 10.265625 
Q 23.53125 6.390625 29.59375 6.390625 
Q 36.859375 6.390625 41.078125 11.03125 
Q 45.3125 15.671875 45.3125 23.6875 
L 45.3125 54.6875 
L 54.296875 54.6875 
L 54.296875 0 
L 45.3125 0 
L 45.3125 8.40625 
Q 42.046875 3.421875 37.71875 1 
Q 33.40625 -1.421875 27.6875 -1.421875 
Q 18.265625 -1.421875 13.375 4.4375 
Q 8.5 10.296875 8.5 21.578125 
z
M 31.109375 56 
z
" id="DejaVuSans-117"/>
      <path d="M 52 44.1875 
Q 55.375 50.25 60.0625 53.125 
Q 64.75 56 71.09375 56 
Q 79.640625 56 84.28125 50.015625 
Q 88.921875 44.046875 88.921875 33.015625 
L 88.921875 0 
L 79.890625 0 
L 79.890625 32.71875 
Q 79.890625 40.578125 77.09375 44.375 
Q 74.3125 48.1875 68.609375 48.1875 
Q 61.625 48.1875 57.5625 43.546875 
Q 53.515625 38.921875 53.515625 30.90625 
L 53.515625 0 
L 44.484375 0 
L 44.484375 32.71875 
Q 44.484375 40.625 41.703125 44.40625 
Q 38.921875 48.1875 33.109375 48.1875 
Q 26.21875 48.1875 22.15625 43.53125 
Q 18.109375 38.875 18.109375 30.90625 
L 18.109375 0 
L 9.078125 0 
L 9.078125 54.6875 
L 18.109375 54.6875 
L 18.109375 46.1875 
Q 21.1875 51.21875 25.484375 53.609375 
Q 29.78125 56 35.6875 56 
Q 41.65625 56 45.828125 52.96875 
Q 50 49.953125 52 44.1875 
z
" id="DejaVuSans-109"/>
      <path d="M 48.6875 27.296875 
Q 48.6875 37.203125 44.609375 42.84375 
Q 40.53125 48.484375 33.40625 48.484375 
Q 26.265625 48.484375 22.1875 42.84375 
Q 18.109375 37.203125 18.109375 27.296875 
Q 18.109375 17.390625 22.1875 11.75 
Q 26.265625 6.109375 33.40625 6.109375 
Q 40.53125 6.109375 44.609375 11.75 
Q 48.6875 17.390625 48.6875 27.296875 
z
M 18.109375 46.390625 
Q 20.953125 51.265625 25.265625 53.625 
Q 29.59375 56 35.59375 56 
Q 45.5625 56 51.78125 48.09375 
Q 58.015625 40.1875 58.015625 27.296875 
Q 58.015625 14.40625 51.78125 6.484375 
Q 45.5625 -1.421875 35.59375 -1.421875 
Q 29.59375 -1.421875 25.265625 0.953125 
Q 20.953125 3.328125 18.109375 8.203125 
L 18.109375 0 
L 9.078125 0 
L 9.078125 75.984375 
L 18.109375 75.984375 
z
" id="DejaVuSans-98"/>
      <path d="M 41.109375 46.296875 
Q 39.59375 47.171875 37.8125 47.578125 
Q 36.03125 48 33.890625 48 
Q 26.265625 48 22.1875 43.046875 
Q 18.109375 38.09375 18.109375 28.8125 
L 18.109375 0 
L 9.078125 0 
L 9.078125 54.6875 
L 18.109375 54.6875 
L 18.109375 46.1875 
Q 20.953125 51.171875 25.484375 53.578125 
Q 30.03125 56 36.53125 56 
Q 37.453125 56 38.578125 55.875 
Q 39.703125 55.765625 41.0625 55.515625 
z
" id="DejaVuSans-114"/>
     </defs>
     <g transform="translate(118.86875 256.8425)scale(0.16 -0.16)">
      <use xlink:href="#DejaVuSans-82"/>
      <use x="64.982422" xlink:href="#DejaVuSans-101"/>
      <use x="126.505859" xlink:href="#DejaVuSans-110"/>
      <use x="189.884766" xlink:href="#DejaVuSans-100"/>
      <use x="253.361328" xlink:href="#DejaVuSans-105"/>
      <use x="281.144531" xlink:href="#DejaVuSans-116"/>
      <use x="320.353516" xlink:href="#DejaVuSans-105"/>
      <use x="348.136719" xlink:href="#DejaVuSans-111"/>
      <use x="409.318359" xlink:href="#DejaVuSans-110"/>
      <use x="472.697266" xlink:href="#DejaVuSans-32"/>
      <use x="504.484375" xlink:href="#DejaVuSans-110"/>
      <use x="567.863281" xlink:href="#DejaVuSans-117"/>
      <use x="631.242188" xlink:href="#DejaVuSans-109"/>
      <use x="728.654297" xlink:href="#DejaVuSans-98"/>
      <use x="792.130859" xlink:href="#DejaVuSans-101"/>
      <use x="853.654297" xlink:href="#DejaVuSans-114"/>
     </g>
    </g>
   </g>
   <g id="matplotlib.axis_2">
    <g id="ytick_1">
     <g id="line2d_8">
      <defs>
       <path d="M 0 0 
L -3.5 0 
" id="m3436fef475" style="stroke:#000000;stroke-width:0.8;"/>
      </defs>
      <g>
       <use style="stroke:#000000;stroke-width:0.8;" x="62.3" xlink:href="#m3436fef475" y="217.779559"/>
      </g>
     </g>
     <g id="text_6">
      <!-- 0.0 -->
      <defs>
       <path d="M 10.6875 12.40625 
L 21 12.40625 
L 21 0 
L 10.6875 0 
z
" id="DejaVuSans-46"/>
      </defs>
      <g transform="translate(29.855 223.858309)scale(0.16 -0.16)">
       <use xlink:href="#DejaVuSans-48"/>
       <use x="63.623047" xlink:href="#DejaVuSans-46"/>
       <use x="95.410156" xlink:href="#DejaVuSans-48"/>
      </g>
     </g>
    </g>
    <g id="ytick_2">
     <g id="line2d_9">
      <g>
       <use style="stroke:#000000;stroke-width:0.8;" x="62.3" xlink:href="#m3436fef475" y="186.736492"/>
      </g>
     </g>
     <g id="text_7">
      <!-- 0.2 -->
      <g transform="translate(29.855 192.815242)scale(0.16 -0.16)">
       <use xlink:href="#DejaVuSans-48"/>
       <use x="63.623047" xlink:href="#DejaVuSans-46"/>
       <use x="95.410156" xlink:href="#DejaVuSans-50"/>
      </g>
     </g>
    </g>
    <g id="ytick_3">
     <g id="line2d_10">
      <g>
       <use style="stroke:#000000;stroke-width:0.8;" x="62.3" xlink:href="#m3436fef475" y="155.693424"/>
      </g>
     </g>
     <g id="text_8">
      <!-- 0.4 -->
      <g transform="translate(29.855 161.772174)scale(0.16 -0.16)">
       <use xlink:href="#DejaVuSans-48"/>
       <use x="63.623047" xlink:href="#DejaVuSans-46"/>
       <use x="95.410156" xlink:href="#DejaVuSans-52"/>
      </g>
     </g>
    </g>
    <g id="ytick_4">
     <g id="line2d_11">
      <g>
       <use style="stroke:#000000;stroke-width:0.8;" x="62.3" xlink:href="#m3436fef475" y="124.650357"/>
      </g>
     </g>
     <g id="text_9">
      <!-- 0.6 -->
      <defs>
       <path d="M 33.015625 40.375 
Q 26.375 40.375 22.484375 35.828125 
Q 18.609375 31.296875 18.609375 23.390625 
Q 18.609375 15.53125 22.484375 10.953125 
Q 26.375 6.390625 33.015625 6.390625 
Q 39.65625 6.390625 43.53125 10.953125 
Q 47.40625 15.53125 47.40625 23.390625 
Q 47.40625 31.296875 43.53125 35.828125 
Q 39.65625 40.375 33.015625 40.375 
z
M 52.59375 71.296875 
L 52.59375 62.3125 
Q 48.875 64.0625 45.09375 64.984375 
Q 41.3125 65.921875 37.59375 65.921875 
Q 27.828125 65.921875 22.671875 59.328125 
Q 17.53125 52.734375 16.796875 39.40625 
Q 19.671875 43.65625 24.015625 45.921875 
Q 28.375 48.1875 33.59375 48.1875 
Q 44.578125 48.1875 50.953125 41.515625 
Q 57.328125 34.859375 57.328125 23.390625 
Q 57.328125 12.15625 50.6875 5.359375 
Q 44.046875 -1.421875 33.015625 -1.421875 
Q 20.359375 -1.421875 13.671875 8.265625 
Q 6.984375 17.96875 6.984375 36.375 
Q 6.984375 53.65625 15.1875 63.9375 
Q 23.390625 74.21875 37.203125 74.21875 
Q 40.921875 74.21875 44.703125 73.484375 
Q 48.484375 72.75 52.59375 71.296875 
z
" id="DejaVuSans-54"/>
      </defs>
      <g transform="translate(29.855 130.729107)scale(0.16 -0.16)">
       <use xlink:href="#DejaVuSans-48"/>
       <use x="63.623047" xlink:href="#DejaVuSans-46"/>
       <use x="95.410156" xlink:href="#DejaVuSans-54"/>
      </g>
     </g>
    </g>
    <g id="ytick_5">
     <g id="line2d_12">
      <g>
       <use style="stroke:#000000;stroke-width:0.8;" x="62.3" xlink:href="#m3436fef475" y="93.607289"/>
      </g>
     </g>
     <g id="text_10">
      <!-- 0.8 -->
      <defs>
       <path d="M 31.78125 34.625 
Q 24.75 34.625 20.71875 30.859375 
Q 16.703125 27.09375 16.703125 20.515625 
Q 16.703125 13.921875 20.71875 10.15625 
Q 24.75 6.390625 31.78125 6.390625 
Q 38.8125 6.390625 42.859375 10.171875 
Q 46.921875 13.96875 46.921875 20.515625 
Q 46.921875 27.09375 42.890625 30.859375 
Q 38.875 34.625 31.78125 34.625 
z
M 21.921875 38.8125 
Q 15.578125 40.375 12.03125 44.71875 
Q 8.5 49.078125 8.5 55.328125 
Q 8.5 64.0625 14.71875 69.140625 
Q 20.953125 74.21875 31.78125 74.21875 
Q 42.671875 74.21875 48.875 69.140625 
Q 55.078125 64.0625 55.078125 55.328125 
Q 55.078125 49.078125 51.53125 44.71875 
Q 48 40.375 41.703125 38.8125 
Q 48.828125 37.15625 52.796875 32.3125 
Q 56.78125 27.484375 56.78125 20.515625 
Q 56.78125 9.90625 50.3125 4.234375 
Q 43.84375 -1.421875 31.78125 -1.421875 
Q 19.734375 -1.421875 13.25 4.234375 
Q 6.78125 9.90625 6.78125 20.515625 
Q 6.78125 27.484375 10.78125 32.3125 
Q 14.796875 37.15625 21.921875 38.8125 
z
M 18.3125 54.390625 
Q 18.3125 48.734375 21.84375 45.5625 
Q 25.390625 42.390625 31.78125 42.390625 
Q 38.140625 42.390625 41.71875 45.5625 
Q 45.3125 48.734375 45.3125 54.390625 
Q 45.3125 60.0625 41.71875 63.234375 
Q 38.140625 66.40625 31.78125 66.40625 
Q 25.390625 66.40625 21.84375 63.234375 
Q 18.3125 60.0625 18.3125 54.390625 
z
" id="DejaVuSans-56"/>
      </defs>
      <g transform="translate(29.855 99.686039)scale(0.16 -0.16)">
       <use xlink:href="#DejaVuSans-48"/>
       <use x="63.623047" xlink:href="#DejaVuSans-46"/>
       <use x="95.410156" xlink:href="#DejaVuSans-56"/>
      </g>
     </g>
    </g>
    <g id="ytick_6">
     <g id="line2d_13">
      <g>
       <use style="stroke:#000000;stroke-width:0.8;" x="62.3" xlink:href="#m3436fef475" y="62.564222"/>
      </g>
     </g>
     <g id="text_11">
      <!-- 1.0 -->
      <g transform="translate(29.855 68.642972)scale(0.16 -0.16)">
       <use xlink:href="#DejaVuSans-49"/>
       <use x="63.623047" xlink:href="#DejaVuSans-46"/>
       <use x="95.410156" xlink:href="#DejaVuSans-48"/>
      </g>
     </g>
    </g>
    <g id="ytick_7">
     <g id="line2d_14">
      <g>
       <use style="stroke:#000000;stroke-width:0.8;" x="62.3" xlink:href="#m3436fef475" y="31.521154"/>
      </g>
     </g>
     <g id="text_12">
      <!-- 1.2 -->
      <g transform="translate(29.855 37.599904)scale(0.16 -0.16)">
       <use xlink:href="#DejaVuSans-49"/>
       <use x="63.623047" xlink:href="#DejaVuSans-46"/>
       <use x="95.410156" xlink:href="#DejaVuSans-50"/>
      </g>
     </g>
    </g>
    <g id="text_13">
     <!-- Mean excitatory activity -->
     <defs>
      <path d="M 9.8125 72.90625 
L 24.515625 72.90625 
L 43.109375 23.296875 
L 61.8125 72.90625 
L 76.515625 72.90625 
L 76.515625 0 
L 66.890625 0 
L 66.890625 64.015625 
L 48.09375 14.015625 
L 38.1875 14.015625 
L 19.390625 64.015625 
L 19.390625 0 
L 9.8125 0 
z
" id="DejaVuSans-77"/>
      <path d="M 34.28125 27.484375 
Q 23.390625 27.484375 19.1875 25 
Q 14.984375 22.515625 14.984375 16.5 
Q 14.984375 11.71875 18.140625 8.90625 
Q 21.296875 6.109375 26.703125 6.109375 
Q 34.1875 6.109375 38.703125 11.40625 
Q 43.21875 16.703125 43.21875 25.484375 
L 43.21875 27.484375 
z
M 52.203125 31.203125 
L 52.203125 0 
L 43.21875 0 
L 43.21875 8.296875 
Q 40.140625 3.328125 35.546875 0.953125 
Q 30.953125 -1.421875 24.3125 -1.421875 
Q 15.921875 -1.421875 10.953125 3.296875 
Q 6 8.015625 6 15.921875 
Q 6 25.140625 12.171875 29.828125 
Q 18.359375 34.515625 30.609375 34.515625 
L 43.21875 34.515625 
L 43.21875 35.40625 
Q 43.21875 41.609375 39.140625 45 
Q 35.0625 48.390625 27.6875 48.390625 
Q 23 48.390625 18.546875 47.265625 
Q 14.109375 46.140625 10.015625 43.890625 
L 10.015625 52.203125 
Q 14.9375 54.109375 19.578125 55.046875 
Q 24.21875 56 28.609375 56 
Q 40.484375 56 46.34375 49.84375 
Q 52.203125 43.703125 52.203125 31.203125 
z
" id="DejaVuSans-97"/>
      <path d="M 54.890625 54.6875 
L 35.109375 28.078125 
L 55.90625 0 
L 45.3125 0 
L 29.390625 21.484375 
L 13.484375 0 
L 2.875 0 
L 24.125 28.609375 
L 4.6875 54.6875 
L 15.28125 54.6875 
L 29.78125 35.203125 
L 44.28125 54.6875 
z
" id="DejaVuSans-120"/>
      <path d="M 48.78125 52.59375 
L 48.78125 44.1875 
Q 44.96875 46.296875 41.140625 47.34375 
Q 37.3125 48.390625 33.40625 48.390625 
Q 24.65625 48.390625 19.8125 42.84375 
Q 14.984375 37.3125 14.984375 27.296875 
Q 14.984375 17.28125 19.8125 11.734375 
Q 24.65625 6.203125 33.40625 6.203125 
Q 37.3125 6.203125 41.140625 7.25 
Q 44.96875 8.296875 48.78125 10.40625 
L 48.78125 2.09375 
Q 45.015625 0.34375 40.984375 -0.53125 
Q 36.96875 -1.421875 32.421875 -1.421875 
Q 20.0625 -1.421875 12.78125 6.34375 
Q 5.515625 14.109375 5.515625 27.296875 
Q 5.515625 40.671875 12.859375 48.328125 
Q 20.21875 56 33.015625 56 
Q 37.15625 56 41.109375 55.140625 
Q 45.0625 54.296875 48.78125 52.59375 
z
" id="DejaVuSans-99"/>
      <path d="M 32.171875 -5.078125 
Q 28.375 -14.84375 24.75 -17.8125 
Q 21.140625 -20.796875 15.09375 -20.796875 
L 7.90625 -20.796875 
L 7.90625 -13.28125 
L 13.1875 -13.28125 
Q 16.890625 -13.28125 18.9375 -11.515625 
Q 21 -9.765625 23.484375 -3.21875 
L 25.09375 0.875 
L 2.984375 54.6875 
L 12.5 54.6875 
L 29.59375 11.921875 
L 46.6875 54.6875 
L 56.203125 54.6875 
z
" id="DejaVuSans-121"/>
      <path d="M 2.984375 54.6875 
L 12.5 54.6875 
L 29.59375 8.796875 
L 46.6875 54.6875 
L 56.203125 54.6875 
L 35.6875 0 
L 23.484375 0 
z
" id="DejaVuSans-118"/>
     </defs>
     <g transform="translate(22.5275 210.96375)rotate(-90)scale(0.16 -0.16)">
      <use xlink:href="#DejaVuSans-77"/>
      <use x="86.279297" xlink:href="#DejaVuSans-101"/>
      <use x="147.802734" xlink:href="#DejaVuSans-97"/>
      <use x="209.082031" xlink:href="#DejaVuSans-110"/>
      <use x="272.460938" xlink:href="#DejaVuSans-32"/>
      <use x="304.248047" xlink:href="#DejaVuSans-101"/>
      <use x="364.021484" xlink:href="#DejaVuSans-120"/>
      <use x="421.451172" xlink:href="#DejaVuSans-99"/>
      <use x="476.431641" xlink:href="#DejaVuSans-105"/>
      <use x="504.214844" xlink:href="#DejaVuSans-116"/>
      <use x="543.423828" xlink:href="#DejaVuSans-97"/>
      <use x="604.703125" xlink:href="#DejaVuSans-116"/>
      <use x="643.912109" xlink:href="#DejaVuSans-111"/>
      <use x="705.09375" xlink:href="#DejaVuSans-114"/>
      <use x="746.207031" xlink:href="#DejaVuSans-121"/>
      <use x="805.386719" xlink:href="#DejaVuSans-32"/>
      <use x="837.173828" xlink:href="#DejaVuSans-97"/>
      <use x="898.453125" xlink:href="#DejaVuSans-99"/>
      <use x="953.433594" xlink:href="#DejaVuSans-116"/>
      <use x="992.642578" xlink:href="#DejaVuSans-105"/>
      <use x="1020.425781" xlink:href="#DejaVuSans-118"/>
      <use x="1079.605469" xlink:href="#DejaVuSans-105"/>
      <use x="1107.388672" xlink:href="#DejaVuSans-116"/>
      <use x="1146.597656" xlink:href="#DejaVuSans-121"/>
     </g>
    </g>
   </g>
   <g id="patch_3">
    <path d="M 62.3 218.2 
L 62.3 10.8 
" style="fill:none;stroke:#000000;stroke-linecap:square;stroke-linejoin:miter;stroke-width:0.8;"/>
   </g>
   <g id="patch_4">
    <path d="M 62.3 218.2 
L 318.6 218.2 
" style="fill:none;stroke:#000000;stroke-linecap:square;stroke-linejoin:miter;stroke-width:0.8;"/>
   </g>
  </g>
  <g id="axes_2">
   <g id="patch_5">
    <path d="M 380.9 218.2 
L 637.2 218.2 
L 637.2 10.8 
L 380.9 10.8 
z
" style="fill:#ffffff;"/>
   </g>
   <g id="PolyCollection_4">
    <defs>
     <path d="M 380.9 -209.863846 
L 380.9 -206.53923 
L 387.002381 -210.832969 
L 393.104762 -209.1363 
L 399.207143 -213.973437 
L 405.309524 -140.188936 
L 411.411905 -221.578085 
L 417.514286 -224.692993 
L 423.616667 -227.416245 
L 429.719048 -228.499593 
L 435.821429 -234.287765 
L 441.92381 -232.711741 
L 448.02619 -233.849885 
L 454.128571 -239.521782 
L 460.230952 -240.247357 
L 466.333333 -234.171629 
L 472.435714 -233.659972 
L 478.538095 -225.589127 
L 484.640476 -234.353987 
L 490.742857 -234.037559 
L 496.845238 -232.752158 
L 502.947619 -231.650299 
L 509.05 -238.097824 
L 515.152381 -234.137178 
L 521.254762 -233.834871 
L 527.357143 -241.218764 
L 533.459524 -239.008972 
L 539.561905 -225.860408 
L 545.664286 -237.491612 
L 551.766667 -235.996535 
L 557.869048 -239.567732 
L 563.971429 -237.503208 
L 570.07381 -232.205794 
L 576.17619 -241.288113 
L 582.278571 -235.71422 
L 588.380952 -236.78308 
L 594.483333 -238.532265 
L 600.585714 -238.112889 
L 606.688095 -238.098807 
L 612.790476 -243.612293 
L 618.892857 -237.140671 
L 624.995238 -235.923767 
L 631.097619 -239.92384 
L 637.2 -235.912854 
L 637.2 -243.577485 
L 637.2 -243.577485 
L 631.097619 -246.615078 
L 624.995238 -243.36365 
L 618.892857 -243.252736 
L 612.790476 -249.772727 
L 606.688095 -244.403114 
L 600.585714 -245.44112 
L 594.483333 -244.240411 
L 588.380952 -242.523725 
L 582.278571 -243.774572 
L 576.17619 -247.062301 
L 570.07381 -238.591573 
L 563.971429 -244.481056 
L 557.869048 -246.401817 
L 551.766667 -241.198291 
L 545.664286 -245.163744 
L 539.561905 -240.450242 
L 533.459524 -245.405262 
L 527.357143 -246.925718 
L 521.254762 -239.471398 
L 515.152381 -241.573237 
L 509.05 -244.353472 
L 502.947619 -236.834497 
L 496.845238 -239.370282 
L 490.742857 -239.963549 
L 484.640476 -240.702876 
L 478.538095 -236.790448 
L 472.435714 -242.155903 
L 466.333333 -239.504173 
L 460.230952 -247.330407 
L 454.128571 -246.195302 
L 448.02619 -238.943987 
L 441.92381 -239.280168 
L 435.821429 -240.137646 
L 429.719048 -235.764181 
L 423.616667 -231.515699 
L 417.514286 -230.08051 
L 411.411905 -227.341424 
L 405.309524 -151.224388 
L 399.207143 -213.973437 
L 393.104762 -212.620527 
L 387.002381 -213.163668 
L 380.9 -209.863846 
z
" id="mecab7ce7d9" style="stroke:#8180ff;stroke-opacity:0.2;"/>
    </defs>
    <g clip-path="url(#p6428fc5a53)">
     <use style="fill:#8180ff;fill-opacity:0.2;stroke:#8180ff;stroke-opacity:0.2;" x="0" xlink:href="#mecab7ce7d9" y="270"/>
    </g>
   </g>
   <g id="PolyCollection_5">
    <defs>
     <path d="M 380.9 -209.958386 
L 380.9 -206.782849 
L 387.002381 -210.202308 
L 393.104762 -209.104125 
L 399.207143 -213.973437 
L 405.309524 -85.357499 
L 411.411905 -198.950534 
L 417.514286 -205.435642 
L 423.616667 -213.387686 
L 429.719048 -209.871646 
L 435.821429 -213.030671 
L 441.92381 -217.965015 
L 448.02619 -219.996331 
L 454.128571 -218.581213 
L 460.230952 -225.009359 
L 466.333333 -224.747951 
L 472.435714 -224.625507 
L 478.538095 -225.001411 
L 484.640476 -225.764732 
L 490.742857 -228.061226 
L 496.845238 -225.084899 
L 502.947619 -226.773963 
L 509.05 -224.88091 
L 515.152381 -224.488511 
L 521.254762 -227.572369 
L 527.357143 -225.968581 
L 533.459524 -228.624638 
L 539.561905 -225.660749 
L 545.664286 -222.46891 
L 551.766667 -228.055786 
L 557.869048 -221.557186 
L 563.971429 -224.200378 
L 570.07381 -220.33435 
L 576.17619 -228.504813 
L 582.278571 -228.714896 
L 588.380952 -222.348981 
L 594.483333 -230.038031 
L 600.585714 -227.763393 
L 606.688095 -223.658546 
L 612.790476 -230.86475 
L 618.892857 -227.434289 
L 624.995238 -228.059531 
L 631.097619 -229.971889 
L 637.2 -229.242714 
L 637.2 -234.695119 
L 637.2 -234.695119 
L 631.097619 -234.267818 
L 624.995238 -234.623919 
L 618.892857 -232.890311 
L 612.790476 -237.912851 
L 606.688095 -233.593212 
L 600.585714 -233.029685 
L 594.483333 -236.468047 
L 588.380952 -229.760973 
L 582.278571 -235.347081 
L 576.17619 -234.229021 
L 570.07381 -227.932765 
L 563.971429 -232.328664 
L 557.869048 -226.405469 
L 551.766667 -234.743531 
L 545.664286 -229.505154 
L 539.561905 -232.309387 
L 533.459524 -234.893561 
L 527.357143 -232.574641 
L 521.254762 -233.613526 
L 515.152381 -231.750816 
L 509.05 -230.824184 
L 502.947619 -232.004662 
L 496.845238 -233.522841 
L 490.742857 -232.584579 
L 484.640476 -232.784437 
L 478.538095 -231.328815 
L 472.435714 -231.424017 
L 466.333333 -232.220155 
L 460.230952 -230.788419 
L 454.128571 -224.814565 
L 448.02619 -227.241359 
L 441.92381 -223.627495 
L 435.821429 -218.44012 
L 429.719048 -216.939204 
L 423.616667 -217.439983 
L 417.514286 -210.770195 
L 411.411905 -203.670612 
L 405.309524 -93.626889 
L 399.207143 -213.973437 
L 393.104762 -212.421784 
L 387.002381 -212.67197 
L 380.9 -209.958386 
z
" id="m1896ddc4ad" style="stroke:#5959ff;stroke-opacity:0.2;"/>
    </defs>
    <g clip-path="url(#p6428fc5a53)">
     <use style="fill:#5959ff;fill-opacity:0.2;stroke:#5959ff;stroke-opacity:0.2;" x="0" xlink:href="#m1896ddc4ad" y="270"/>
    </g>
   </g>
   <g id="PolyCollection_6">
    <defs>
     <path d="M 380.9 -209.958386 
L 380.9 -206.782849 
L 387.002381 -210.202308 
L 393.104762 -209.104125 
L 399.207143 -213.973437 
L 405.309524 -61.227273 
L 411.411905 -110.131921 
L 417.514286 -152.114687 
L 423.616667 -161.399102 
L 429.719048 -163.777429 
L 435.821429 -163.713351 
L 441.92381 -170.356807 
L 448.02619 -171.624468 
L 454.128571 -173.517609 
L 460.230952 -172.963147 
L 466.333333 -174.887242 
L 472.435714 -175.778091 
L 478.538095 -178.44419 
L 484.640476 -180.29005 
L 490.742857 -180.184632 
L 496.845238 -182.372992 
L 502.947619 -185.743292 
L 509.05 -189.513574 
L 515.152381 -188.725818 
L 521.254762 -189.633714 
L 527.357143 -189.213248 
L 533.459524 -192.047123 
L 539.561905 -188.601612 
L 545.664286 -190.733367 
L 551.766667 -190.27676 
L 557.869048 -193.080779 
L 563.971429 -191.643465 
L 570.07381 -192.852241 
L 576.17619 -191.357175 
L 582.278571 -191.585554 
L 588.380952 -198.744696 
L 594.483333 -195.02896 
L 600.585714 -194.409765 
L 606.688095 -192.467235 
L 612.790476 -192.495015 
L 618.892857 -190.855643 
L 624.995238 -195.538829 
L 631.097619 -191.884045 
L 637.2 -195.01539 
L 637.2 -201.307452 
L 637.2 -201.307452 
L 631.097619 -198.201441 
L 624.995238 -200.743011 
L 618.892857 -200.344445 
L 612.790476 -198.116109 
L 606.688095 -197.07155 
L 600.585714 -199.085428 
L 594.483333 -200.074793 
L 588.380952 -204.00481 
L 582.278571 -197.469532 
L 576.17619 -199.26235 
L 570.07381 -198.012445 
L 563.971429 -195.977462 
L 557.869048 -198.357246 
L 551.766667 -195.413762 
L 545.664286 -194.683807 
L 539.561905 -193.613938 
L 533.459524 -196.848077 
L 527.357143 -192.709711 
L 521.254762 -194.711683 
L 515.152381 -192.340848 
L 509.05 -194.942703 
L 502.947619 -190.828943 
L 496.845238 -188.371173 
L 490.742857 -185.603081 
L 484.640476 -186.675785 
L 478.538095 -183.149895 
L 472.435714 -181.663845 
L 466.333333 -180.493796 
L 460.230952 -178.76146 
L 454.128571 -178.446964 
L 448.02619 -176.359003 
L 441.92381 -175.343981 
L 435.821429 -168.572223 
L 429.719048 -167.887956 
L 423.616667 -166.021183 
L 417.514286 -156.506929 
L 411.411905 -121.749277 
L 405.309524 -63.534438 
L 399.207143 -213.973437 
L 393.104762 -212.421784 
L 387.002381 -212.67197 
L 380.9 -209.958386 
z
" id="m7bdec58293" style="stroke:#040299;stroke-opacity:0.2;"/>
    </defs>
    <g clip-path="url(#p6428fc5a53)">
     <use style="fill:#040299;fill-opacity:0.2;stroke:#040299;stroke-opacity:0.2;" x="0" xlink:href="#m7bdec58293" y="270"/>
    </g>
   </g>
   <g id="line2d_15">
    <path clip-path="url(#p6428fc5a53)" d="M 380.9 61.798462 
L 387.002381 58.001681 
L 393.104762 59.121587 
L 399.207143 56.026563 
L 405.309524 124.293338 
L 411.411905 45.540245 
L 417.514286 42.613249 
L 423.616667 40.534028 
L 429.719048 37.868113 
L 435.821429 32.787295 
L 441.92381 34.004045 
L 448.02619 33.603064 
L 454.128571 27.141458 
L 460.230952 26.211118 
L 466.333333 33.162099 
L 472.435714 32.092062 
L 478.538095 38.810212 
L 484.640476 32.471569 
L 490.742857 32.999446 
L 496.845238 33.93878 
L 502.947619 35.757602 
L 509.05 28.774352 
L 515.152381 32.144793 
L 521.254762 33.346866 
L 527.357143 25.927759 
L 533.459524 27.792883 
L 539.561905 36.844675 
L 545.664286 28.672322 
L 551.766667 31.402587 
L 557.869048 27.015225 
L 563.971429 29.007868 
L 570.07381 34.601317 
L 576.17619 25.824793 
L 582.278571 30.255604 
L 588.380952 30.346597 
L 594.483333 28.613662 
L 600.585714 28.222995 
L 606.688095 28.749039 
L 612.790476 23.30749 
L 618.892857 29.803297 
L 624.995238 30.356291 
L 631.097619 26.730541 
L 637.2 30.25483 
" style="fill:none;stroke:#8180ff;stroke-linecap:square;stroke-width:1.5;"/>
   </g>
   <g id="line2d_16">
    <path clip-path="url(#p6428fc5a53)" d="M 380.9 61.629383 
L 387.002381 58.562861 
L 393.104762 59.237045 
L 399.207143 56.026563 
L 405.309524 180.507806 
L 411.411905 68.689427 
L 417.514286 61.897081 
L 423.616667 54.586165 
L 429.719048 56.594575 
L 435.821429 54.264605 
L 441.92381 49.203745 
L 448.02619 46.381155 
L 454.128571 48.302111 
L 460.230952 42.101111 
L 466.333333 41.515947 
L 472.435714 41.975238 
L 478.538095 41.834887 
L 484.640476 40.725415 
L 490.742857 39.677098 
L 496.845238 40.69613 
L 502.947619 40.610687 
L 509.05 42.147453 
L 515.152381 41.880336 
L 521.254762 39.407052 
L 527.357143 40.728389 
L 533.459524 38.240901 
L 539.561905 41.014932 
L 545.664286 44.012968 
L 551.766667 38.600341 
L 557.869048 46.018673 
L 563.971429 41.735479 
L 570.07381 45.866442 
L 576.17619 38.633083 
L 582.278571 37.969011 
L 588.380952 43.945023 
L 594.483333 36.746961 
L 600.585714 39.603461 
L 606.688095 41.374121 
L 612.790476 35.611199 
L 618.892857 39.8377 
L 624.995238 38.658275 
L 631.097619 37.880147 
L 637.2 38.031084 
" style="fill:none;stroke:#5959ff;stroke-linecap:square;stroke-width:1.5;"/>
   </g>
   <g id="line2d_17">
    <path clip-path="url(#p6428fc5a53)" d="M 380.9 61.629383 
L 387.002381 58.562861 
L 393.104762 59.237045 
L 399.207143 56.026563 
L 405.309524 207.619145 
L 411.411905 154.059401 
L 417.514286 115.689192 
L 423.616667 106.289858 
L 429.719048 104.167307 
L 435.821429 103.857213 
L 441.92381 97.149606 
L 448.02619 96.008264 
L 454.128571 94.017714 
L 460.230952 94.137696 
L 466.333333 92.309481 
L 472.435714 91.279032 
L 478.538095 89.202958 
L 484.640476 86.517082 
L 490.742857 87.106144 
L 496.845238 84.627918 
L 502.947619 81.713882 
L 509.05 77.771861 
L 515.152381 79.466667 
L 521.254762 77.827302 
L 527.357143 79.03852 
L 533.459524 75.5524 
L 539.561905 78.892225 
L 545.664286 77.291413 
L 551.766667 77.154739 
L 557.869048 74.280987 
L 563.971429 76.189536 
L 570.07381 74.567657 
L 576.17619 74.690238 
L 582.278571 75.472457 
L 588.380952 68.625247 
L 594.483333 72.448123 
L 600.585714 73.252404 
L 606.688095 75.230608 
L 612.790476 74.694438 
L 618.892857 74.399956 
L 624.995238 71.85908 
L 631.097619 74.957257 
L 637.2 71.838579 
" style="fill:none;stroke:#040299;stroke-linecap:square;stroke-width:1.5;"/>
   </g>
   <g id="matplotlib.axis_3">
    <g id="xtick_5">
     <g id="line2d_18">
      <g>
       <use style="stroke:#000000;stroke-width:0.8;" x="405.309524" xlink:href="#mc4df35eaa0" y="218.2"/>
      </g>
     </g>
     <g id="text_14">
      <!-- 1000 -->
      <g transform="translate(384.949524 237.3575)scale(0.16 -0.16)">
       <use xlink:href="#DejaVuSans-49"/>
       <use x="63.623047" xlink:href="#DejaVuSans-48"/>
       <use x="127.246094" xlink:href="#DejaVuSans-48"/>
       <use x="190.869141" xlink:href="#DejaVuSans-48"/>
      </g>
     </g>
    </g>
    <g id="xtick_6">
     <g id="line2d_19">
      <g>
       <use style="stroke:#000000;stroke-width:0.8;" x="466.333333" xlink:href="#mc4df35eaa0" y="218.2"/>
      </g>
     </g>
     <g id="text_15">
      <!-- 2000 -->
      <g transform="translate(445.973333 237.3575)scale(0.16 -0.16)">
       <use xlink:href="#DejaVuSans-50"/>
       <use x="63.623047" xlink:href="#DejaVuSans-48"/>
       <use x="127.246094" xlink:href="#DejaVuSans-48"/>
       <use x="190.869141" xlink:href="#DejaVuSans-48"/>
      </g>
     </g>
    </g>
    <g id="xtick_7">
     <g id="line2d_20">
      <g>
       <use style="stroke:#000000;stroke-width:0.8;" x="527.357143" xlink:href="#mc4df35eaa0" y="218.2"/>
      </g>
     </g>
     <g id="text_16">
      <!-- 3000 -->
      <g transform="translate(506.997143 237.3575)scale(0.16 -0.16)">
       <use xlink:href="#DejaVuSans-51"/>
       <use x="63.623047" xlink:href="#DejaVuSans-48"/>
       <use x="127.246094" xlink:href="#DejaVuSans-48"/>
       <use x="190.869141" xlink:href="#DejaVuSans-48"/>
      </g>
     </g>
    </g>
    <g id="xtick_8">
     <g id="line2d_21">
      <g>
       <use style="stroke:#000000;stroke-width:0.8;" x="588.380952" xlink:href="#mc4df35eaa0" y="218.2"/>
      </g>
     </g>
     <g id="text_17">
      <!-- 4000 -->
      <g transform="translate(568.020952 237.3575)scale(0.16 -0.16)">
       <use xlink:href="#DejaVuSans-52"/>
       <use x="63.623047" xlink:href="#DejaVuSans-48"/>
       <use x="127.246094" xlink:href="#DejaVuSans-48"/>
       <use x="190.869141" xlink:href="#DejaVuSans-48"/>
      </g>
     </g>
    </g>
    <g id="text_18">
     <!-- Rendition number -->
     <g transform="translate(437.46875 256.8425)scale(0.16 -0.16)">
      <use xlink:href="#DejaVuSans-82"/>
      <use x="64.982422" xlink:href="#DejaVuSans-101"/>
      <use x="126.505859" xlink:href="#DejaVuSans-110"/>
      <use x="189.884766" xlink:href="#DejaVuSans-100"/>
      <use x="253.361328" xlink:href="#DejaVuSans-105"/>
      <use x="281.144531" xlink:href="#DejaVuSans-116"/>
      <use x="320.353516" xlink:href="#DejaVuSans-105"/>
      <use x="348.136719" xlink:href="#DejaVuSans-111"/>
      <use x="409.318359" xlink:href="#DejaVuSans-110"/>
      <use x="472.697266" xlink:href="#DejaVuSans-32"/>
      <use x="504.484375" xlink:href="#DejaVuSans-110"/>
      <use x="567.863281" xlink:href="#DejaVuSans-117"/>
      <use x="631.242188" xlink:href="#DejaVuSans-109"/>
      <use x="728.654297" xlink:href="#DejaVuSans-98"/>
      <use x="792.130859" xlink:href="#DejaVuSans-101"/>
      <use x="853.654297" xlink:href="#DejaVuSans-114"/>
     </g>
    </g>
   </g>
   <g id="matplotlib.axis_4">
    <g id="ytick_8">
     <g id="line2d_22">
      <g>
       <use style="stroke:#000000;stroke-width:0.8;" x="380.9" xlink:href="#m3436fef475" y="217.321042"/>
      </g>
     </g>
     <g id="text_19">
      <!-- 0.0 -->
      <g transform="translate(348.455 223.399792)scale(0.16 -0.16)">
       <use xlink:href="#DejaVuSans-48"/>
       <use x="63.623047" xlink:href="#DejaVuSans-46"/>
       <use x="95.410156" xlink:href="#DejaVuSans-48"/>
      </g>
     </g>
    </g>
    <g id="ytick_9">
     <g id="line2d_23">
      <g>
       <use style="stroke:#000000;stroke-width:0.8;" x="380.9" xlink:href="#m3436fef475" y="185.062146"/>
      </g>
     </g>
     <g id="text_20">
      <!-- 0.2 -->
      <g transform="translate(348.455 191.140896)scale(0.16 -0.16)">
       <use xlink:href="#DejaVuSans-48"/>
       <use x="63.623047" xlink:href="#DejaVuSans-46"/>
       <use x="95.410156" xlink:href="#DejaVuSans-50"/>
      </g>
     </g>
    </g>
    <g id="ytick_10">
     <g id="line2d_24">
      <g>
       <use style="stroke:#000000;stroke-width:0.8;" x="380.9" xlink:href="#m3436fef475" y="152.80325"/>
      </g>
     </g>
     <g id="text_21">
      <!-- 0.4 -->
      <g transform="translate(348.455 158.882)scale(0.16 -0.16)">
       <use xlink:href="#DejaVuSans-48"/>
       <use x="63.623047" xlink:href="#DejaVuSans-46"/>
       <use x="95.410156" xlink:href="#DejaVuSans-52"/>
      </g>
     </g>
    </g>
    <g id="ytick_11">
     <g id="line2d_25">
      <g>
       <use style="stroke:#000000;stroke-width:0.8;" x="380.9" xlink:href="#m3436fef475" y="120.544355"/>
      </g>
     </g>
     <g id="text_22">
      <!-- 0.6 -->
      <g transform="translate(348.455 126.623105)scale(0.16 -0.16)">
       <use xlink:href="#DejaVuSans-48"/>
       <use x="63.623047" xlink:href="#DejaVuSans-46"/>
       <use x="95.410156" xlink:href="#DejaVuSans-54"/>
      </g>
     </g>
    </g>
    <g id="ytick_12">
     <g id="line2d_26">
      <g>
       <use style="stroke:#000000;stroke-width:0.8;" x="380.9" xlink:href="#m3436fef475" y="88.285459"/>
      </g>
     </g>
     <g id="text_23">
      <!-- 0.8 -->
      <g transform="translate(348.455 94.364209)scale(0.16 -0.16)">
       <use xlink:href="#DejaVuSans-48"/>
       <use x="63.623047" xlink:href="#DejaVuSans-46"/>
       <use x="95.410156" xlink:href="#DejaVuSans-56"/>
      </g>
     </g>
    </g>
    <g id="ytick_13">
     <g id="line2d_27">
      <g>
       <use style="stroke:#000000;stroke-width:0.8;" x="380.9" xlink:href="#m3436fef475" y="56.026563"/>
      </g>
     </g>
     <g id="text_24">
      <!-- 1.0 -->
      <g transform="translate(348.455 62.105313)scale(0.16 -0.16)">
       <use xlink:href="#DejaVuSans-49"/>
       <use x="63.623047" xlink:href="#DejaVuSans-46"/>
       <use x="95.410156" xlink:href="#DejaVuSans-48"/>
      </g>
     </g>
    </g>
    <g id="ytick_14">
     <g id="line2d_28">
      <g>
       <use style="stroke:#000000;stroke-width:0.8;" x="380.9" xlink:href="#m3436fef475" y="23.767668"/>
      </g>
     </g>
     <g id="text_25">
      <!-- 1.2 -->
      <g transform="translate(348.455 29.846418)scale(0.16 -0.16)">
       <use xlink:href="#DejaVuSans-49"/>
       <use x="63.623047" xlink:href="#DejaVuSans-46"/>
       <use x="95.410156" xlink:href="#DejaVuSans-50"/>
      </g>
     </g>
    </g>
    <g id="text_26">
     <!-- Mean inhibitory activity -->
     <defs>
      <path d="M 54.890625 33.015625 
L 54.890625 0 
L 45.90625 0 
L 45.90625 32.71875 
Q 45.90625 40.484375 42.875 44.328125 
Q 39.84375 48.1875 33.796875 48.1875 
Q 26.515625 48.1875 22.3125 43.546875 
Q 18.109375 38.921875 18.109375 30.90625 
L 18.109375 0 
L 9.078125 0 
L 9.078125 75.984375 
L 18.109375 75.984375 
L 18.109375 46.1875 
Q 21.34375 51.125 25.703125 53.5625 
Q 30.078125 56 35.796875 56 
Q 45.21875 56 50.046875 50.171875 
Q 54.890625 44.34375 54.890625 33.015625 
z
" id="DejaVuSans-104"/>
     </defs>
     <g transform="translate(341.1275 208.8125)rotate(-90)scale(0.16 -0.16)">
      <use xlink:href="#DejaVuSans-77"/>
      <use x="86.279297" xlink:href="#DejaVuSans-101"/>
      <use x="147.802734" xlink:href="#DejaVuSans-97"/>
      <use x="209.082031" xlink:href="#DejaVuSans-110"/>
      <use x="272.460938" xlink:href="#DejaVuSans-32"/>
      <use x="304.248047" xlink:href="#DejaVuSans-105"/>
      <use x="332.03125" xlink:href="#DejaVuSans-110"/>
      <use x="395.410156" xlink:href="#DejaVuSans-104"/>
      <use x="458.789062" xlink:href="#DejaVuSans-105"/>
      <use x="486.572266" xlink:href="#DejaVuSans-98"/>
      <use x="550.048828" xlink:href="#DejaVuSans-105"/>
      <use x="577.832031" xlink:href="#DejaVuSans-116"/>
      <use x="617.041016" xlink:href="#DejaVuSans-111"/>
      <use x="678.222656" xlink:href="#DejaVuSans-114"/>
      <use x="719.335938" xlink:href="#DejaVuSans-121"/>
      <use x="778.515625" xlink:href="#DejaVuSans-32"/>
      <use x="810.302734" xlink:href="#DejaVuSans-97"/>
      <use x="871.582031" xlink:href="#DejaVuSans-99"/>
      <use x="926.5625" xlink:href="#DejaVuSans-116"/>
      <use x="965.771484" xlink:href="#DejaVuSans-105"/>
      <use x="993.554688" xlink:href="#DejaVuSans-118"/>
      <use x="1052.734375" xlink:href="#DejaVuSans-105"/>
      <use x="1080.517578" xlink:href="#DejaVuSans-116"/>
      <use x="1119.726562" xlink:href="#DejaVuSans-121"/>
     </g>
    </g>
   </g>
   <g id="patch_6">
    <path d="M 380.9 218.2 
L 380.9 10.8 
" style="fill:none;stroke:#000000;stroke-linecap:square;stroke-linejoin:miter;stroke-width:0.8;"/>
   </g>
   <g id="patch_7">
    <path d="M 380.9 218.2 
L 637.2 218.2 
" style="fill:none;stroke:#000000;stroke-linecap:square;stroke-linejoin:miter;stroke-width:0.8;"/>
   </g>
  </g>
 </g>
 <defs>
  <clipPath id="p749683f16f">
   <rect height="207.4" width="256.3" x="62.3" y="10.8"/>
  </clipPath>
  <clipPath id="p6428fc5a53">
   <rect height="207.4" width="256.3" x="380.9" y="10.8"/>
  </clipPath>
 </defs>
</svg>
