<?xml version="1.0" encoding="utf-8" standalone="no"?>
<!DOCTYPE svg PUBLIC "-//W3C//DTD SVG 1.1//EN"
  "http://www.w3.org/Graphics/SVG/1.1/DTD/svg11.dtd">
<!-- Created with matplotlib (https://matplotlib.org/) -->
<svg height="270pt" version="1.1" viewBox="0 0 648 270" width="648pt" xmlns="http://www.w3.org/2000/svg" xmlns:xlink="http://www.w3.org/1999/xlink">
 <defs>
  <style type="text/css">
*{stroke-linecap:butt;stroke-linejoin:round;}
  </style>
 </defs>
 <g id="figure_1">
  <g id="patch_1">
   <path d="M 0 270 
L 648 270 
L 648 0 
L 0 0 
z
" style="fill:#ffffff;"/>
  </g>
  <g id="axes_1">
   <g id="patch_2">
    <path d="M 62.3 218.2 
L 318.6 218.2 
L 318.6 10.8 
L 62.3 10.8 
z
" style="fill:#ffffff;"/>
   </g>
   <g id="PolyCollection_1">
    <defs>
     <path d="M 62.3 -249.772727 
L 62.3 -248.952045 
L 68.402381 -245.036843 
L 74.504762 -243.893877 
L 80.607143 -248.807141 
L 86.709524 -102.140032 
L 92.811905 -187.144268 
L 98.914286 -186.878021 
L 105.016667 -186.944013 
L 111.119048 -186.746742 
L 117.221429 -187.047719 
L 123.32381 -186.74693 
L 129.42619 -186.922182 
L 135.528571 -187.017728 
L 141.630952 -187.066616 
L 147.733333 -187.069768 
L 153.835714 -187.000562 
L 159.938095 -187.011043 
L 166.040476 -186.939072 
L 172.142857 -186.941756 
L 178.245238 -186.946164 
L 184.347619 -186.81719 
L 190.45 -186.888423 
L 196.552381 -186.995318 
L 202.654762 -185.641122 
L 208.757143 -186.501487 
L 214.859524 -186.883799 
L 220.961905 -187.008302 
L 227.064286 -186.053374 
L 233.166667 -186.856548 
L 239.269048 -187.139859 
L 245.371429 -187.00089 
L 251.47381 -187.077784 
L 257.57619 -186.906166 
L 263.678571 -186.894363 
L 269.780952 -186.951651 
L 275.883333 -186.905936 
L 281.985714 -187.117869 
L 288.088095 -187.019488 
L 294.190476 -187.05584 
L 300.292857 -187.054454 
L 306.395238 -187.007255 
L 312.497619 -187.050396 
L 318.6 -186.903444 
L 318.6 -187.476711 
L 318.6 -187.476711 
L 312.497619 -187.586051 
L 306.395238 -187.565203 
L 300.292857 -187.603124 
L 294.190476 -187.62381 
L 288.088095 -187.595521 
L 281.985714 -187.690103 
L 275.883333 -187.496142 
L 269.780952 -187.557324 
L 263.678571 -187.507806 
L 257.57619 -187.517548 
L 251.47381 -187.601074 
L 245.371429 -187.505043 
L 239.269048 -187.645472 
L 233.166667 -187.482087 
L 227.064286 -187.323183 
L 220.961905 -187.542442 
L 214.859524 -187.475519 
L 208.757143 -187.204454 
L 202.654762 -187.21902 
L 196.552381 -187.555953 
L 190.45 -187.470174 
L 184.347619 -187.41331 
L 178.245238 -187.519986 
L 172.142857 -187.588389 
L 166.040476 -187.547145 
L 159.938095 -187.670292 
L 153.835714 -187.571496 
L 147.733333 -187.609087 
L 141.630952 -187.678344 
L 135.528571 -187.553833 
L 129.42619 -187.501058 
L 123.32381 -187.418322 
L 117.221429 -187.588384 
L 111.119048 -187.506911 
L 105.016667 -187.454756 
L 98.914286 -187.481542 
L 92.811905 -190.140378 
L 86.709524 -111.410446 
L 80.607143 -248.807141 
L 74.504762 -249.24713 
L 68.402381 -249.428192 
L 62.3 -249.772727 
z
" id="m1b652617cc" style="stroke:#ee82ee;stroke-opacity:0.2;"/>
    </defs>
    <g clip-path="url(#pbdcc36e904)">
     <use style="fill:#ee82ee;fill-opacity:0.2;stroke:#ee82ee;stroke-opacity:0.2;" x="0" xlink:href="#m1b652617cc" y="270"/>
    </g>
   </g>
   <g id="PolyCollection_2">
    <defs>
     <path d="M 62.3 -249.772727 
L 62.3 -248.952045 
L 68.402381 -245.036843 
L 74.504762 -243.893877 
L 80.607143 -248.807141 
L 86.709524 -77.086317 
L 92.811905 -159.925929 
L 98.914286 -159.125344 
L 105.016667 -168.856831 
L 111.119048 -169.129736 
L 117.221429 -168.701315 
L 123.32381 -168.626638 
L 129.42619 -168.660574 
L 135.528571 -169.003321 
L 141.630952 -168.586757 
L 147.733333 -168.63589 
L 153.835714 -168.620909 
L 159.938095 -168.319613 
L 166.040476 -168.55099 
L 172.142857 -168.53556 
L 178.245238 -168.612435 
L 184.347619 -168.528088 
L 190.45 -168.405629 
L 196.552381 -168.594354 
L 202.654762 -168.526813 
L 208.757143 -168.707436 
L 214.859524 -168.435391 
L 220.961905 -168.71755 
L 227.064286 -168.747542 
L 233.166667 -168.707131 
L 239.269048 -168.649962 
L 245.371429 -168.743487 
L 251.47381 -168.508306 
L 257.57619 -168.684202 
L 263.678571 -168.495858 
L 269.780952 -168.503143 
L 275.883333 -168.277593 
L 281.985714 -168.432594 
L 288.088095 -167.312877 
L 294.190476 -168.591229 
L 300.292857 -168.586765 
L 306.395238 -168.596824 
L 312.497619 -168.629483 
L 318.6 -168.567799 
L 318.6 -169.059166 
L 318.6 -169.059166 
L 312.497619 -169.191758 
L 306.395238 -169.094728 
L 300.292857 -169.14868 
L 294.190476 -169.144666 
L 288.088095 -168.770715 
L 281.985714 -168.981612 
L 275.883333 -168.85298 
L 269.780952 -169.126122 
L 263.678571 -169.047039 
L 257.57619 -169.308446 
L 251.47381 -169.055741 
L 245.371429 -169.291419 
L 239.269048 -169.126682 
L 233.166667 -169.198576 
L 227.064286 -169.264786 
L 220.961905 -169.165912 
L 214.859524 -169.042471 
L 208.757143 -169.24153 
L 202.654762 -169.080618 
L 196.552381 -169.075218 
L 190.45 -169.028519 
L 184.347619 -169.012827 
L 178.245238 -169.14394 
L 172.142857 -169.093253 
L 166.040476 -169.054817 
L 159.938095 -168.988425 
L 153.835714 -169.13483 
L 147.733333 -169.140579 
L 141.630952 -169.148647 
L 135.528571 -170.308825 
L 129.42619 -169.181081 
L 123.32381 -169.128968 
L 117.221429 -169.203783 
L 111.119048 -172.259806 
L 105.016667 -169.38965 
L 98.914286 -166.940437 
L 92.811905 -169.820052 
L 86.709524 -84.739431 
L 80.607143 -248.807141 
L 74.504762 -249.24713 
L 68.402381 -249.428192 
L 62.3 -249.772727 
z
" id="m08846ca8d6" style="stroke:#da70d6;stroke-opacity:0.2;"/>
    </defs>
    <g clip-path="url(#pbdcc36e904)">
     <use style="fill:#da70d6;fill-opacity:0.2;stroke:#da70d6;stroke-opacity:0.2;" x="0" xlink:href="#m08846ca8d6" y="270"/>
    </g>
   </g>
   <g id="PolyCollection_3">
    <defs>
     <path d="M 62.3 -249.772727 
L 62.3 -248.952045 
L 68.402381 -245.036843 
L 74.504762 -243.893877 
L 80.607143 -248.807141 
L 86.709524 -61.227273 
L 92.811905 -124.770293 
L 98.914286 -127.533391 
L 105.016667 -129.946635 
L 111.119048 -129.719343 
L 117.221429 -133.648886 
L 123.32381 -133.288941 
L 129.42619 -133.24794 
L 135.528571 -133.191293 
L 141.630952 -129.159772 
L 147.733333 -132.030407 
L 153.835714 -133.189508 
L 159.938095 -129.140524 
L 166.040476 -133.099906 
L 172.142857 -133.073614 
L 178.245238 -133.129296 
L 184.347619 -131.936078 
L 190.45 -133.022135 
L 196.552381 -133.175499 
L 202.654762 -133.049992 
L 208.757143 -132.971961 
L 214.859524 -132.989077 
L 220.961905 -133.122311 
L 227.064286 -132.46688 
L 233.166667 -133.114686 
L 239.269048 -133.04415 
L 245.371429 -133.100886 
L 251.47381 -133.064132 
L 257.57619 -133.15175 
L 263.678571 -132.996975 
L 269.780952 -133.050244 
L 275.883333 -133.006883 
L 281.985714 -133.121421 
L 288.088095 -133.073963 
L 294.190476 -133.049402 
L 300.292857 -132.977953 
L 306.395238 -132.994965 
L 312.497619 -132.970085 
L 318.6 -132.987596 
L 318.6 -133.556512 
L 318.6 -133.556512 
L 312.497619 -133.508995 
L 306.395238 -133.548305 
L 300.292857 -133.544489 
L 294.190476 -133.729769 
L 288.088095 -133.596062 
L 281.985714 -133.614126 
L 275.883333 -133.51426 
L 269.780952 -133.622517 
L 263.678571 -133.546891 
L 257.57619 -133.647849 
L 251.47381 -133.563559 
L 245.371429 -133.590965 
L 239.269048 -133.584185 
L 233.166667 -133.642843 
L 227.064286 -133.476759 
L 220.961905 -133.634066 
L 214.859524 -133.532903 
L 208.757143 -133.441314 
L 202.654762 -133.600077 
L 196.552381 -133.644665 
L 190.45 -133.585846 
L 184.347619 -133.482537 
L 178.245238 -133.626967 
L 172.142857 -133.619337 
L 166.040476 -133.636143 
L 159.938095 -133.256808 
L 153.835714 -133.695454 
L 147.733333 -136.144904 
L 141.630952 -133.397894 
L 135.528571 -133.736475 
L 129.42619 -133.763832 
L 123.32381 -133.787434 
L 117.221429 -136.638995 
L 111.119048 -133.71708 
L 105.016667 -133.801703 
L 98.914286 -133.164593 
L 92.811905 -129.822762 
L 86.709524 -68.017091 
L 80.607143 -248.807141 
L 74.504762 -249.24713 
L 68.402381 -249.428192 
L 62.3 -249.772727 
z
" id="ma8e1158c56" style="stroke:#97178f;stroke-opacity:0.2;"/>
    </defs>
    <g clip-path="url(#pbdcc36e904)">
     <use style="fill:#97178f;fill-opacity:0.2;stroke:#97178f;stroke-opacity:0.2;" x="0" xlink:href="#ma8e1158c56" y="270"/>
    </g>
   </g>
   <g id="line2d_1">
    <path clip-path="url(#pbdcc36e904)" d="M 62.3 20.637614 
L 68.402381 22.767483 
L 74.504762 23.429497 
L 80.607143 21.192859 
L 86.709524 163.224761 
L 92.811905 81.357677 
L 98.914286 82.820218 
L 105.016667 82.800616 
L 111.119048 82.873173 
L 117.221429 82.681949 
L 123.32381 82.917374 
L 129.42619 82.78838 
L 135.528571 82.714219 
L 141.630952 82.62752 
L 147.733333 82.660573 
L 153.835714 82.713971 
L 159.938095 82.659332 
L 166.040476 82.756891 
L 172.142857 82.734928 
L 178.245238 82.766925 
L 184.347619 82.88475 
L 190.45 82.820702 
L 196.552381 82.724365 
L 202.654762 83.569929 
L 208.757143 83.147029 
L 214.859524 82.820341 
L 220.961905 82.724628 
L 227.064286 83.311722 
L 233.166667 82.830683 
L 239.269048 82.607334 
L 245.371429 82.747034 
L 251.47381 82.660571 
L 257.57619 82.788143 
L 263.678571 82.798915 
L 269.780952 82.745512 
L 275.883333 82.798961 
L 281.985714 82.596014 
L 288.088095 82.692495 
L 294.190476 82.660175 
L 300.292857 82.671211 
L 306.395238 82.713771 
L 312.497619 82.681776 
L 318.6 82.809923 
" style="fill:none;stroke:#ee82ee;stroke-linecap:square;stroke-width:1.5;"/>
   </g>
   <g id="line2d_2">
    <path clip-path="url(#pbdcc36e904)" d="M 62.3 20.637614 
L 68.402381 22.767483 
L 74.504762 23.429497 
L 80.607143 21.192859 
L 86.709524 189.087126 
L 92.811905 105.127009 
L 98.914286 106.96711 
L 105.016667 100.876759 
L 111.119048 99.305229 
L 117.221429 101.047451 
L 123.32381 101.122197 
L 129.42619 101.079173 
L 135.528571 100.343927 
L 141.630952 101.132298 
L 147.733333 101.111766 
L 153.835714 101.122131 
L 159.938095 101.345981 
L 166.040476 101.197096 
L 172.142857 101.185593 
L 178.245238 101.121813 
L 184.347619 101.229543 
L 190.45 101.282926 
L 196.552381 101.165214 
L 202.654762 101.196285 
L 208.757143 101.025517 
L 214.859524 101.261069 
L 220.961905 101.058269 
L 227.064286 100.993836 
L 233.166667 101.047147 
L 239.269048 101.111678 
L 245.371429 100.982547 
L 251.47381 101.217977 
L 257.57619 101.003676 
L 263.678571 101.228552 
L 269.780952 101.185368 
L 275.883333 101.434714 
L 281.985714 101.292897 
L 288.088095 101.958204 
L 294.190476 101.132053 
L 300.292857 101.132277 
L 306.395238 101.154224 
L 312.497619 101.089379 
L 318.6 101.186518 
" style="fill:none;stroke:#da70d6;stroke-linecap:square;stroke-width:1.5;"/>
   </g>
   <g id="line2d_3">
    <path clip-path="url(#pbdcc36e904)" d="M 62.3 20.637614 
L 68.402381 22.767483 
L 74.504762 23.429497 
L 80.607143 21.192859 
L 86.709524 205.377818 
L 92.811905 142.703473 
L 98.914286 139.651008 
L 105.016667 138.125831 
L 111.119048 138.281788 
L 117.221429 134.856059 
L 123.32381 136.461813 
L 129.42619 136.494114 
L 135.528571 136.536116 
L 141.630952 138.721167 
L 147.733333 135.912345 
L 153.835714 136.557519 
L 159.938095 138.801334 
L 166.040476 136.631976 
L 172.142857 136.653524 
L 178.245238 136.621868 
L 184.347619 137.290693 
L 190.45 136.69601 
L 196.552381 136.589918 
L 202.654762 136.674966 
L 208.757143 136.793363 
L 214.859524 136.73901 
L 220.961905 136.621812 
L 227.064286 137.02818 
L 233.166667 136.621235 
L 239.269048 136.685833 
L 245.371429 136.654074 
L 251.47381 136.686154 
L 257.57619 136.600201 
L 263.678571 136.728067 
L 269.780952 136.66362 
L 275.883333 136.739429 
L 281.985714 136.632226 
L 288.088095 136.664988 
L 294.190476 136.610415 
L 300.292857 136.738779 
L 306.395238 136.728365 
L 312.497619 136.76046 
L 318.6 136.727946 
" style="fill:none;stroke:#97178f;stroke-linecap:square;stroke-width:1.5;"/>
   </g>
   <g id="matplotlib.axis_1">
    <g id="xtick_1">
     <g id="line2d_4">
      <defs>
       <path d="M 0 0 
L 0 3.5 
" id="mb15ca0b85f" style="stroke:#000000;stroke-width:0.8;"/>
      </defs>
      <g>
       <use style="stroke:#000000;stroke-width:0.8;" x="86.709524" xlink:href="#mb15ca0b85f" y="218.2"/>
      </g>
     </g>
     <g id="text_1">
      <!-- 1000 -->
      <defs>
       <path d="M 12.40625 8.296875 
L 28.515625 8.296875 
L 28.515625 63.921875 
L 10.984375 60.40625 
L 10.984375 69.390625 
L 28.421875 72.90625 
L 38.28125 72.90625 
L 38.28125 8.296875 
L 54.390625 8.296875 
L 54.390625 0 
L 12.40625 0 
z
" id="DejaVuSans-49"/>
       <path d="M 31.78125 66.40625 
Q 24.171875 66.40625 20.328125 58.90625 
Q 16.5 51.421875 16.5 36.375 
Q 16.5 21.390625 20.328125 13.890625 
Q 24.171875 6.390625 31.78125 6.390625 
Q 39.453125 6.390625 43.28125 13.890625 
Q 47.125 21.390625 47.125 36.375 
Q 47.125 51.421875 43.28125 58.90625 
Q 39.453125 66.40625 31.78125 66.40625 
z
M 31.78125 74.21875 
Q 44.046875 74.21875 50.515625 64.515625 
Q 56.984375 54.828125 56.984375 36.375 
Q 56.984375 17.96875 50.515625 8.265625 
Q 44.046875 -1.421875 31.78125 -1.421875 
Q 19.53125 -1.421875 13.0625 8.265625 
Q 6.59375 17.96875 6.59375 36.375 
Q 6.59375 54.828125 13.0625 64.515625 
Q 19.53125 74.21875 31.78125 74.21875 
z
" id="DejaVuSans-48"/>
      </defs>
      <g transform="translate(66.349524 237.3575)scale(0.16 -0.16)">
       <use xlink:href="#DejaVuSans-49"/>
       <use x="63.623047" xlink:href="#DejaVuSans-48"/>
       <use x="127.246094" xlink:href="#DejaVuSans-48"/>
       <use x="190.869141" xlink:href="#DejaVuSans-48"/>
      </g>
     </g>
    </g>
    <g id="xtick_2">
     <g id="line2d_5">
      <g>
       <use style="stroke:#000000;stroke-width:0.8;" x="147.733333" xlink:href="#mb15ca0b85f" y="218.2"/>
      </g>
     </g>
     <g id="text_2">
      <!-- 2000 -->
      <defs>
       <path d="M 19.1875 8.296875 
L 53.609375 8.296875 
L 53.609375 0 
L 7.328125 0 
L 7.328125 8.296875 
Q 12.9375 14.109375 22.625 23.890625 
Q 32.328125 33.6875 34.8125 36.53125 
Q 39.546875 41.84375 41.421875 45.53125 
Q 43.3125 49.21875 43.3125 52.78125 
Q 43.3125 58.59375 39.234375 62.25 
Q 35.15625 65.921875 28.609375 65.921875 
Q 23.96875 65.921875 18.8125 64.3125 
Q 13.671875 62.703125 7.8125 59.421875 
L 7.8125 69.390625 
Q 13.765625 71.78125 18.9375 73 
Q 24.125 74.21875 28.421875 74.21875 
Q 39.75 74.21875 46.484375 68.546875 
Q 53.21875 62.890625 53.21875 53.421875 
Q 53.21875 48.921875 51.53125 44.890625 
Q 49.859375 40.875 45.40625 35.40625 
Q 44.1875 33.984375 37.640625 27.21875 
Q 31.109375 20.453125 19.1875 8.296875 
z
" id="DejaVuSans-50"/>
      </defs>
      <g transform="translate(127.373333 237.3575)scale(0.16 -0.16)">
       <use xlink:href="#DejaVuSans-50"/>
       <use x="63.623047" xlink:href="#DejaVuSans-48"/>
       <use x="127.246094" xlink:href="#DejaVuSans-48"/>
       <use x="190.869141" xlink:href="#DejaVuSans-48"/>
      </g>
     </g>
    </g>
    <g id="xtick_3">
     <g id="line2d_6">
      <g>
       <use style="stroke:#000000;stroke-width:0.8;" x="208.757143" xlink:href="#mb15ca0b85f" y="218.2"/>
      </g>
     </g>
     <g id="text_3">
      <!-- 3000 -->
      <defs>
       <path d="M 40.578125 39.3125 
Q 47.65625 37.796875 51.625 33 
Q 55.609375 28.21875 55.609375 21.1875 
Q 55.609375 10.40625 48.1875 4.484375 
Q 40.765625 -1.421875 27.09375 -1.421875 
Q 22.515625 -1.421875 17.65625 -0.515625 
Q 12.796875 0.390625 7.625 2.203125 
L 7.625 11.71875 
Q 11.71875 9.328125 16.59375 8.109375 
Q 21.484375 6.890625 26.8125 6.890625 
Q 36.078125 6.890625 40.9375 10.546875 
Q 45.796875 14.203125 45.796875 21.1875 
Q 45.796875 27.640625 41.28125 31.265625 
Q 36.765625 34.90625 28.71875 34.90625 
L 20.21875 34.90625 
L 20.21875 43.015625 
L 29.109375 43.015625 
Q 36.375 43.015625 40.234375 45.921875 
Q 44.09375 48.828125 44.09375 54.296875 
Q 44.09375 59.90625 40.109375 62.90625 
Q 36.140625 65.921875 28.71875 65.921875 
Q 24.65625 65.921875 20.015625 65.03125 
Q 15.375 64.15625 9.8125 62.3125 
L 9.8125 71.09375 
Q 15.4375 72.65625 20.34375 73.4375 
Q 25.25 74.21875 29.59375 74.21875 
Q 40.828125 74.21875 47.359375 69.109375 
Q 53.90625 64.015625 53.90625 55.328125 
Q 53.90625 49.265625 50.4375 45.09375 
Q 46.96875 40.921875 40.578125 39.3125 
z
" id="DejaVuSans-51"/>
      </defs>
      <g transform="translate(188.397143 237.3575)scale(0.16 -0.16)">
       <use xlink:href="#DejaVuSans-51"/>
       <use x="63.623047" xlink:href="#DejaVuSans-48"/>
       <use x="127.246094" xlink:href="#DejaVuSans-48"/>
       <use x="190.869141" xlink:href="#DejaVuSans-48"/>
      </g>
     </g>
    </g>
    <g id="xtick_4">
     <g id="line2d_7">
      <g>
       <use style="stroke:#000000;stroke-width:0.8;" x="269.780952" xlink:href="#mb15ca0b85f" y="218.2"/>
      </g>
     </g>
     <g id="text_4">
      <!-- 4000 -->
      <defs>
       <path d="M 37.796875 64.3125 
L 12.890625 25.390625 
L 37.796875 25.390625 
z
M 35.203125 72.90625 
L 47.609375 72.90625 
L 47.609375 25.390625 
L 58.015625 25.390625 
L 58.015625 17.1875 
L 47.609375 17.1875 
L 47.609375 0 
L 37.796875 0 
L 37.796875 17.1875 
L 4.890625 17.1875 
L 4.890625 26.703125 
z
" id="DejaVuSans-52"/>
      </defs>
      <g transform="translate(249.420952 237.3575)scale(0.16 -0.16)">
       <use xlink:href="#DejaVuSans-52"/>
       <use x="63.623047" xlink:href="#DejaVuSans-48"/>
       <use x="127.246094" xlink:href="#DejaVuSans-48"/>
       <use x="190.869141" xlink:href="#DejaVuSans-48"/>
      </g>
     </g>
    </g>
    <g id="text_5">
     <!-- Rendition number -->
     <defs>
      <path d="M 44.390625 34.1875 
Q 47.5625 33.109375 50.5625 29.59375 
Q 53.5625 26.078125 56.59375 19.921875 
L 66.609375 0 
L 56 0 
L 46.6875 18.703125 
Q 43.0625 26.03125 39.671875 28.421875 
Q 36.28125 30.8125 30.421875 30.8125 
L 19.671875 30.8125 
L 19.671875 0 
L 9.8125 0 
L 9.8125 72.90625 
L 32.078125 72.90625 
Q 44.578125 72.90625 50.734375 67.671875 
Q 56.890625 62.453125 56.890625 51.90625 
Q 56.890625 45.015625 53.6875 40.46875 
Q 50.484375 35.9375 44.390625 34.1875 
z
M 19.671875 64.796875 
L 19.671875 38.921875 
L 32.078125 38.921875 
Q 39.203125 38.921875 42.84375 42.21875 
Q 46.484375 45.515625 46.484375 51.90625 
Q 46.484375 58.296875 42.84375 61.546875 
Q 39.203125 64.796875 32.078125 64.796875 
z
" id="DejaVuSans-82"/>
      <path d="M 56.203125 29.59375 
L 56.203125 25.203125 
L 14.890625 25.203125 
Q 15.484375 15.921875 20.484375 11.0625 
Q 25.484375 6.203125 34.421875 6.203125 
Q 39.59375 6.203125 44.453125 7.46875 
Q 49.3125 8.734375 54.109375 11.28125 
L 54.109375 2.78125 
Q 49.265625 0.734375 44.1875 -0.34375 
Q 39.109375 -1.421875 33.890625 -1.421875 
Q 20.796875 -1.421875 13.15625 6.1875 
Q 5.515625 13.8125 5.515625 26.8125 
Q 5.515625 40.234375 12.765625 48.109375 
Q 20.015625 56 32.328125 56 
Q 43.359375 56 49.78125 48.890625 
Q 56.203125 41.796875 56.203125 29.59375 
z
M 47.21875 32.234375 
Q 47.125 39.59375 43.09375 43.984375 
Q 39.0625 48.390625 32.421875 48.390625 
Q 24.90625 48.390625 20.390625 44.140625 
Q 15.875 39.890625 15.1875 32.171875 
z
" id="DejaVuSans-101"/>
      <path d="M 54.890625 33.015625 
L 54.890625 0 
L 45.90625 0 
L 45.90625 32.71875 
Q 45.90625 40.484375 42.875 44.328125 
Q 39.84375 48.1875 33.796875 48.1875 
Q 26.515625 48.1875 22.3125 43.546875 
Q 18.109375 38.921875 18.109375 30.90625 
L 18.109375 0 
L 9.078125 0 
L 9.078125 54.6875 
L 18.109375 54.6875 
L 18.109375 46.1875 
Q 21.34375 51.125 25.703125 53.5625 
Q 30.078125 56 35.796875 56 
Q 45.21875 56 50.046875 50.171875 
Q 54.890625 44.34375 54.890625 33.015625 
z
" id="DejaVuSans-110"/>
      <path d="M 45.40625 46.390625 
L 45.40625 75.984375 
L 54.390625 75.984375 
L 54.390625 0 
L 45.40625 0 
L 45.40625 8.203125 
Q 42.578125 3.328125 38.25 0.953125 
Q 33.9375 -1.421875 27.875 -1.421875 
Q 17.96875 -1.421875 11.734375 6.484375 
Q 5.515625 14.40625 5.515625 27.296875 
Q 5.515625 40.1875 11.734375 48.09375 
Q 17.96875 56 27.875 56 
Q 33.9375 56 38.25 53.625 
Q 42.578125 51.265625 45.40625 46.390625 
z
M 14.796875 27.296875 
Q 14.796875 17.390625 18.875 11.75 
Q 22.953125 6.109375 30.078125 6.109375 
Q 37.203125 6.109375 41.296875 11.75 
Q 45.40625 17.390625 45.40625 27.296875 
Q 45.40625 37.203125 41.296875 42.84375 
Q 37.203125 48.484375 30.078125 48.484375 
Q 22.953125 48.484375 18.875 42.84375 
Q 14.796875 37.203125 14.796875 27.296875 
z
" id="DejaVuSans-100"/>
      <path d="M 9.421875 54.6875 
L 18.40625 54.6875 
L 18.40625 0 
L 9.421875 0 
z
M 9.421875 75.984375 
L 18.40625 75.984375 
L 18.40625 64.59375 
L 9.421875 64.59375 
z
" id="DejaVuSans-105"/>
      <path d="M 18.3125 70.21875 
L 18.3125 54.6875 
L 36.8125 54.6875 
L 36.8125 47.703125 
L 18.3125 47.703125 
L 18.3125 18.015625 
Q 18.3125 11.328125 20.140625 9.421875 
Q 21.96875 7.515625 27.59375 7.515625 
L 36.8125 7.515625 
L 36.8125 0 
L 27.59375 0 
Q 17.1875 0 13.234375 3.875 
Q 9.28125 7.765625 9.28125 18.015625 
L 9.28125 47.703125 
L 2.6875 47.703125 
L 2.6875 54.6875 
L 9.28125 54.6875 
L 9.28125 70.21875 
z
" id="DejaVuSans-116"/>
      <path d="M 30.609375 48.390625 
Q 23.390625 48.390625 19.1875 42.75 
Q 14.984375 37.109375 14.984375 27.296875 
Q 14.984375 17.484375 19.15625 11.84375 
Q 23.34375 6.203125 30.609375 6.203125 
Q 37.796875 6.203125 41.984375 11.859375 
Q 46.1875 17.53125 46.1875 27.296875 
Q 46.1875 37.015625 41.984375 42.703125 
Q 37.796875 48.390625 30.609375 48.390625 
z
M 30.609375 56 
Q 42.328125 56 49.015625 48.375 
Q 55.71875 40.765625 55.71875 27.296875 
Q 55.71875 13.875 49.015625 6.21875 
Q 42.328125 -1.421875 30.609375 -1.421875 
Q 18.84375 -1.421875 12.171875 6.21875 
Q 5.515625 13.875 5.515625 27.296875 
Q 5.515625 40.765625 12.171875 48.375 
Q 18.84375 56 30.609375 56 
z
" id="DejaVuSans-111"/>
      <path id="DejaVuSans-32"/>
      <path d="M 8.5 21.578125 
L 8.5 54.6875 
L 17.484375 54.6875 
L 17.484375 21.921875 
Q 17.484375 14.15625 20.5 10.265625 
Q 23.53125 6.390625 29.59375 6.390625 
Q 36.859375 6.390625 41.078125 11.03125 
Q 45.3125 15.671875 45.3125 23.6875 
L 45.3125 54.6875 
L 54.296875 54.6875 
L 54.296875 0 
L 45.3125 0 
L 45.3125 8.40625 
Q 42.046875 3.421875 37.71875 1 
Q 33.40625 -1.421875 27.6875 -1.421875 
Q 18.265625 -1.421875 13.375 4.4375 
Q 8.5 10.296875 8.5 21.578125 
z
M 31.109375 56 
z
" id="DejaVuSans-117"/>
      <path d="M 52 44.1875 
Q 55.375 50.25 60.0625 53.125 
Q 64.75 56 71.09375 56 
Q 79.640625 56 84.28125 50.015625 
Q 88.921875 44.046875 88.921875 33.015625 
L 88.921875 0 
L 79.890625 0 
L 79.890625 32.71875 
Q 79.890625 40.578125 77.09375 44.375 
Q 74.3125 48.1875 68.609375 48.1875 
Q 61.625 48.1875 57.5625 43.546875 
Q 53.515625 38.921875 53.515625 30.90625 
L 53.515625 0 
L 44.484375 0 
L 44.484375 32.71875 
Q 44.484375 40.625 41.703125 44.40625 
Q 38.921875 48.1875 33.109375 48.1875 
Q 26.21875 48.1875 22.15625 43.53125 
Q 18.109375 38.875 18.109375 30.90625 
L 18.109375 0 
L 9.078125 0 
L 9.078125 54.6875 
L 18.109375 54.6875 
L 18.109375 46.1875 
Q 21.1875 51.21875 25.484375 53.609375 
Q 29.78125 56 35.6875 56 
Q 41.65625 56 45.828125 52.96875 
Q 50 49.953125 52 44.1875 
z
" id="DejaVuSans-109"/>
      <path d="M 48.6875 27.296875 
Q 48.6875 37.203125 44.609375 42.84375 
Q 40.53125 48.484375 33.40625 48.484375 
Q 26.265625 48.484375 22.1875 42.84375 
Q 18.109375 37.203125 18.109375 27.296875 
Q 18.109375 17.390625 22.1875 11.75 
Q 26.265625 6.109375 33.40625 6.109375 
Q 40.53125 6.109375 44.609375 11.75 
Q 48.6875 17.390625 48.6875 27.296875 
z
M 18.109375 46.390625 
Q 20.953125 51.265625 25.265625 53.625 
Q 29.59375 56 35.59375 56 
Q 45.5625 56 51.78125 48.09375 
Q 58.015625 40.1875 58.015625 27.296875 
Q 58.015625 14.40625 51.78125 6.484375 
Q 45.5625 -1.421875 35.59375 -1.421875 
Q 29.59375 -1.421875 25.265625 0.953125 
Q 20.953125 3.328125 18.109375 8.203125 
L 18.109375 0 
L 9.078125 0 
L 9.078125 75.984375 
L 18.109375 75.984375 
z
" id="DejaVuSans-98"/>
      <path d="M 41.109375 46.296875 
Q 39.59375 47.171875 37.8125 47.578125 
Q 36.03125 48 33.890625 48 
Q 26.265625 48 22.1875 43.046875 
Q 18.109375 38.09375 18.109375 28.8125 
L 18.109375 0 
L 9.078125 0 
L 9.078125 54.6875 
L 18.109375 54.6875 
L 18.109375 46.1875 
Q 20.953125 51.171875 25.484375 53.578125 
Q 30.03125 56 36.53125 56 
Q 37.453125 56 38.578125 55.875 
Q 39.703125 55.765625 41.0625 55.515625 
z
" id="DejaVuSans-114"/>
     </defs>
     <g transform="translate(118.86875 256.8425)scale(0.16 -0.16)">
      <use xlink:href="#DejaVuSans-82"/>
      <use x="64.982422" xlink:href="#DejaVuSans-101"/>
      <use x="126.505859" xlink:href="#DejaVuSans-110"/>
      <use x="189.884766" xlink:href="#DejaVuSans-100"/>
      <use x="253.361328" xlink:href="#DejaVuSans-105"/>
      <use x="281.144531" xlink:href="#DejaVuSans-116"/>
      <use x="320.353516" xlink:href="#DejaVuSans-105"/>
      <use x="348.136719" xlink:href="#DejaVuSans-111"/>
      <use x="409.318359" xlink:href="#DejaVuSans-110"/>
      <use x="472.697266" xlink:href="#DejaVuSans-32"/>
      <use x="504.484375" xlink:href="#DejaVuSans-110"/>
      <use x="567.863281" xlink:href="#DejaVuSans-117"/>
      <use x="631.242188" xlink:href="#DejaVuSans-109"/>
      <use x="728.654297" xlink:href="#DejaVuSans-98"/>
      <use x="792.130859" xlink:href="#DejaVuSans-101"/>
      <use x="853.654297" xlink:href="#DejaVuSans-114"/>
     </g>
    </g>
   </g>
   <g id="matplotlib.axis_2">
    <g id="ytick_1">
     <g id="line2d_8">
      <defs>
       <path d="M 0 0 
L -3.5 0 
" id="m360effe8cc" style="stroke:#000000;stroke-width:0.8;"/>
      </defs>
      <g>
       <use style="stroke:#000000;stroke-width:0.8;" x="62.3" xlink:href="#m360effe8cc" y="185.921753"/>
      </g>
     </g>
     <g id="text_6">
      <!-- 0.2 -->
      <defs>
       <path d="M 10.6875 12.40625 
L 21 12.40625 
L 21 0 
L 10.6875 0 
z
" id="DejaVuSans-46"/>
      </defs>
      <g transform="translate(29.855 192.000503)scale(0.16 -0.16)">
       <use xlink:href="#DejaVuSans-48"/>
       <use x="63.623047" xlink:href="#DejaVuSans-46"/>
       <use x="95.410156" xlink:href="#DejaVuSans-50"/>
      </g>
     </g>
    </g>
    <g id="ytick_2">
     <g id="line2d_9">
      <g>
       <use style="stroke:#000000;stroke-width:0.8;" x="62.3" xlink:href="#m360effe8cc" y="144.73953"/>
      </g>
     </g>
     <g id="text_7">
      <!-- 0.4 -->
      <g transform="translate(29.855 150.81828)scale(0.16 -0.16)">
       <use xlink:href="#DejaVuSans-48"/>
       <use x="63.623047" xlink:href="#DejaVuSans-46"/>
       <use x="95.410156" xlink:href="#DejaVuSans-52"/>
      </g>
     </g>
    </g>
    <g id="ytick_3">
     <g id="line2d_10">
      <g>
       <use style="stroke:#000000;stroke-width:0.8;" x="62.3" xlink:href="#m360effe8cc" y="103.557306"/>
      </g>
     </g>
     <g id="text_8">
      <!-- 0.6 -->
      <defs>
       <path d="M 33.015625 40.375 
Q 26.375 40.375 22.484375 35.828125 
Q 18.609375 31.296875 18.609375 23.390625 
Q 18.609375 15.53125 22.484375 10.953125 
Q 26.375 6.390625 33.015625 6.390625 
Q 39.65625 6.390625 43.53125 10.953125 
Q 47.40625 15.53125 47.40625 23.390625 
Q 47.40625 31.296875 43.53125 35.828125 
Q 39.65625 40.375 33.015625 40.375 
z
M 52.59375 71.296875 
L 52.59375 62.3125 
Q 48.875 64.0625 45.09375 64.984375 
Q 41.3125 65.921875 37.59375 65.921875 
Q 27.828125 65.921875 22.671875 59.328125 
Q 17.53125 52.734375 16.796875 39.40625 
Q 19.671875 43.65625 24.015625 45.921875 
Q 28.375 48.1875 33.59375 48.1875 
Q 44.578125 48.1875 50.953125 41.515625 
Q 57.328125 34.859375 57.328125 23.390625 
Q 57.328125 12.15625 50.6875 5.359375 
Q 44.046875 -1.421875 33.015625 -1.421875 
Q 20.359375 -1.421875 13.671875 8.265625 
Q 6.984375 17.96875 6.984375 36.375 
Q 6.984375 53.65625 15.1875 63.9375 
Q 23.390625 74.21875 37.203125 74.21875 
Q 40.921875 74.21875 44.703125 73.484375 
Q 48.484375 72.75 52.59375 71.296875 
z
" id="DejaVuSans-54"/>
      </defs>
      <g transform="translate(29.855 109.636056)scale(0.16 -0.16)">
       <use xlink:href="#DejaVuSans-48"/>
       <use x="63.623047" xlink:href="#DejaVuSans-46"/>
       <use x="95.410156" xlink:href="#DejaVuSans-54"/>
      </g>
     </g>
    </g>
    <g id="ytick_4">
     <g id="line2d_11">
      <g>
       <use style="stroke:#000000;stroke-width:0.8;" x="62.3" xlink:href="#m360effe8cc" y="62.375083"/>
      </g>
     </g>
     <g id="text_9">
      <!-- 0.8 -->
      <defs>
       <path d="M 31.78125 34.625 
Q 24.75 34.625 20.71875 30.859375 
Q 16.703125 27.09375 16.703125 20.515625 
Q 16.703125 13.921875 20.71875 10.15625 
Q 24.75 6.390625 31.78125 6.390625 
Q 38.8125 6.390625 42.859375 10.171875 
Q 46.921875 13.96875 46.921875 20.515625 
Q 46.921875 27.09375 42.890625 30.859375 
Q 38.875 34.625 31.78125 34.625 
z
M 21.921875 38.8125 
Q 15.578125 40.375 12.03125 44.71875 
Q 8.5 49.078125 8.5 55.328125 
Q 8.5 64.0625 14.71875 69.140625 
Q 20.953125 74.21875 31.78125 74.21875 
Q 42.671875 74.21875 48.875 69.140625 
Q 55.078125 64.0625 55.078125 55.328125 
Q 55.078125 49.078125 51.53125 44.71875 
Q 48 40.375 41.703125 38.8125 
Q 48.828125 37.15625 52.796875 32.3125 
Q 56.78125 27.484375 56.78125 20.515625 
Q 56.78125 9.90625 50.3125 4.234375 
Q 43.84375 -1.421875 31.78125 -1.421875 
Q 19.734375 -1.421875 13.25 4.234375 
Q 6.78125 9.90625 6.78125 20.515625 
Q 6.78125 27.484375 10.78125 32.3125 
Q 14.796875 37.15625 21.921875 38.8125 
z
M 18.3125 54.390625 
Q 18.3125 48.734375 21.84375 45.5625 
Q 25.390625 42.390625 31.78125 42.390625 
Q 38.140625 42.390625 41.71875 45.5625 
Q 45.3125 48.734375 45.3125 54.390625 
Q 45.3125 60.0625 41.71875 63.234375 
Q 38.140625 66.40625 31.78125 66.40625 
Q 25.390625 66.40625 21.84375 63.234375 
Q 18.3125 60.0625 18.3125 54.390625 
z
" id="DejaVuSans-56"/>
      </defs>
      <g transform="translate(29.855 68.453833)scale(0.16 -0.16)">
       <use xlink:href="#DejaVuSans-48"/>
       <use x="63.623047" xlink:href="#DejaVuSans-46"/>
       <use x="95.410156" xlink:href="#DejaVuSans-56"/>
      </g>
     </g>
    </g>
    <g id="ytick_5">
     <g id="line2d_12">
      <g>
       <use style="stroke:#000000;stroke-width:0.8;" x="62.3" xlink:href="#m360effe8cc" y="21.192859"/>
      </g>
     </g>
     <g id="text_10">
      <!-- 1.0 -->
      <g transform="translate(29.855 27.271609)scale(0.16 -0.16)">
       <use xlink:href="#DejaVuSans-49"/>
       <use x="63.623047" xlink:href="#DejaVuSans-46"/>
       <use x="95.410156" xlink:href="#DejaVuSans-48"/>
      </g>
     </g>
    </g>
    <g id="text_11">
     <!-- Mean excitatory activity -->
     <defs>
      <path d="M 9.8125 72.90625 
L 24.515625 72.90625 
L 43.109375 23.296875 
L 61.8125 72.90625 
L 76.515625 72.90625 
L 76.515625 0 
L 66.890625 0 
L 66.890625 64.015625 
L 48.09375 14.015625 
L 38.1875 14.015625 
L 19.390625 64.015625 
L 19.390625 0 
L 9.8125 0 
z
" id="DejaVuSans-77"/>
      <path d="M 34.28125 27.484375 
Q 23.390625 27.484375 19.1875 25 
Q 14.984375 22.515625 14.984375 16.5 
Q 14.984375 11.71875 18.140625 8.90625 
Q 21.296875 6.109375 26.703125 6.109375 
Q 34.1875 6.109375 38.703125 11.40625 
Q 43.21875 16.703125 43.21875 25.484375 
L 43.21875 27.484375 
z
M 52.203125 31.203125 
L 52.203125 0 
L 43.21875 0 
L 43.21875 8.296875 
Q 40.140625 3.328125 35.546875 0.953125 
Q 30.953125 -1.421875 24.3125 -1.421875 
Q 15.921875 -1.421875 10.953125 3.296875 
Q 6 8.015625 6 15.921875 
Q 6 25.140625 12.171875 29.828125 
Q 18.359375 34.515625 30.609375 34.515625 
L 43.21875 34.515625 
L 43.21875 35.40625 
Q 43.21875 41.609375 39.140625 45 
Q 35.0625 48.390625 27.6875 48.390625 
Q 23 48.390625 18.546875 47.265625 
Q 14.109375 46.140625 10.015625 43.890625 
L 10.015625 52.203125 
Q 14.9375 54.109375 19.578125 55.046875 
Q 24.21875 56 28.609375 56 
Q 40.484375 56 46.34375 49.84375 
Q 52.203125 43.703125 52.203125 31.203125 
z
" id="DejaVuSans-97"/>
      <path d="M 54.890625 54.6875 
L 35.109375 28.078125 
L 55.90625 0 
L 45.3125 0 
L 29.390625 21.484375 
L 13.484375 0 
L 2.875 0 
L 24.125 28.609375 
L 4.6875 54.6875 
L 15.28125 54.6875 
L 29.78125 35.203125 
L 44.28125 54.6875 
z
" id="DejaVuSans-120"/>
      <path d="M 48.78125 52.59375 
L 48.78125 44.1875 
Q 44.96875 46.296875 41.140625 47.34375 
Q 37.3125 48.390625 33.40625 48.390625 
Q 24.65625 48.390625 19.8125 42.84375 
Q 14.984375 37.3125 14.984375 27.296875 
Q 14.984375 17.28125 19.8125 11.734375 
Q 24.65625 6.203125 33.40625 6.203125 
Q 37.3125 6.203125 41.140625 7.25 
Q 44.96875 8.296875 48.78125 10.40625 
L 48.78125 2.09375 
Q 45.015625 0.34375 40.984375 -0.53125 
Q 36.96875 -1.421875 32.421875 -1.421875 
Q 20.0625 -1.421875 12.78125 6.34375 
Q 5.515625 14.109375 5.515625 27.296875 
Q 5.515625 40.671875 12.859375 48.328125 
Q 20.21875 56 33.015625 56 
Q 37.15625 56 41.109375 55.140625 
Q 45.0625 54.296875 48.78125 52.59375 
z
" id="DejaVuSans-99"/>
      <path d="M 32.171875 -5.078125 
Q 28.375 -14.84375 24.75 -17.8125 
Q 21.140625 -20.796875 15.09375 -20.796875 
L 7.90625 -20.796875 
L 7.90625 -13.28125 
L 13.1875 -13.28125 
Q 16.890625 -13.28125 18.9375 -11.515625 
Q 21 -9.765625 23.484375 -3.21875 
L 25.09375 0.875 
L 2.984375 54.6875 
L 12.5 54.6875 
L 29.59375 11.921875 
L 46.6875 54.6875 
L 56.203125 54.6875 
z
" id="DejaVuSans-121"/>
      <path d="M 2.984375 54.6875 
L 12.5 54.6875 
L 29.59375 8.796875 
L 46.6875 54.6875 
L 56.203125 54.6875 
L 35.6875 0 
L 23.484375 0 
z
" id="DejaVuSans-118"/>
     </defs>
     <g transform="translate(22.5275 210.96375)rotate(-90)scale(0.16 -0.16)">
      <use xlink:href="#DejaVuSans-77"/>
      <use x="86.279297" xlink:href="#DejaVuSans-101"/>
      <use x="147.802734" xlink:href="#DejaVuSans-97"/>
      <use x="209.082031" xlink:href="#DejaVuSans-110"/>
      <use x="272.460938" xlink:href="#DejaVuSans-32"/>
      <use x="304.248047" xlink:href="#DejaVuSans-101"/>
      <use x="364.021484" xlink:href="#DejaVuSans-120"/>
      <use x="421.451172" xlink:href="#DejaVuSans-99"/>
      <use x="476.431641" xlink:href="#DejaVuSans-105"/>
      <use x="504.214844" xlink:href="#DejaVuSans-116"/>
      <use x="543.423828" xlink:href="#DejaVuSans-97"/>
      <use x="604.703125" xlink:href="#DejaVuSans-116"/>
      <use x="643.912109" xlink:href="#DejaVuSans-111"/>
      <use x="705.09375" xlink:href="#DejaVuSans-114"/>
      <use x="746.207031" xlink:href="#DejaVuSans-121"/>
      <use x="805.386719" xlink:href="#DejaVuSans-32"/>
      <use x="837.173828" xlink:href="#DejaVuSans-97"/>
      <use x="898.453125" xlink:href="#DejaVuSans-99"/>
      <use x="953.433594" xlink:href="#DejaVuSans-116"/>
      <use x="992.642578" xlink:href="#DejaVuSans-105"/>
      <use x="1020.425781" xlink:href="#DejaVuSans-118"/>
      <use x="1079.605469" xlink:href="#DejaVuSans-105"/>
      <use x="1107.388672" xlink:href="#DejaVuSans-116"/>
      <use x="1146.597656" xlink:href="#DejaVuSans-121"/>
     </g>
    </g>
   </g>
   <g id="patch_3">
    <path d="M 62.3 218.2 
L 62.3 10.8 
" style="fill:none;stroke:#000000;stroke-linecap:square;stroke-linejoin:miter;stroke-width:0.8;"/>
   </g>
   <g id="patch_4">
    <path d="M 62.3 218.2 
L 318.6 218.2 
" style="fill:none;stroke:#000000;stroke-linecap:square;stroke-linejoin:miter;stroke-width:0.8;"/>
   </g>
  </g>
  <g id="axes_2">
   <g id="patch_5">
    <path d="M 380.9 218.2 
L 637.2 218.2 
L 637.2 10.8 
L 380.9 10.8 
z
" style="fill:#ffffff;"/>
   </g>
   <g id="PolyCollection_4">
    <defs>
     <path d="M 380.9 -249.772727 
L 380.9 -248.919117 
L 387.002381 -245.545888 
L 393.104762 -244.452723 
L 399.207143 -247.509458 
L 405.309524 -126.731348 
L 411.411905 -244.123638 
L 417.514286 -243.431191 
L 423.616667 -243.39704 
L 429.719048 -242.912673 
L 435.821429 -242.836329 
L 441.92381 -242.542725 
L 448.02619 -242.68001 
L 454.128571 -242.209278 
L 460.230952 -242.479063 
L 466.333333 -242.354526 
L 472.435714 -242.200078 
L 478.538095 -242.215662 
L 484.640476 -241.932937 
L 490.742857 -242.047651 
L 496.845238 -241.705701 
L 502.947619 -241.821647 
L 509.05 -241.978172 
L 515.152381 -241.961813 
L 521.254762 -241.097661 
L 527.357143 -241.31978 
L 533.459524 -241.557314 
L 539.561905 -241.563915 
L 545.664286 -240.709208 
L 551.766667 -241.590686 
L 557.869048 -241.852256 
L 563.971429 -241.559967 
L 570.07381 -241.436855 
L 576.17619 -241.495399 
L 582.278571 -241.673025 
L 588.380952 -241.6067 
L 594.483333 -241.45933 
L 600.585714 -241.443719 
L 606.688095 -241.491988 
L 612.790476 -241.657121 
L 618.892857 -241.403145 
L 624.995238 -241.469007 
L 631.097619 -241.458578 
L 637.2 -241.663187 
L 637.2 -242.622143 
L 637.2 -242.622143 
L 631.097619 -242.486443 
L 624.995238 -242.353643 
L 618.892857 -242.386216 
L 612.790476 -242.692078 
L 606.688095 -242.382949 
L 600.585714 -242.476956 
L 594.483333 -242.322548 
L 588.380952 -242.557179 
L 582.278571 -242.524043 
L 576.17619 -242.417483 
L 570.07381 -242.306827 
L 563.971429 -242.529139 
L 557.869048 -242.862558 
L 551.766667 -242.458616 
L 545.664286 -242.405147 
L 539.561905 -242.468286 
L 533.459524 -242.468079 
L 527.357143 -242.216032 
L 521.254762 -242.326963 
L 515.152381 -242.80364 
L 509.05 -242.786029 
L 502.947619 -242.68279 
L 496.845238 -242.594434 
L 490.742857 -242.868967 
L 484.640476 -242.690007 
L 478.538095 -243.039898 
L 472.435714 -243.034961 
L 466.333333 -243.143747 
L 460.230952 -243.333251 
L 454.128571 -243.047811 
L 448.02619 -243.531956 
L 441.92381 -243.507787 
L 435.821429 -243.662133 
L 429.719048 -243.788256 
L 423.616667 -244.239956 
L 417.514286 -244.217397 
L 411.411905 -246.524181 
L 405.309524 -142.42119 
L 399.207143 -247.509458 
L 393.104762 -248.397822 
L 387.002381 -248.578035 
L 380.9 -249.772727 
z
" id="m17445e9c26" style="stroke:#8180ff;stroke-opacity:0.2;"/>
    </defs>
    <g clip-path="url(#p38bcace584)">
     <use style="fill:#8180ff;fill-opacity:0.2;stroke:#8180ff;stroke-opacity:0.2;" x="0" xlink:href="#m17445e9c26" y="270"/>
    </g>
   </g>
   <g id="PolyCollection_5">
    <defs>
     <path d="M 380.9 -249.772727 
L 380.9 -248.919117 
L 387.002381 -245.545888 
L 393.104762 -244.452723 
L 399.207143 -247.509458 
L 405.309524 -89.237661 
L 411.411905 -223.719711 
L 417.514286 -227.054384 
L 423.616667 -236.810141 
L 429.719048 -237.212524 
L 435.821429 -236.864934 
L 441.92381 -236.759042 
L 448.02619 -236.674102 
L 454.128571 -236.781842 
L 460.230952 -236.616833 
L 466.333333 -236.341447 
L 472.435714 -236.565374 
L 478.538095 -236.549372 
L 484.640476 -236.548023 
L 490.742857 -236.699805 
L 496.845238 -236.550418 
L 502.947619 -236.423372 
L 509.05 -236.436138 
L 515.152381 -236.549021 
L 521.254762 -236.504295 
L 527.357143 -236.580014 
L 533.459524 -236.192992 
L 539.561905 -236.437268 
L 545.664286 -236.332448 
L 551.766667 -236.399366 
L 557.869048 -236.295763 
L 563.971429 -236.067266 
L 570.07381 -236.275672 
L 576.17619 -236.348017 
L 582.278571 -236.149883 
L 588.380952 -236.196324 
L 594.483333 -236.191944 
L 600.585714 -236.027844 
L 606.688095 -235.122707 
L 612.790476 -236.122352 
L 618.892857 -236.235158 
L 624.995238 -236.217532 
L 631.097619 -236.393254 
L 637.2 -236.059629 
L 637.2 -237.12972 
L 637.2 -237.12972 
L 631.097619 -237.377301 
L 624.995238 -237.23583 
L 618.892857 -237.201703 
L 612.790476 -237.233962 
L 606.688095 -236.625973 
L 600.585714 -237.103789 
L 594.483333 -237.165163 
L 588.380952 -237.176929 
L 582.278571 -237.137888 
L 576.17619 -237.483867 
L 570.07381 -237.280003 
L 563.971429 -237.118697 
L 557.869048 -237.157689 
L 551.766667 -237.3362 
L 545.664286 -237.318491 
L 539.561905 -237.424243 
L 533.459524 -237.246499 
L 527.357143 -237.472378 
L 521.254762 -237.500942 
L 515.152381 -237.4758 
L 509.05 -237.375528 
L 502.947619 -237.381238 
L 496.845238 -237.514982 
L 490.742857 -237.711986 
L 484.640476 -237.370957 
L 478.538095 -237.519718 
L 472.435714 -237.481559 
L 466.333333 -237.233357 
L 460.230952 -237.447772 
L 454.128571 -238.596338 
L 448.02619 -237.578331 
L 441.92381 -237.581611 
L 435.821429 -237.698792 
L 429.719048 -240.297926 
L 423.616667 -237.798115 
L 417.514286 -234.181052 
L 411.411905 -232.688774 
L 405.309524 -102.358221 
L 399.207143 -247.509458 
L 393.104762 -248.397822 
L 387.002381 -248.578035 
L 380.9 -249.772727 
z
" id="mcc00e5bf92" style="stroke:#5959ff;stroke-opacity:0.2;"/>
    </defs>
    <g clip-path="url(#p38bcace584)">
     <use style="fill:#5959ff;fill-opacity:0.2;stroke:#5959ff;stroke-opacity:0.2;" x="0" xlink:href="#mcc00e5bf92" y="270"/>
    </g>
   </g>
   <g id="PolyCollection_6">
    <defs>
     <path d="M 380.9 -249.772727 
L 380.9 -248.919117 
L 387.002381 -245.545888 
L 393.104762 -244.452723 
L 399.207143 -247.509458 
L 405.309524 -61.227273 
L 411.411905 -169.835327 
L 417.514286 -186.858066 
L 423.616667 -197.30925 
L 429.719048 -200.506251 
L 435.821429 -207.173044 
L 441.92381 -207.832157 
L 448.02619 -208.675192 
L 454.128571 -209.188945 
L 460.230952 -205.399855 
L 466.333333 -208.575145 
L 472.435714 -209.86316 
L 478.538095 -205.47558 
L 484.640476 -210.05137 
L 490.742857 -210.237492 
L 496.845238 -210.638174 
L 502.947619 -209.302596 
L 509.05 -210.278481 
L 515.152381 -210.487674 
L 521.254762 -210.637453 
L 527.357143 -210.369668 
L 533.459524 -210.307361 
L 539.561905 -210.3648 
L 545.664286 -209.572021 
L 551.766667 -210.585179 
L 557.869048 -210.502905 
L 563.971429 -210.136901 
L 570.07381 -210.728456 
L 576.17619 -210.499888 
L 582.278571 -210.574831 
L 588.380952 -210.628838 
L 594.483333 -210.555131 
L 600.585714 -210.326113 
L 606.688095 -210.517672 
L 612.790476 -210.607341 
L 618.892857 -210.546396 
L 624.995238 -210.44711 
L 631.097619 -210.571532 
L 637.2 -210.323472 
L 637.2 -212.075798 
L 637.2 -212.075798 
L 631.097619 -212.263602 
L 624.995238 -212.256951 
L 618.892857 -212.216326 
L 612.790476 -212.321378 
L 606.688095 -212.185414 
L 600.585714 -212.094611 
L 594.483333 -212.290507 
L 588.380952 -212.539212 
L 582.278571 -212.223452 
L 576.17619 -212.259038 
L 570.07381 -212.478011 
L 563.971429 -211.99022 
L 557.869048 -212.272923 
L 551.766667 -212.401298 
L 545.664286 -211.596293 
L 539.561905 -212.088392 
L 533.459524 -212.224927 
L 527.357143 -212.102444 
L 521.254762 -212.320597 
L 515.152381 -212.179389 
L 509.05 -212.116831 
L 502.947619 -211.465864 
L 496.845238 -212.421008 
L 490.742857 -212.035006 
L 484.640476 -211.836857 
L 478.538095 -211.116136 
L 472.435714 -211.63695 
L 466.333333 -213.405801 
L 460.230952 -210.155058 
L 454.128571 -210.915333 
L 448.02619 -210.487499 
L 441.92381 -209.538764 
L 435.821429 -211.088113 
L 429.719048 -205.407595 
L 423.616667 -202.209002 
L 417.514286 -194.509223 
L 411.411905 -175.985226 
L 405.309524 -68.648059 
L 399.207143 -247.509458 
L 393.104762 -248.397822 
L 387.002381 -248.578035 
L 380.9 -249.772727 
z
" id="maf85d641ec" style="stroke:#040299;stroke-opacity:0.2;"/>
    </defs>
    <g clip-path="url(#p38bcace584)">
     <use style="fill:#040299;fill-opacity:0.2;stroke:#040299;stroke-opacity:0.2;" x="0" xlink:href="#maf85d641ec" y="270"/>
    </g>
   </g>
   <g id="line2d_13">
    <path clip-path="url(#p38bcace584)" d="M 380.9 20.654078 
L 387.002381 22.938039 
L 393.104762 23.574727 
L 399.207143 22.490542 
L 405.309524 135.423731 
L 411.411905 24.67609 
L 417.514286 26.175706 
L 423.616667 26.181502 
L 429.719048 26.649535 
L 435.821429 26.750769 
L 441.92381 26.974744 
L 448.02619 26.894017 
L 454.128571 27.371456 
L 460.230952 27.093843 
L 466.333333 27.250863 
L 472.435714 27.38248 
L 478.538095 27.37222 
L 484.640476 27.688528 
L 490.742857 27.541691 
L 496.845238 27.849932 
L 502.947619 27.747782 
L 509.05 27.6179 
L 515.152381 27.617274 
L 521.254762 28.287688 
L 527.357143 28.232094 
L 533.459524 27.987303 
L 539.561905 27.983899 
L 545.664286 28.442823 
L 551.766667 27.975349 
L 557.869048 27.642593 
L 563.971429 27.955447 
L 570.07381 28.128159 
L 576.17619 28.043559 
L 582.278571 27.901466 
L 588.380952 27.91806 
L 594.483333 28.109061 
L 600.585714 28.039662 
L 606.688095 28.062532 
L 612.790476 27.825401 
L 618.892857 28.105319 
L 624.995238 28.088675 
L 631.097619 28.02749 
L 637.2 27.857335 
" style="fill:none;stroke:#8180ff;stroke-linecap:square;stroke-width:1.5;"/>
   </g>
   <g id="line2d_14">
    <path clip-path="url(#p38bcace584)" d="M 380.9 20.654078 
L 387.002381 22.938039 
L 393.104762 23.574727 
L 399.207143 22.490542 
L 405.309524 174.202059 
L 411.411905 41.795758 
L 417.514286 39.382282 
L 423.616667 32.695872 
L 429.719048 31.244775 
L 435.821429 32.718137 
L 441.92381 32.829673 
L 448.02619 32.873783 
L 454.128571 32.31091 
L 460.230952 32.967698 
L 466.333333 33.212598 
L 472.435714 32.976534 
L 478.538095 32.965455 
L 484.640476 33.04051 
L 490.742857 32.794104 
L 496.845238 32.9673 
L 502.947619 33.097695 
L 509.05 33.094167 
L 515.152381 32.98759 
L 521.254762 32.997381 
L 527.357143 32.973804 
L 533.459524 33.280254 
L 539.561905 33.069245 
L 545.664286 33.17453 
L 551.766667 33.132217 
L 557.869048 33.273274 
L 563.971429 33.407019 
L 570.07381 33.222163 
L 576.17619 33.084058 
L 582.278571 33.356115 
L 588.380952 33.313373 
L 594.483333 33.321447 
L 600.585714 33.434183 
L 606.688095 34.12566 
L 612.790476 33.321843 
L 618.892857 33.281569 
L 624.995238 33.273319 
L 631.097619 33.114722 
L 637.2 33.405325 
" style="fill:none;stroke:#5959ff;stroke-linecap:square;stroke-width:1.5;"/>
   </g>
   <g id="line2d_15">
    <path clip-path="url(#p38bcace584)" d="M 380.9 20.654078 
L 387.002381 22.938039 
L 393.104762 23.574727 
L 399.207143 22.490542 
L 405.309524 205.062334 
L 411.411905 97.089724 
L 417.514286 79.316356 
L 423.616667 70.240874 
L 429.719048 67.043077 
L 435.821429 60.869421 
L 441.92381 61.31454 
L 448.02619 60.418655 
L 454.128571 59.947861 
L 460.230952 62.222543 
L 466.333333 59.009527 
L 472.435714 59.249945 
L 478.538095 61.704142 
L 484.640476 59.055887 
L 490.742857 58.863751 
L 496.845238 58.470409 
L 502.947619 59.61577 
L 509.05 58.802344 
L 515.152381 58.666468 
L 521.254762 58.520975 
L 527.357143 58.763944 
L 533.459524 58.733856 
L 539.561905 58.773404 
L 545.664286 59.415843 
L 551.766667 58.506762 
L 557.869048 58.612086 
L 563.971429 58.93644 
L 570.07381 58.396767 
L 576.17619 58.620537 
L 582.278571 58.600858 
L 588.380952 58.415975 
L 594.483333 58.577181 
L 600.585714 58.789638 
L 606.688095 58.648457 
L 612.790476 58.53564 
L 618.892857 58.618639 
L 624.995238 58.64797 
L 631.097619 58.582433 
L 637.2 58.800365 
" style="fill:none;stroke:#040299;stroke-linecap:square;stroke-width:1.5;"/>
   </g>
   <g id="matplotlib.axis_3">
    <g id="xtick_5">
     <g id="line2d_16">
      <g>
       <use style="stroke:#000000;stroke-width:0.8;" x="405.309524" xlink:href="#mb15ca0b85f" y="218.2"/>
      </g>
     </g>
     <g id="text_12">
      <!-- 1000 -->
      <g transform="translate(384.949524 237.3575)scale(0.16 -0.16)">
       <use xlink:href="#DejaVuSans-49"/>
       <use x="63.623047" xlink:href="#DejaVuSans-48"/>
       <use x="127.246094" xlink:href="#DejaVuSans-48"/>
       <use x="190.869141" xlink:href="#DejaVuSans-48"/>
      </g>
     </g>
    </g>
    <g id="xtick_6">
     <g id="line2d_17">
      <g>
       <use style="stroke:#000000;stroke-width:0.8;" x="466.333333" xlink:href="#mb15ca0b85f" y="218.2"/>
      </g>
     </g>
     <g id="text_13">
      <!-- 2000 -->
      <g transform="translate(445.973333 237.3575)scale(0.16 -0.16)">
       <use xlink:href="#DejaVuSans-50"/>
       <use x="63.623047" xlink:href="#DejaVuSans-48"/>
       <use x="127.246094" xlink:href="#DejaVuSans-48"/>
       <use x="190.869141" xlink:href="#DejaVuSans-48"/>
      </g>
     </g>
    </g>
    <g id="xtick_7">
     <g id="line2d_18">
      <g>
       <use style="stroke:#000000;stroke-width:0.8;" x="527.357143" xlink:href="#mb15ca0b85f" y="218.2"/>
      </g>
     </g>
     <g id="text_14">
      <!-- 3000 -->
      <g transform="translate(506.997143 237.3575)scale(0.16 -0.16)">
       <use xlink:href="#DejaVuSans-51"/>
       <use x="63.623047" xlink:href="#DejaVuSans-48"/>
       <use x="127.246094" xlink:href="#DejaVuSans-48"/>
       <use x="190.869141" xlink:href="#DejaVuSans-48"/>
      </g>
     </g>
    </g>
    <g id="xtick_8">
     <g id="line2d_19">
      <g>
       <use style="stroke:#000000;stroke-width:0.8;" x="588.380952" xlink:href="#mb15ca0b85f" y="218.2"/>
      </g>
     </g>
     <g id="text_15">
      <!-- 4000 -->
      <g transform="translate(568.020952 237.3575)scale(0.16 -0.16)">
       <use xlink:href="#DejaVuSans-52"/>
       <use x="63.623047" xlink:href="#DejaVuSans-48"/>
       <use x="127.246094" xlink:href="#DejaVuSans-48"/>
       <use x="190.869141" xlink:href="#DejaVuSans-48"/>
      </g>
     </g>
    </g>
    <g id="text_16">
     <!-- Rendition number -->
     <g transform="translate(437.46875 256.8425)scale(0.16 -0.16)">
      <use xlink:href="#DejaVuSans-82"/>
      <use x="64.982422" xlink:href="#DejaVuSans-101"/>
      <use x="126.505859" xlink:href="#DejaVuSans-110"/>
      <use x="189.884766" xlink:href="#DejaVuSans-100"/>
      <use x="253.361328" xlink:href="#DejaVuSans-105"/>
      <use x="281.144531" xlink:href="#DejaVuSans-116"/>
      <use x="320.353516" xlink:href="#DejaVuSans-105"/>
      <use x="348.136719" xlink:href="#DejaVuSans-111"/>
      <use x="409.318359" xlink:href="#DejaVuSans-110"/>
      <use x="472.697266" xlink:href="#DejaVuSans-32"/>
      <use x="504.484375" xlink:href="#DejaVuSans-110"/>
      <use x="567.863281" xlink:href="#DejaVuSans-117"/>
      <use x="631.242188" xlink:href="#DejaVuSans-109"/>
      <use x="728.654297" xlink:href="#DejaVuSans-98"/>
      <use x="792.130859" xlink:href="#DejaVuSans-101"/>
      <use x="853.654297" xlink:href="#DejaVuSans-114"/>
     </g>
    </g>
   </g>
   <g id="matplotlib.axis_4">
    <g id="ytick_6">
     <g id="line2d_20">
      <g>
       <use style="stroke:#000000;stroke-width:0.8;" x="380.9" xlink:href="#m360effe8cc" y="183.800704"/>
      </g>
     </g>
     <g id="text_17">
      <!-- 0.2 -->
      <g transform="translate(348.455 189.879454)scale(0.16 -0.16)">
       <use xlink:href="#DejaVuSans-48"/>
       <use x="63.623047" xlink:href="#DejaVuSans-46"/>
       <use x="95.410156" xlink:href="#DejaVuSans-50"/>
      </g>
     </g>
    </g>
    <g id="ytick_7">
     <g id="line2d_21">
      <g>
       <use style="stroke:#000000;stroke-width:0.8;" x="380.9" xlink:href="#m360effe8cc" y="143.473163"/>
      </g>
     </g>
     <g id="text_18">
      <!-- 0.4 -->
      <g transform="translate(348.455 149.551913)scale(0.16 -0.16)">
       <use xlink:href="#DejaVuSans-48"/>
       <use x="63.623047" xlink:href="#DejaVuSans-46"/>
       <use x="95.410156" xlink:href="#DejaVuSans-52"/>
      </g>
     </g>
    </g>
    <g id="ytick_8">
     <g id="line2d_22">
      <g>
       <use style="stroke:#000000;stroke-width:0.8;" x="380.9" xlink:href="#m360effe8cc" y="103.145623"/>
      </g>
     </g>
     <g id="text_19">
      <!-- 0.6 -->
      <g transform="translate(348.455 109.224373)scale(0.16 -0.16)">
       <use xlink:href="#DejaVuSans-48"/>
       <use x="63.623047" xlink:href="#DejaVuSans-46"/>
       <use x="95.410156" xlink:href="#DejaVuSans-54"/>
      </g>
     </g>
    </g>
    <g id="ytick_9">
     <g id="line2d_23">
      <g>
       <use style="stroke:#000000;stroke-width:0.8;" x="380.9" xlink:href="#m360effe8cc" y="62.818083"/>
      </g>
     </g>
     <g id="text_20">
      <!-- 0.8 -->
      <g transform="translate(348.455 68.896833)scale(0.16 -0.16)">
       <use xlink:href="#DejaVuSans-48"/>
       <use x="63.623047" xlink:href="#DejaVuSans-46"/>
       <use x="95.410156" xlink:href="#DejaVuSans-56"/>
      </g>
     </g>
    </g>
    <g id="ytick_10">
     <g id="line2d_24">
      <g>
       <use style="stroke:#000000;stroke-width:0.8;" x="380.9" xlink:href="#m360effe8cc" y="22.490542"/>
      </g>
     </g>
     <g id="text_21">
      <!-- 1.0 -->
      <g transform="translate(348.455 28.569292)scale(0.16 -0.16)">
       <use xlink:href="#DejaVuSans-49"/>
       <use x="63.623047" xlink:href="#DejaVuSans-46"/>
       <use x="95.410156" xlink:href="#DejaVuSans-48"/>
      </g>
     </g>
    </g>
    <g id="text_22">
     <!-- Mean inhibitory activity -->
     <defs>
      <path d="M 54.890625 33.015625 
L 54.890625 0 
L 45.90625 0 
L 45.90625 32.71875 
Q 45.90625 40.484375 42.875 44.328125 
Q 39.84375 48.1875 33.796875 48.1875 
Q 26.515625 48.1875 22.3125 43.546875 
Q 18.109375 38.921875 18.109375 30.90625 
L 18.109375 0 
L 9.078125 0 
L 9.078125 75.984375 
L 18.109375 75.984375 
L 18.109375 46.1875 
Q 21.34375 51.125 25.703125 53.5625 
Q 30.078125 56 35.796875 56 
Q 45.21875 56 50.046875 50.171875 
Q 54.890625 44.34375 54.890625 33.015625 
z
" id="DejaVuSans-104"/>
     </defs>
     <g transform="translate(341.1275 208.8125)rotate(-90)scale(0.16 -0.16)">
      <use xlink:href="#DejaVuSans-77"/>
      <use x="86.279297" xlink:href="#DejaVuSans-101"/>
      <use x="147.802734" xlink:href="#DejaVuSans-97"/>
      <use x="209.082031" xlink:href="#DejaVuSans-110"/>
      <use x="272.460938" xlink:href="#DejaVuSans-32"/>
      <use x="304.248047" xlink:href="#DejaVuSans-105"/>
      <use x="332.03125" xlink:href="#DejaVuSans-110"/>
      <use x="395.410156" xlink:href="#DejaVuSans-104"/>
      <use x="458.789062" xlink:href="#DejaVuSans-105"/>
      <use x="486.572266" xlink:href="#DejaVuSans-98"/>
      <use x="550.048828" xlink:href="#DejaVuSans-105"/>
      <use x="577.832031" xlink:href="#DejaVuSans-116"/>
      <use x="617.041016" xlink:href="#DejaVuSans-111"/>
      <use x="678.222656" xlink:href="#DejaVuSans-114"/>
      <use x="719.335938" xlink:href="#DejaVuSans-121"/>
      <use x="778.515625" xlink:href="#DejaVuSans-32"/>
      <use x="810.302734" xlink:href="#DejaVuSans-97"/>
      <use x="871.582031" xlink:href="#DejaVuSans-99"/>
      <use x="926.5625" xlink:href="#DejaVuSans-116"/>
      <use x="965.771484" xlink:href="#DejaVuSans-105"/>
      <use x="993.554688" xlink:href="#DejaVuSans-118"/>
      <use x="1052.734375" xlink:href="#DejaVuSans-105"/>
      <use x="1080.517578" xlink:href="#DejaVuSans-116"/>
      <use x="1119.726562" xlink:href="#DejaVuSans-121"/>
     </g>
    </g>
   </g>
   <g id="patch_6">
    <path d="M 380.9 218.2 
L 380.9 10.8 
" style="fill:none;stroke:#000000;stroke-linecap:square;stroke-linejoin:miter;stroke-width:0.8;"/>
   </g>
   <g id="patch_7">
    <path d="M 380.9 218.2 
L 637.2 218.2 
" style="fill:none;stroke:#000000;stroke-linecap:square;stroke-linejoin:miter;stroke-width:0.8;"/>
   </g>
  </g>
 </g>
 <defs>
  <clipPath id="pbdcc36e904">
   <rect height="207.4" width="256.3" x="62.3" y="10.8"/>
  </clipPath>
  <clipPath id="p38bcace584">
   <rect height="207.4" width="256.3" x="380.9" y="10.8"/>
  </clipPath>
 </defs>
</svg>
